<svg width="95" height="95" viewBox="0 0 95 95" fill="none" xmlns="http://www.w3.org/2000/svg">
<path d="M47.4998 94.9998C22.1357 94.9998 1.3833 74.2474 1.3833 48.8833C1.3833 23.5193 22.1357 2.76685 47.4998 2.76685C72.8639 2.76685 93.6163 23.5193 93.6163 48.8833C93.6163 74.2474 72.8639 94.9998 47.4998 94.9998Z" fill="#D89E77"/>
<path d="M47.5 89.3122C71.3564 89.3122 90.6958 69.9728 90.6958 46.1165C90.6958 22.2601 71.3564 2.92065 47.5 2.92065C23.6436 2.92065 4.3042 22.2601 4.3042 46.1165C4.3042 69.9728 23.6436 89.3122 47.5 89.3122Z" fill="#D88B56"/>
<path d="M9.37701 51.343C9.37701 27.5161 28.7459 8.14719 52.5728 8.14719C63.1796 8.14719 72.8641 11.9902 80.3964 18.2928C72.5566 8.9158 60.7201 2.92065 47.5 2.92065C23.6731 2.92065 4.3042 22.2896 4.3042 46.1165C4.3042 59.3365 10.2993 71.1731 19.6764 79.1666C13.2201 71.6342 9.37701 61.9498 9.37701 51.343Z" fill="#CC7E48"/>
<path d="M78.0904 15.6794C94.9998 32.5888 94.9998 59.9513 78.0904 76.8607C61.181 93.7701 33.8186 93.7701 16.9092 76.8607" fill="#CC7E48"/>
<path d="M47.4998 92.233C22.1357 92.233 1.3833 71.4806 1.3833 46.1165C1.3833 20.7524 22.1357 0 47.4998 0C72.8639 0 93.6163 20.7524 93.6163 46.1165C93.6163 71.4806 72.8639 92.233 47.4998 92.233ZM47.4998 5.84142C25.2102 5.84142 7.22472 23.9806 7.22472 46.1165C7.22472 68.4061 25.3639 86.3916 47.4998 86.3916C69.6357 86.3916 87.7749 68.2524 87.7749 46.1165C87.7749 23.9806 69.7894 5.84142 47.4998 5.84142Z" fill="#F7C6A4"/>
<path d="M93.6166 46.1163C93.6166 34.4335 89.3123 23.8267 82.2411 15.8332C74.0939 8.76197 63.4871 4.45776 51.8042 4.45776C43.9644 4.45776 36.7395 6.45615 30.2832 9.83802C35.5097 7.22475 41.3512 5.84126 47.5 5.84126C59.644 5.84126 70.712 11.3752 78.0907 19.9837C86.6991 27.3623 92.0793 38.2765 92.0793 50.5743C92.0793 56.7231 90.6958 62.5646 88.2363 67.7911C91.6182 61.3348 93.6166 53.9562 93.6166 46.1163Z" fill="#E8B18B"/>
<path d="M5.68799 50.5743C5.68799 62.2572 9.9922 72.864 17.0634 80.8575C25.2106 87.9287 35.8174 92.2329 47.3466 92.2329C55.1864 92.2329 62.4113 90.2345 68.8676 86.8526C63.6411 89.3122 57.7996 90.6957 51.6508 90.6957C39.5068 90.6957 28.4388 85.1617 21.0602 76.5533C12.4517 69.1746 6.91776 58.2604 6.91776 45.9627C6.91776 39.8138 8.30126 33.9724 10.7608 28.7458C7.68637 35.3559 5.68799 42.7345 5.68799 50.5743Z" fill="#E8B18B"/>
<path d="M47.8073 4.30433C47.8073 4.45805 47.6536 4.61177 47.4998 4.61177C47.3461 4.61177 47.1924 4.45805 47.1924 4.30433V1.38362C47.1924 1.22989 47.3461 1.07617 47.4998 1.07617C47.6536 1.07617 47.8073 1.22989 47.8073 1.38362V4.30433Z" fill="#FFDCC5"/>
<path d="M47.8073 91.0033C47.8073 91.157 47.6536 91.3107 47.4998 91.3107C47.3461 91.3107 47.1924 91.157 47.1924 91.0033V88.0826C47.1924 87.9289 47.3461 87.7751 47.4998 87.7751C47.6536 87.7751 47.8073 87.9289 47.8073 88.0826V91.0033Z" fill="#FFDCC5"/>
<path d="M77.3216 16.9095C77.1679 17.0632 77.0141 17.0632 76.8604 16.9095C76.7067 16.7558 76.7067 16.602 76.8604 16.4483L79.0125 14.2962C79.1662 14.1425 79.32 14.1425 79.4737 14.2962C79.6274 14.4499 79.6274 14.6036 79.4737 14.7574L77.3216 16.9095Z" fill="#FFDCC5"/>
<path d="M16.1409 78.0908C15.9872 78.2446 15.8335 78.2446 15.6797 78.0908C15.526 77.9371 15.526 77.7834 15.6797 77.6297L17.8318 75.4776C17.9856 75.3239 18.1393 75.3239 18.293 75.4776C18.4467 75.6313 18.4467 75.785 18.293 75.9388L16.1409 78.0908Z" fill="#FFDCC5"/>
<path d="M89.3123 46.5778C89.1586 46.5778 89.0049 46.4241 89.0049 46.2703C89.0049 46.1166 89.1586 45.9629 89.3123 45.9629H92.233C92.3868 45.9629 92.5405 46.1166 92.5405 46.2703C92.5405 46.4241 92.3868 46.5778 92.233 46.5778H89.3123Z" fill="#FFDCC5"/>
<path d="M2.76692 46.5778C2.61319 46.5778 2.45947 46.424 2.45947 46.2703C2.45947 46.1166 2.61319 45.9628 2.76692 45.9628H5.68763C5.84135 45.8091 5.99507 45.9628 5.99507 46.1166C5.99507 46.2703 5.84135 46.424 5.68763 46.424H2.76692V46.5778Z" fill="#FFDCC5"/>
<path d="M76.8604 76.0923C76.7067 75.9386 76.7067 75.7849 76.8604 75.6312C77.0141 75.4774 77.1679 75.4774 77.3216 75.6312L79.4737 77.7832C79.6274 77.937 79.6274 78.0907 79.4737 78.2444C79.32 78.3981 79.1662 78.3981 79.0125 78.2444L76.8604 76.0923Z" fill="#FFDCC5"/>
<path d="M15.5259 14.7574C15.3722 14.6036 15.3722 14.4499 15.5259 14.2962C15.6797 14.1425 15.8334 14.1425 15.9871 14.2962L18.1392 16.4483C18.2929 16.602 18.2929 16.7558 18.1392 16.9095C17.9855 17.0632 17.8318 17.0632 17.678 16.9095L15.5259 14.7574Z" fill="#FFDCC5"/>
<path d="M26.9013 9.83823C27.0551 9.99195 26.9013 10.2994 26.7476 10.2994C26.5939 10.4531 26.2864 10.2994 26.2864 10.1457L24.7492 7.53241C24.5955 7.37869 24.7492 7.07124 24.9029 7.07124C25.0567 6.91752 25.3641 7.07124 25.3641 7.22496L26.9013 9.83823Z" fill="#FFDCC5"/>
<path d="M70.2505 84.8543C70.4042 85.0081 70.2505 85.3155 70.0967 85.3155C69.943 85.4692 69.6356 85.3155 69.6356 85.1618L68.0983 82.5485C67.9446 82.3948 68.0983 82.0874 68.2521 82.0874C68.4058 81.9336 68.7132 82.0874 68.7132 82.2411L70.2505 84.8543Z" fill="#FFDCC5"/>
<path d="M58.7217 5.84135C58.7217 5.99507 58.4143 6.14879 58.2606 6.14879C58.1068 6.14879 57.9531 5.84135 57.9531 5.68762L58.7217 2.76692C58.7217 2.61319 59.0292 2.45947 59.1829 2.45947C59.3366 2.45947 59.4903 2.76692 59.4903 2.92064L58.7217 5.84135Z" fill="#FFDCC5"/>
<path d="M36.2784 89.4661C36.2784 89.6198 35.9709 89.7736 35.8172 89.7736C35.6635 89.7736 35.5098 89.4661 35.5098 89.3124L36.2784 86.3917C36.2784 86.238 36.5858 86.0842 36.7395 86.0842C36.8933 86.0842 37.047 86.3917 37.047 86.5454L36.2784 89.4661Z" fill="#FFDCC5"/>
<path d="M83.9321 25.5178C83.7783 25.6715 83.4709 25.5178 83.4709 25.3641C83.3172 25.2103 83.4709 24.9029 83.6246 24.9029L86.2379 23.3657C86.3916 23.212 86.6991 23.3657 86.6991 23.5194C86.8528 23.6731 86.6991 23.9806 86.5454 23.9806L83.9321 25.5178Z" fill="#FFDCC5"/>
<path d="M8.91546 68.8674C8.76174 69.0211 8.4543 68.8674 8.4543 68.7137C8.30058 68.5599 8.4543 68.2525 8.60802 68.2525L11.2213 66.7153C11.375 66.5616 11.6825 66.7153 11.6825 66.869C11.8362 67.0227 11.6825 67.3302 11.5287 67.3302L8.91546 68.8674Z" fill="#FFDCC5"/>
<path d="M87.7752 57.3382C87.6215 57.3382 87.4678 57.0307 87.4678 56.877C87.4678 56.7233 87.7752 56.5696 87.9289 56.5696L90.8497 57.3382C91.0034 57.3382 91.1571 57.6456 91.1571 57.7994C91.1571 57.9531 90.8497 58.1068 90.6959 58.1068L87.7752 57.3382Z" fill="#FFDCC5"/>
<path d="M4.15022 34.8948C3.9965 34.8948 3.84277 34.5874 3.84277 34.4337C3.84277 34.2799 4.15022 34.1262 4.30394 34.1262L7.22465 34.8948C7.37837 34.8948 7.53209 35.2023 7.53209 35.356C7.53209 35.5097 7.22465 35.6634 7.07093 35.6634L4.15022 34.8948Z" fill="#FFDCC5"/>
<path d="M11.5287 24.9029C11.6825 25.0566 11.8362 25.2103 11.6825 25.3641C11.5287 25.5178 11.375 25.6715 11.2213 25.5178L8.60802 23.9806C8.4543 23.8268 8.30058 23.6731 8.4543 23.5194C8.60802 23.3657 8.76174 23.212 8.91546 23.3657L11.5287 24.9029Z" fill="#FFDCC5"/>
<path d="M86.5454 68.2525C86.6991 68.4062 86.8528 68.5599 86.6991 68.7137C86.5454 68.8674 86.3916 69.0211 86.2379 68.8674L83.6246 67.3302C83.4709 67.1764 83.3172 67.0227 83.4709 66.869C83.6246 66.7153 83.7783 66.5616 83.9321 66.7153L86.5454 68.2525Z" fill="#FFDCC5"/>
<path d="M37.047 5.68762C37.047 5.84135 37.047 6.14879 36.7395 6.14879C36.5858 6.14879 36.2784 6.14879 36.2784 5.84135L35.5098 2.92064C35.5098 2.76692 35.5098 2.45947 35.8172 2.45947C35.9709 2.45947 36.2784 2.45947 36.2784 2.76692L37.047 5.68762Z" fill="#FFDCC5"/>
<path d="M59.4903 89.3124C59.4903 89.4661 59.4903 89.7736 59.1829 89.7736C59.0292 89.7736 58.7217 89.7736 58.7217 89.4661L57.9531 86.5454C57.9531 86.3917 57.9531 86.0842 58.2606 86.0842C58.4143 86.0842 58.7217 86.0842 58.7217 86.3917L59.4903 89.3124Z" fill="#FFDCC5"/>
<path d="M68.7132 10.1457C68.5595 10.2994 68.4058 10.4531 68.2521 10.2994C68.0983 10.1457 67.9446 9.99195 68.0983 9.83823L69.6356 7.22496C69.7893 7.07124 69.943 6.91752 70.0967 7.07124C70.2505 7.22496 70.4042 7.37869 70.2505 7.53241L68.7132 10.1457Z" fill="#FFDCC5"/>
<path d="M25.3641 85.1618C25.2104 85.3155 25.0567 85.4692 24.9029 85.3155C24.7492 85.1618 24.5955 85.0081 24.7492 84.8543L26.2864 82.2411C26.4402 82.0874 26.5939 81.9336 26.7476 82.0874C26.9013 82.2411 27.0551 82.3948 26.9013 82.5485L25.3641 85.1618Z" fill="#FFDCC5"/>
<path d="M87.9289 35.6634C87.7752 35.6634 87.4678 35.6634 87.4678 35.356C87.4678 35.2023 87.4678 34.8948 87.7752 34.8948L90.6959 34.1262C90.8497 34.1262 91.1571 34.1262 91.1571 34.4337C91.1571 34.5874 91.1571 34.8948 90.8497 34.8948L87.9289 35.6634Z" fill="#FFDCC5"/>
<path d="M4.30394 58.1068C4.15022 58.1068 3.84277 58.1068 3.84277 57.7994C3.84277 57.6456 3.84277 57.3382 4.15022 57.3382L7.07093 56.5696C7.22465 56.5696 7.53209 56.5696 7.53209 56.877C7.53209 57.0307 7.53209 57.3382 7.22465 57.3382L4.30394 58.1068Z" fill="#FFDCC5"/>
<path d="M56.2618 47.3464C58.5677 45.1943 59.7974 42.2735 59.7974 39.0454C59.7974 33.3577 55.647 27.3625 46.4237 27.3625C41.5046 27.3625 37.2004 29.2072 35.0483 30.7444C33.9722 31.513 33.5111 32.8965 33.9722 34.1263L35.202 37.6619C35.5094 38.5842 36.278 39.1991 37.0467 39.5066C37.969 39.814 38.8913 39.6603 39.6599 39.0454C40.8897 38.1231 43.1955 37.2007 45.1939 37.2007C48.5758 37.2007 48.5758 39.0454 48.5758 39.814C48.5758 42.4273 44.7327 43.0422 43.3492 43.0422H40.5822C38.8913 43.0422 37.6615 44.4257 37.6615 45.9629V49.6522C37.6615 51.3431 39.045 52.5729 40.5822 52.5729H43.3492C44.8865 52.5729 49.8055 52.8803 49.8055 57.0308C49.8055 57.492 49.8055 58.7218 48.7295 59.7978C47.6534 60.8739 45.8088 61.1813 44.4253 61.1813C41.812 61.1813 39.045 60.1053 37.969 59.3366C37.2004 58.8755 36.278 58.7218 35.3557 59.0292C34.4334 59.3367 33.8185 59.9515 33.5111 60.8739L32.1276 64.7169C31.6664 65.9467 32.1276 67.4839 33.3573 68.2525C35.5094 69.636 39.6599 71.1732 44.4253 71.1732C55.647 71.1732 60.7198 63.9483 60.7198 57.1845C61.1809 53.1878 59.3363 49.6522 56.2618 47.3464Z" fill="#FFDCC5"/>
<path d="M40.8899 52.7265H43.6569C45.1941 52.7265 50.1132 53.0339 50.1132 57.1844C50.1132 57.6456 50.1132 58.8754 49.0371 59.9514C47.9611 61.0275 46.1164 61.3349 44.7329 61.3349C42.1196 61.3349 39.3527 60.2589 38.2766 59.4902C37.508 59.0291 36.5857 58.8754 35.6633 59.1828C34.741 59.4902 34.1261 60.1051 33.8187 61.0275L32.4352 64.8705C31.974 66.1003 32.4352 67.6375 33.665 68.4061C35.8171 69.7896 39.9675 71.3268 44.7329 71.3268C55.9546 71.3268 61.0274 64.1019 61.0274 57.3381C61.0274 53.3414 59.1827 49.8058 56.1083 47.5C58.4141 45.3478 59.6439 42.4271 59.6439 39.199C59.6439 37.6618 59.3365 36.2783 58.7216 34.8948L40.8899 52.7265Z" fill="#F7C6A4"/>
<path d="M41.9658 17.0632C41.9658 18.4467 40.736 20.7525 39.3525 20.7525C37.969 20.7525 36.7393 18.4467 36.7393 17.0632C36.7393 15.6797 37.969 14.45 39.3525 14.45C40.736 14.45 41.9658 15.6797 41.9658 17.0632Z" fill="#CC7E48"/>
<path d="M39.3525 19.6765C40.7958 19.6765 41.9658 18.5065 41.9658 17.0632C41.9658 15.62 40.7958 14.45 39.3525 14.45C37.9093 14.45 36.7393 15.62 36.7393 17.0632C36.7393 18.5065 37.9093 19.6765 39.3525 19.6765Z" fill="#F7C6A4"/>
<path d="M41.1976 15.2185C42.2737 16.2946 42.2737 17.8318 41.1976 18.9078C40.1216 19.9839 38.5843 19.9839 37.5083 18.9078" fill="#E8B18B"/>
<path d="M50.1133 17.0632C50.1133 18.4467 48.8835 20.7525 47.5 20.7525C46.1165 20.7525 44.8867 18.4467 44.8867 17.0632C44.8867 15.6797 46.1165 14.45 47.5 14.45C48.8835 14.45 50.1133 15.6797 50.1133 17.0632Z" fill="#CC7E48"/>
<path d="M47.5 19.6765C48.9433 19.6765 50.1133 18.5065 50.1133 17.0632C50.1133 15.62 48.9433 14.45 47.5 14.45C46.0567 14.45 44.8867 15.62 44.8867 17.0632C44.8867 18.5065 46.0567 19.6765 47.5 19.6765Z" fill="#F7C6A4"/>
<path d="M49.3446 15.2185C50.4206 16.2946 50.4206 17.8318 49.3446 18.9078C48.2685 19.9839 46.7313 19.9839 45.6553 18.9078" fill="#E8B18B"/>
<path d="M58.2607 17.0632C58.2607 18.4467 57.0309 20.7525 55.6474 20.7525C54.264 20.7525 53.0342 18.4467 53.0342 17.0632C53.0342 15.6797 54.264 14.45 55.6474 14.45C57.0309 14.45 58.2607 15.6797 58.2607 17.0632Z" fill="#CC7E48"/>
<path d="M55.6474 19.6765C57.0907 19.6765 58.2607 18.5065 58.2607 17.0632C58.2607 15.62 57.0907 14.45 55.6474 14.45C54.2042 14.45 53.0342 15.62 53.0342 17.0632C53.0342 18.5065 54.2042 19.6765 55.6474 19.6765Z" fill="#F7C6A4"/>
<path d="M57.4921 15.2185C58.5681 16.2946 58.5681 17.8318 57.4921 18.9078C56.416 19.9839 54.8788 19.9839 53.8027 18.9078" fill="#E8B18B"/>
</svg>
