<svg width="111" height="111" viewBox="0 0 111 111" fill="none" xmlns="http://www.w3.org/2000/svg">
<path d="M55.5002 111C25.8643 111 1.6167 86.7524 1.6167 57.1165C1.6167 27.4806 25.8643 3.23303 55.5002 3.23303C85.1361 3.23303 109.384 27.4806 109.384 57.1165C109.384 86.7524 85.1361 111 55.5002 111Z" fill="#DBAB56"/>
<path d="M55.5002 104.354C83.3745 104.354 105.971 81.7576 105.971 53.8834C105.971 26.0091 83.3745 3.41248 55.5002 3.41248C27.6259 3.41248 5.0293 26.0091 5.0293 53.8834C5.0293 81.7576 27.6259 104.354 55.5002 104.354Z" fill="#EFB30C"/>
<path d="M10.9565 59.9902C10.9565 32.1503 33.5875 9.51927 61.4274 9.51927C73.8206 9.51927 85.1361 14.0096 93.9371 21.3736C84.7769 10.4173 70.9468 3.41248 55.5002 3.41248C27.6604 3.41248 5.0293 26.0435 5.0293 53.8834C5.0293 69.33 12.0342 83.1601 22.9905 92.4999C15.4468 83.6989 10.9565 72.3834 10.9565 59.9902Z" fill="#E5A300"/>
<path d="M91.2428 18.3201C111 38.0774 111 70.0482 91.2428 89.8055C71.4855 109.563 39.5146 109.563 19.7573 89.8055" fill="#E5A300"/>
<path d="M55.5002 107.767C25.8643 107.767 1.6167 83.5194 1.6167 53.8835C1.6167 24.2476 25.8643 0 55.5002 0C85.1361 0 109.384 24.2476 109.384 53.8835C109.384 83.5194 85.1361 107.767 55.5002 107.767ZM55.5002 6.82524C29.4565 6.82524 8.44194 28.0194 8.44194 53.8835C8.44194 79.9272 29.6361 100.942 55.5002 100.942C81.3643 100.942 102.558 79.7476 102.558 53.8835C102.558 28.0194 81.5439 6.82524 55.5002 6.82524Z" fill="#F7D27F"/>
<path d="M109.383 53.8834C109.383 40.2329 104.354 27.8397 96.092 18.4999C86.5726 10.2377 74.1794 5.20862 60.5289 5.20862C51.3687 5.20862 42.927 7.54357 35.3833 11.495C41.4901 8.44163 48.3153 6.82512 55.4998 6.82512C69.6891 6.82512 82.6212 13.2911 91.2425 23.3494C101.301 31.9708 107.587 44.7232 107.587 59.0921C107.587 66.2766 105.971 73.1018 103.097 79.2086C107.048 71.6649 109.383 63.0436 109.383 53.8834Z" fill="#EFC273"/>
<path d="M6.64551 59.0923C6.64551 72.7427 11.6746 85.1359 19.9368 94.4757C29.4562 102.738 41.8494 107.767 55.3203 107.767C64.4805 107.767 72.9222 105.432 80.4659 101.481C74.3591 104.354 67.5339 105.971 60.3494 105.971C46.1601 105.971 33.228 99.5049 24.6067 89.4466C14.5484 80.8252 8.0824 68.0728 8.0824 53.7039C8.0824 46.5194 9.69891 39.6942 12.5727 33.5874C8.98046 41.3107 6.64551 49.9321 6.64551 59.0923Z" fill="#EAC06C"/>
<path d="M58.5531 19.9369C58.5531 21.5534 57.1162 24.2476 55.4997 24.2476C53.8832 24.2476 52.4463 21.5534 52.4463 19.9369C52.4463 18.3204 53.8832 16.8835 55.4997 16.8835C57.1162 16.8835 58.5531 18.3204 58.5531 19.9369Z" fill="#E5A300"/>
<path d="M55.4997 22.9903C57.186 22.9903 58.5531 21.6233 58.5531 19.9369C58.5531 18.2506 57.186 16.8835 55.4997 16.8835C53.8133 16.8835 52.4463 18.2506 52.4463 19.9369C52.4463 21.6233 53.8133 22.9903 55.4997 22.9903Z" fill="#F7D27F"/>
<path d="M57.6554 17.7815C58.9127 19.0388 58.9127 20.8349 57.6554 22.0922C56.3981 23.3494 54.602 23.3494 53.3447 22.0922" fill="#EFC273"/>
<path d="M55.8591 5.02929C55.8591 5.2089 55.6795 5.38851 55.4999 5.38851C55.3202 5.38851 55.1406 5.2089 55.1406 5.02929V1.61667C55.1406 1.43706 55.3202 1.25745 55.4999 1.25745C55.6795 1.25745 55.8591 1.43706 55.8591 1.61667V5.02929Z" fill="#FFE0A1"/>
<path d="M55.8591 106.33C55.8591 106.51 55.6795 106.689 55.4999 106.689C55.3202 106.689 55.1406 106.51 55.1406 106.33V102.918C55.1406 102.738 55.3202 102.558 55.4999 102.558C55.6795 102.558 55.8591 102.738 55.8591 102.918V106.33Z" fill="#FFE0A1"/>
<path d="M90.3444 19.7574C90.1648 19.9371 89.9852 19.9371 89.8056 19.7574C89.626 19.5778 89.626 19.3982 89.8056 19.2186L92.3202 16.704C92.4998 16.5244 92.6794 16.5244 92.859 16.704C93.0386 16.8837 93.0386 17.0633 92.859 17.2429L90.3444 19.7574Z" fill="#FFE0A1"/>
<path d="M18.8591 91.2428C18.6795 91.4224 18.4999 91.4224 18.3203 91.2428C18.1406 91.0632 18.1406 90.8836 18.3203 90.7039L20.8348 88.1894C21.0144 88.0098 21.194 88.0098 21.3736 88.1894C21.5533 88.369 21.5533 88.5486 21.3736 88.7282L18.8591 91.2428Z" fill="#FFE0A1"/>
<path d="M104.354 54.4223C104.175 54.4223 103.995 54.2427 103.995 54.0631C103.995 53.8835 104.175 53.7039 104.354 53.7039H107.767C107.947 53.7039 108.126 53.8835 108.126 54.0631C108.126 54.2427 107.947 54.4223 107.767 54.4223H104.354Z" fill="#FFE0A1"/>
<path d="M3.23276 54.4225C3.05315 54.4225 2.87354 54.2429 2.87354 54.0633C2.87354 53.8837 3.05315 53.704 3.23276 53.704H6.64538C6.82499 53.5244 7.0046 53.704 7.0046 53.8837C7.0046 54.0633 6.82499 54.2429 6.64538 54.2429H3.23276V54.4225Z" fill="#FFE0A1"/>
<path d="M89.8056 88.9077C89.626 88.7281 89.626 88.5485 89.8056 88.3688C89.9852 88.1892 90.1648 88.1892 90.3444 88.3688L92.859 90.8834C93.0386 91.063 93.0386 91.2426 92.859 91.4222C92.6794 91.6018 92.4998 91.6018 92.3202 91.4222L89.8056 88.9077Z" fill="#FFE0A1"/>
<path d="M18.1406 17.2429C17.961 17.0633 17.961 16.8837 18.1406 16.704C18.3202 16.5244 18.4998 16.5244 18.6794 16.704L21.194 19.2186C21.3736 19.3982 21.3736 19.5778 21.194 19.7574C21.0144 19.9371 20.8347 19.9371 20.6551 19.7574L18.1406 17.2429Z" fill="#FFE0A1"/>
<path d="M31.4322 11.4953C31.6118 11.6749 31.4322 12.0341 31.2526 12.0341C31.073 12.2137 30.7138 12.0341 30.7138 11.8545L28.9177 8.8011C28.738 8.62149 28.9177 8.26226 29.0973 8.26226C29.2769 8.08265 29.6361 8.26226 29.6361 8.44188L31.4322 11.4953Z" fill="#FFE0A1"/>
<path d="M82.0822 99.1458C82.2618 99.3254 82.0822 99.6846 81.9025 99.6846C81.7229 99.8642 81.3637 99.6846 81.3637 99.505L79.5676 96.4516C79.3879 96.272 79.5676 95.9128 79.7472 95.9128C79.9268 95.7332 80.286 95.9128 80.286 96.0924L82.0822 99.1458Z" fill="#FFE0A1"/>
<path d="M68.6114 6.82523C68.6114 7.00484 68.2522 7.18445 68.0726 7.18445C67.893 7.18445 67.7134 6.82523 67.7134 6.64562L68.6114 3.233C68.6114 3.05339 68.9707 2.87378 69.1503 2.87378C69.3299 2.87378 69.5095 3.233 69.5095 3.41261L68.6114 6.82523Z" fill="#FFE0A1"/>
<path d="M42.3878 104.534C42.3878 104.714 42.0286 104.893 41.849 104.893C41.6694 104.893 41.4897 104.534 41.4897 104.355L42.3878 100.942C42.3878 100.762 42.747 100.583 42.9266 100.583C43.1063 100.583 43.2859 100.942 43.2859 101.122L42.3878 104.534Z" fill="#FFE0A1"/>
<path d="M98.0678 29.8155C97.8882 29.9951 97.529 29.8155 97.529 29.6359C97.3494 29.4563 97.529 29.0971 97.7086 29.0971L100.762 27.301C100.942 27.1213 101.301 27.301 101.301 27.4806C101.48 27.6602 101.301 28.0194 101.121 28.0194L98.0678 29.8155Z" fill="#FFE0A1"/>
<path d="M10.4174 80.4661C10.2378 80.6458 9.8786 80.4661 9.8786 80.2865C9.69899 80.1069 9.8786 79.7477 10.0582 79.7477L13.1116 77.9516C13.2912 77.772 13.6504 77.9516 13.6504 78.1312C13.8301 78.3108 13.6504 78.67 13.4708 78.67L10.4174 80.4661Z" fill="#FFE0A1"/>
<path d="M102.558 66.9952C102.378 66.9952 102.199 66.636 102.199 66.4564C102.199 66.2768 102.558 66.0972 102.738 66.0972L106.15 66.9952C106.33 66.9952 106.509 67.3545 106.509 67.5341C106.509 67.7137 106.15 67.8933 105.971 67.8933L102.558 66.9952Z" fill="#FFE0A1"/>
<path d="M4.84946 40.7721C4.66985 40.7721 4.49023 40.4129 4.49023 40.2332C4.49023 40.0536 4.84946 39.874 5.02907 39.874L8.44169 40.7721C8.6213 40.7721 8.80091 41.1313 8.80091 41.3109C8.80091 41.4905 8.44169 41.6701 8.26208 41.6701L4.84946 40.7721Z" fill="#FFE0A1"/>
<path d="M13.4708 29.0971C13.6504 29.2767 13.8301 29.4563 13.6504 29.6359C13.4708 29.8155 13.2912 29.9951 13.1116 29.8155L10.0582 28.0194C9.8786 27.8398 9.69899 27.6602 9.8786 27.4806C10.0582 27.301 10.2378 27.1213 10.4174 27.301L13.4708 29.0971Z" fill="#FFE0A1"/>
<path d="M101.121 79.7477C101.301 79.9273 101.48 80.1069 101.301 80.2865C101.121 80.4661 100.942 80.6458 100.762 80.4661L97.7086 78.67C97.529 78.4904 97.3494 78.3108 97.529 78.1312C97.7086 77.9516 97.8882 77.772 98.0678 77.9516L101.121 79.7477Z" fill="#FFE0A1"/>
<path d="M43.2859 6.64562C43.2859 6.82523 43.2859 7.18445 42.9266 7.18445C42.747 7.18445 42.3878 7.18445 42.3878 6.82523L41.4897 3.41261C41.4897 3.233 41.4897 2.87378 41.849 2.87378C42.0286 2.87378 42.3878 2.87378 42.3878 3.233L43.2859 6.64562Z" fill="#FFE0A1"/>
<path d="M69.5095 104.355C69.5095 104.534 69.5095 104.893 69.1503 104.893C68.9707 104.893 68.6114 104.893 68.6114 104.534L67.7134 101.122C67.7134 100.942 67.7134 100.583 68.0726 100.583C68.2522 100.583 68.6114 100.583 68.6114 100.942L69.5095 104.355Z" fill="#FFE0A1"/>
<path d="M80.286 11.8545C80.1064 12.0341 79.9268 12.2137 79.7472 12.0341C79.5676 11.8545 79.3879 11.6749 79.5676 11.4953L81.3637 8.44188C81.5433 8.26226 81.7229 8.08265 81.9025 8.26226C82.0822 8.44188 82.2618 8.62149 82.0822 8.8011L80.286 11.8545Z" fill="#FFE0A1"/>
<path d="M29.6361 99.505C29.4565 99.6846 29.2769 99.8642 29.0973 99.6846C28.9177 99.505 28.738 99.3254 28.9177 99.1458L30.7138 96.0924C30.8934 95.9128 31.073 95.7332 31.2526 95.9128C31.4322 96.0924 31.6118 96.272 31.4322 96.4516L29.6361 99.505Z" fill="#FFE0A1"/>
<path d="M102.738 41.6701C102.558 41.6701 102.199 41.6701 102.199 41.3109C102.199 41.1313 102.199 40.7721 102.558 40.7721L105.971 39.874C106.15 39.874 106.509 39.874 106.509 40.2332C106.509 40.4129 106.509 40.7721 106.15 40.7721L102.738 41.6701Z" fill="#FFE0A1"/>
<path d="M5.02907 67.8933C4.84946 67.8933 4.49023 67.8933 4.49023 67.5341C4.49023 67.3545 4.49023 66.9952 4.84946 66.9952L8.26208 66.0972C8.44169 66.0972 8.80091 66.0972 8.80091 66.4564C8.80091 66.636 8.80091 66.9952 8.44169 66.9952L5.02907 67.8933Z" fill="#FFE0A1"/>
<path d="M59.8106 32.6897H54.9611C54.4223 32.6897 53.8835 32.8693 53.3446 33.0489L44.0048 38.078C42.568 38.7965 41.8495 40.413 42.2087 42.0295L43.2864 46.5198C43.466 47.5975 44.1845 48.4955 45.2621 48.8547C46.1602 49.214 47.4175 49.214 48.3155 48.6751L50.8301 47.4179V79.0295C50.8301 81.0052 52.4466 82.4421 54.2427 82.4421H59.8106C61.7864 82.4421 63.2233 80.8256 63.2233 79.0295V36.1023C63.2233 34.3062 61.6068 32.6897 59.8106 32.6897Z" fill="#FFE0A1"/>
<path d="M50.6504 58.7332V78.8497C50.6504 80.8254 52.2669 82.2623 54.063 82.2623H59.631C61.6067 82.2623 63.0436 80.6458 63.0436 78.8497V46.1604L50.6504 58.7332Z" fill="#F7D27F"/>
</svg>
