<svg width="95" height="95" viewBox="0 0 95 95" fill="none" xmlns="http://www.w3.org/2000/svg">
<g clip-path="url(#clip0)">
<path d="M47.4998 95.0001C22.1357 95.0001 1.3833 74.2477 1.3833 48.8836C1.3833 23.5195 22.1357 2.76709 47.4998 2.76709C72.8639 2.76709 93.6163 23.5195 93.6163 48.8836C93.6163 74.2477 72.8639 95.0001 47.4998 95.0001Z" fill="#90AEAF"/>
<path d="M47.5 89.3122C71.3564 89.3122 90.6958 69.9728 90.6958 46.1164C90.6958 22.2601 71.3564 2.92065 47.5 2.92065C23.6436 2.92065 4.3042 22.2601 4.3042 46.1164C4.3042 69.9728 23.6436 89.3122 47.5 89.3122Z" fill="#7D979E"/>
<path d="M9.37702 51.343C9.37702 27.5161 28.746 8.14719 52.5728 8.14719C63.1796 8.14719 72.8641 11.9902 80.3964 18.2928C72.5566 8.9158 60.7201 2.92065 47.5 2.92065C23.6731 2.92065 4.3042 22.2896 4.3042 46.1164C4.3042 59.3365 10.2993 71.1731 19.6764 79.1666C13.2201 71.6342 9.37702 61.9498 9.37702 51.343Z" fill="#688389"/>
<path d="M78.0904 15.6797C94.9998 32.5891 94.9998 59.9515 78.0904 76.8609C61.181 93.7703 33.8186 93.7703 16.9092 76.8609" fill="#688389"/>
<path d="M47.4998 92.233C22.1357 92.233 1.3833 71.4806 1.3833 46.1165C1.3833 20.7524 22.1357 0 47.4998 0C72.8639 0 93.6163 20.7524 93.6163 46.1165C93.6163 71.4806 72.8639 92.233 47.4998 92.233ZM47.4998 5.84142C25.2102 5.84142 7.22472 23.9806 7.22472 46.1165C7.22472 68.4061 25.3639 86.3916 47.4998 86.3916C69.6357 86.3916 87.7749 68.2524 87.7749 46.1165C87.7749 23.9806 69.7894 5.84142 47.4998 5.84142Z" fill="#B6CBCE"/>
<path d="M93.6165 46.1166C93.6165 34.4337 89.3123 23.8269 82.2411 15.8334C74.0939 8.76222 63.4871 4.45801 51.8042 4.45801C43.9644 4.45801 36.7395 6.45639 30.2832 9.83827C35.5097 7.225 41.3512 5.8415 47.5 5.8415C59.644 5.8415 70.712 11.3755 78.0906 19.9839C86.6991 27.3625 92.0793 38.2768 92.0793 50.5745C92.0793 56.7234 90.6958 62.5648 88.2363 67.7913C91.6181 61.335 93.6165 53.9564 93.6165 46.1166Z" fill="#A3BFC1"/>
<path d="M5.6875 50.5746C5.6875 62.2574 9.99171 72.8642 17.0629 80.8577C25.2102 87.9289 35.8169 92.2332 47.3461 92.2332C55.1859 92.2332 62.4108 90.2348 68.8671 86.8529C63.6406 89.3124 57.7991 90.6959 51.6503 90.6959C39.5063 90.6959 28.4383 85.162 21.0597 76.5535C12.4513 69.1749 6.91727 58.2607 6.91727 45.9629C6.91727 39.8141 8.30077 33.9726 10.7603 28.7461C7.68588 35.3561 5.6875 42.7348 5.6875 50.5746Z" fill="#A3BFC1"/>
<path d="M47.8078 4.30408C47.8078 4.4578 47.654 4.61153 47.5003 4.61153C47.3466 4.61153 47.1929 4.4578 47.1929 4.30408V1.38337C47.1929 1.22965 47.3466 1.07593 47.5003 1.07593C47.654 1.07593 47.8078 1.22965 47.8078 1.38337V4.30408Z" fill="#C7E0E2"/>
<path d="M47.8078 91.0031C47.8078 91.1568 47.654 91.3105 47.5003 91.3105C47.3466 91.3105 47.1929 91.1568 47.1929 91.0031V88.0823C47.1929 87.9286 47.3466 87.7749 47.5003 87.7749C47.654 87.7749 47.8078 87.9286 47.8078 88.0823V91.0031Z" fill="#C7E0E2"/>
<path d="M77.3221 16.9092C77.1683 17.0629 77.0146 17.0629 76.8609 16.9092C76.7072 16.7555 76.7072 16.6018 76.8609 16.4481L79.013 14.296C79.1667 14.1422 79.3205 14.1422 79.4742 14.296C79.6279 14.4497 79.6279 14.6034 79.4742 14.7571L77.3221 16.9092Z" fill="#C7E0E2"/>
<path d="M16.1404 78.0904C15.9867 78.2441 15.833 78.2441 15.6793 78.0904C15.5255 77.9367 15.5255 77.7829 15.6793 77.6292L17.8314 75.4771C17.9851 75.3234 18.1388 75.3234 18.2925 75.4771C18.4462 75.6308 18.4462 75.7846 18.2925 75.9383L16.1404 78.0904Z" fill="#C7E0E2"/>
<path d="M89.3123 46.5775C89.1586 46.5775 89.0049 46.4238 89.0049 46.2701C89.0049 46.1164 89.1586 45.9626 89.3123 45.9626H92.233C92.3868 45.9626 92.5405 46.1164 92.5405 46.2701C92.5405 46.4238 92.3868 46.5775 92.233 46.5775H89.3123Z" fill="#C7E0E2"/>
<path d="M2.76692 46.5775C2.61319 46.5775 2.45947 46.4238 2.45947 46.27C2.45947 46.1163 2.61319 45.9626 2.76692 45.9626H5.68763C5.84135 45.8089 5.99507 45.9626 5.99507 46.1163C5.99507 46.27 5.84135 46.4238 5.68763 46.4238H2.76692V46.5775Z" fill="#C7E0E2"/>
<path d="M76.8609 76.0921C76.7072 75.9384 76.7072 75.7846 76.8609 75.6309C77.0146 75.4772 77.1683 75.4772 77.3221 75.6309L79.4742 77.783C79.6279 77.9367 79.6279 78.0905 79.4742 78.2442C79.3205 78.3979 79.1667 78.3979 79.013 78.2442L76.8609 76.0921Z" fill="#C7E0E2"/>
<path d="M15.5259 14.7571C15.3722 14.6034 15.3722 14.4497 15.5259 14.296C15.6797 14.1422 15.8334 14.1422 15.9871 14.296L18.1392 16.4481C18.2929 16.6018 18.2929 16.7555 18.1392 16.9092C17.9855 17.0629 17.8318 17.0629 17.678 16.9092L15.5259 14.7571Z" fill="#C7E0E2"/>
<path d="M26.9013 9.83799C27.0551 9.99171 26.9013 10.2992 26.7476 10.2992C26.5939 10.4529 26.2864 10.2992 26.2864 10.1454L24.7492 7.53216C24.5955 7.37844 24.7492 7.071 24.9029 7.071C25.0567 6.91728 25.3641 7.071 25.3641 7.22472L26.9013 9.83799Z" fill="#C7E0E2"/>
<path d="M70.2509 84.8543C70.4046 85.0081 70.2509 85.3155 70.0972 85.3155C69.9435 85.4692 69.636 85.3155 69.636 85.1618L68.0988 82.5485C67.9451 82.3948 68.0988 82.0874 68.2526 82.0874C68.4063 81.9336 68.7137 82.0874 68.7137 82.2411L70.2509 84.8543Z" fill="#C7E0E2"/>
<path d="M58.7217 5.84135C58.7217 5.99507 58.4143 6.14879 58.2606 6.14879C58.1068 6.14879 57.9531 5.84135 57.9531 5.68763L58.7217 2.76692C58.7217 2.61319 59.0292 2.45947 59.1829 2.45947C59.3366 2.45947 59.4903 2.76692 59.4903 2.92064L58.7217 5.84135Z" fill="#C7E0E2"/>
<path d="M36.2784 89.4659C36.2784 89.6196 35.9709 89.7733 35.8172 89.7733C35.6635 89.7733 35.5098 89.4659 35.5098 89.3121L36.2784 86.3914C36.2784 86.2377 36.5858 86.084 36.7395 86.084C36.8933 86.084 37.047 86.3914 37.047 86.5451L36.2784 89.4659Z" fill="#C7E0E2"/>
<path d="M83.9321 25.5175C83.7783 25.6713 83.4709 25.5175 83.4709 25.3638C83.3172 25.2101 83.4709 24.9027 83.6246 24.9027L86.2379 23.3654C86.3916 23.2117 86.6991 23.3654 86.6991 23.5192C86.8528 23.6729 86.6991 23.9803 86.5453 23.9803L83.9321 25.5175Z" fill="#C7E0E2"/>
<path d="M8.91595 68.8671C8.76223 69.0209 8.45479 68.8671 8.45479 68.7134C8.30107 68.5597 8.45479 68.2523 8.60851 68.2523L11.2218 66.715C11.3755 66.5613 11.6829 66.715 11.6829 66.8688C11.8367 67.0225 11.6829 67.3299 11.5292 67.3299L8.91595 68.8671Z" fill="#C7E0E2"/>
<path d="M87.7752 57.3379C87.6215 57.3379 87.4678 57.0305 87.4678 56.8768C87.4678 56.7231 87.7752 56.5693 87.9289 56.5693L90.8496 57.3379C91.0034 57.3379 91.1571 57.6454 91.1571 57.7991C91.1571 57.9528 90.8496 58.1066 90.6959 58.1066L87.7752 57.3379Z" fill="#C7E0E2"/>
<path d="M4.15022 34.8946C3.9965 34.8946 3.84277 34.5871 3.84277 34.4334C3.84277 34.2797 4.15022 34.126 4.30394 34.126L7.22465 34.8946C7.37837 34.8946 7.53209 35.202 7.53209 35.3558C7.53209 35.5095 7.22465 35.6632 7.07093 35.6632L4.15022 34.8946Z" fill="#C7E0E2"/>
<path d="M11.5292 24.9027C11.6829 25.0564 11.8367 25.2101 11.6829 25.3638C11.5292 25.5175 11.3755 25.6713 11.2218 25.5175L8.60851 23.9803C8.45479 23.8266 8.30107 23.6729 8.45479 23.5192C8.60851 23.3654 8.76223 23.2117 8.91595 23.3654L11.5292 24.9027Z" fill="#C7E0E2"/>
<path d="M86.5453 68.2523C86.6991 68.406 86.8528 68.5597 86.6991 68.7134C86.5454 68.8671 86.3916 69.0209 86.2379 68.8671L83.6246 67.3299C83.4709 67.1762 83.3172 67.0225 83.4709 66.8688C83.6246 66.715 83.7783 66.5613 83.9321 66.715L86.5453 68.2523Z" fill="#C7E0E2"/>
<path d="M37.047 5.68763C37.047 5.84135 37.047 6.14879 36.7395 6.14879C36.5858 6.14879 36.2784 6.14879 36.2784 5.84135L35.5098 2.92064C35.5098 2.76692 35.5098 2.45947 35.8172 2.45947C35.9709 2.45947 36.2784 2.45947 36.2784 2.76692L37.047 5.68763Z" fill="#C7E0E2"/>
<path d="M59.4903 89.3121C59.4903 89.4659 59.4903 89.7733 59.1829 89.7733C59.0292 89.7733 58.7217 89.7733 58.7217 89.4659L57.9531 86.5451C57.9531 86.3914 57.9531 86.084 58.2606 86.084C58.4143 86.084 58.7217 86.084 58.7217 86.3914L59.4903 89.3121Z" fill="#C7E0E2"/>
<path d="M68.7137 10.1454C68.56 10.2992 68.4063 10.4529 68.2526 10.2992C68.0988 10.1454 67.9451 9.99171 68.0988 9.83799L69.636 7.22472C69.7898 7.071 69.9435 6.91728 70.0972 7.071C70.2509 7.22472 70.4046 7.37844 70.2509 7.53216L68.7137 10.1454Z" fill="#C7E0E2"/>
<path d="M25.3641 85.1618C25.2104 85.3155 25.0567 85.4692 24.9029 85.3155C24.7492 85.1618 24.5955 85.0081 24.7492 84.8543L26.2864 82.2411C26.4402 82.0874 26.5939 81.9336 26.7476 82.0874C26.9013 82.2411 27.0551 82.3948 26.9013 82.5485L25.3641 85.1618Z" fill="#C7E0E2"/>
<path d="M87.9289 35.6632C87.7752 35.6632 87.4678 35.6632 87.4678 35.3558C87.4678 35.202 87.4678 34.8946 87.7752 34.8946L90.6959 34.126C90.8496 34.126 91.1571 34.126 91.1571 34.4334C91.1571 34.5871 91.1571 34.8946 90.8496 34.8946L87.9289 35.6632Z" fill="#C7E0E2"/>
<path d="M4.30394 58.1066C4.15022 58.1066 3.84277 58.1066 3.84277 57.7991C3.84277 57.6454 3.84277 57.3379 4.15022 57.3379L7.07093 56.5693C7.22465 56.5693 7.53209 56.5693 7.53209 56.8768C7.53209 57.0305 7.53209 57.3379 7.22465 57.3379L4.30394 58.1066Z" fill="#C7E0E2"/>
<path d="M59.0291 60.5662H49.9595C56.4158 54.1099 61.1812 48.2685 61.1812 41.0435C61.1812 34.4335 56.7233 27.3623 47.0388 27.3623C42.4271 27.3623 38.1229 28.8995 34.7411 31.8202C33.665 32.7426 33.3576 34.1261 33.9725 35.3558L35.5097 38.8914C35.8171 39.66 36.5857 40.4286 37.508 40.5824C38.4304 40.7361 39.3527 40.5824 40.1213 39.9675C41.1974 39.0452 43.3495 37.5079 45.9627 37.5079C49.0372 37.5079 50.2669 38.7377 50.2669 41.6584C50.2669 45.9626 46.4239 50.2668 37.508 58.7215L33.665 62.5646C33.0501 63.1795 32.7427 63.9481 32.7427 64.7167V67.7911C32.7427 69.482 34.1262 70.7118 35.6634 70.7118H59.0291C60.72 70.7118 61.9498 69.3283 61.9498 67.7911V63.6406C61.9498 61.796 60.5663 60.5662 59.0291 60.5662Z" fill="#C7E0E2"/>
<path d="M37.3542 58.5679L33.5112 62.4109C32.8963 63.0258 32.5889 63.7944 32.5889 64.563V67.6375C32.5889 69.3284 33.9724 70.5582 35.5096 70.5582H58.8753C60.5662 70.5582 61.796 69.1747 61.796 67.6375V63.487C61.796 61.796 60.4125 60.5663 58.8753 60.5663H49.8057C56.262 54.11 61.0274 48.2685 61.0274 41.0436C61.0274 38.7378 60.4125 36.432 59.3364 34.4336L49.652 44.1181C48.5759 47.4999 44.7329 51.6504 37.3542 58.5679Z" fill="#B6CBCE"/>
<path d="M44.7329 17.0632C44.7329 18.4467 43.5031 20.7525 42.1196 20.7525C40.7361 20.7525 39.5063 18.4467 39.5063 17.0632C39.5063 15.6797 40.7361 14.45 42.1196 14.45C43.5031 14.45 44.7329 15.6797 44.7329 17.0632Z" fill="#688389"/>
<path d="M42.1196 19.6765C43.5629 19.6765 44.7329 18.5065 44.7329 17.0632C44.7329 15.62 43.5629 14.45 42.1196 14.45C40.6763 14.45 39.5063 15.62 39.5063 17.0632C39.5063 18.5065 40.6763 19.6765 42.1196 19.6765Z" fill="#B6CBCE"/>
<path d="M43.9642 15.2185C45.0403 16.2946 45.0403 17.8318 43.9642 18.9078C42.8882 19.9839 41.351 19.9839 40.2749 18.9078" fill="#A3BFC1"/>
<path d="M55.4936 17.0632C55.4936 18.4467 54.2639 20.7525 52.8804 20.7525C51.4969 20.7525 50.2671 18.4467 50.2671 17.0632C50.2671 15.6797 51.4969 14.45 52.8804 14.45C54.2639 14.45 55.4936 15.6797 55.4936 17.0632Z" fill="#688389"/>
<path d="M52.8804 19.6765C54.3236 19.6765 55.4936 18.5065 55.4936 17.0632C55.4936 15.62 54.3236 14.45 52.8804 14.45C51.4371 14.45 50.2671 15.62 50.2671 17.0632C50.2671 18.5065 51.4371 19.6765 52.8804 19.6765Z" fill="#B6CBCE"/>
<path d="M54.725 15.2185C55.801 16.2946 55.801 17.8318 54.725 18.9078C53.6489 19.9839 52.1117 19.9839 51.0356 18.9078" fill="#A3BFC1"/>
</g>
<defs>
<clipPath id="clip0">
<rect width="95" height="95" fill="white"/>
</clipPath>
</defs>
</svg>
