<svg width="411" height="308" viewBox="0 0 411 308" fill="none" xmlns="http://www.w3.org/2000/svg">
<g clip-path="url(#clip0)">
<path d="M41.3941 52.5501C52.4725 52.5501 61.4533 42.8996 61.4533 30.995C61.4533 19.0905 52.4725 9.43997 41.3941 9.43997C30.3158 9.43997 21.335 19.0905 21.335 30.995C21.335 42.8996 30.3158 52.5501 41.3941 52.5501Z" fill="#FFFF64"/>
<path opacity="0.1" d="M38.9436 74.8752C47.366 95.3175 36.6223 118.857 23.9758 136.582C19.7431 142.526 15.0702 148.758 14.4834 156.213C13.7758 165.333 19.523 173.716 26.3403 179.196C38.7753 189.183 55.7581 192.271 70.5576 187.231C83.3465 182.878 94.0988 173.044 107 169.079C128.573 162.44 151.442 173.447 169.917 187.162C182.995 196.857 197.001 208.67 212.767 206.593C223.86 205.133 233.275 196.764 239.665 186.911C242.75 182.154 245.434 176.822 249.925 173.614C252.596 171.704 255.733 170.693 258.87 169.97C287.515 163.39 317.917 179.447 346.183 171.189C365.275 165.625 380.498 149.398 389.964 130.726C399.431 112.055 403.849 90.9731 407.529 70.0857C410.144 55.2489 412.314 39.2206 406.304 25.5754C399.944 11.1281 385.222 2.36972 370.427 0.728397C355.632 -0.912922 340.793 3.61693 327.163 10.006C310.133 18.0086 293.439 29.2104 274.851 29.2475C262.192 29.2753 250.119 24.0546 238.017 20.0718C217.781 13.4185 196.738 10.1127 175.768 7.06185C155.692 4.14085 135.417 1.42387 115.219 3.14865C100.929 4.36805 88.3084 10.2378 74.4409 12.9548C65.4015 14.726 56.319 13.4185 47.4479 16.3858C36.5231 20.0579 25.2875 28.5659 24.6834 41.9654C24.1139 54.7204 34.4779 64.0304 38.9436 74.8752Z" fill="#FFFF64"/>
<path d="M260.051 93.0776C258.209 87.9172 253.458 75.7881 250.33 78.1945C246.378 81.236 254.283 94.6726 254.283 94.6726C254.507 97.1392 250.063 102.272 247.681 104.831C247.681 104.627 247.681 104.511 247.681 104.511C247.658 104.609 247.624 104.702 247.577 104.789L247.379 104.673C247.326 104.878 247.23 105.067 247.099 105.225C247.099 104.877 247.077 104.673 247.077 104.673C246.62 106.755 238.637 109.393 238.637 109.393C238.637 109.393 238.422 109.393 238.051 109.393C235.833 109.393 230.06 108.856 227.385 104.256C226.001 101.765 224.231 99.5457 222.151 97.6956C221.438 97.0958 220.573 96.7433 219.67 96.6848C212.279 96.1748 206.294 92.155 205.099 91.2972L204.879 91.1349L204.831 91.2833C204.551 90.8521 204.279 90.3931 204.025 89.9202L203.895 89.6652C205.684 88.7001 207.19 87.2214 208.244 85.3931C209.299 83.5648 209.862 81.4584 209.871 79.3072C209.871 79.2284 209.871 79.145 209.871 79.0661C210.521 77.8585 210.864 76.4879 210.863 75.0927V73.7017L212.55 72.0882C213.323 71.351 214.121 70.5721 214.514 69.5567C214.671 69.1458 214.742 68.7024 214.721 68.2585C214.759 67.8782 214.706 67.4938 214.567 67.1417C214.428 66.7896 214.208 66.4814 213.927 66.2462C212.632 65.2865 210.475 66.2462 209.539 64.9109C209.107 64.3082 209.185 63.4875 208.974 62.7781C208.542 61.3362 206.989 60.5573 205.552 60.5341C204.115 60.5109 202.739 61.0719 201.358 61.4938C198.457 62.3788 195.43 62.6837 192.427 62.3933C191.614 62.2379 190.78 62.2696 189.98 62.486C189.491 62.7031 189.057 63.0408 188.712 63.4717C188.367 63.9027 188.122 64.4148 187.995 64.9666C187.889 65.3812 187.825 65.8073 187.806 66.237C186.602 67.6959 185.936 69.5774 185.933 71.5272V75.0927C185.936 76.9961 186.571 78.8359 187.724 80.2809C187.86 81.9586 188.334 83.5842 189.114 85.0447C189.895 86.5052 190.962 87.7655 192.241 88.7379C192.241 88.8306 192.241 88.9249 192.241 89.0207L192.297 89.0578C192.227 90.1631 192.069 91.2599 191.823 92.3358V92.0993C191.823 92.0993 185.782 95.5535 179.31 95.637H178.598C177.321 95.5907 176.08 96.091 175.146 97.0279C173.23 98.966 169.874 102.031 167.811 102.031C167.38 102.031 156.489 104.316 154.686 104.697L151.316 101.15L151.212 101.358L151.014 101.15C150.645 101.18 150.279 101.238 149.918 101.321C148.192 99.1236 144.74 94.0142 143.942 87.1568C143.942 87.1568 151.394 78.0368 148.654 69.5381C146.315 62.2959 139.873 77.8189 138.044 82.4971C137.724 83.3135 137.684 84.2255 137.932 85.0704L143.985 106.037C143.409 107.661 143.243 109.421 143.506 111.137H143.437L147.847 117.215C147.847 117.215 151.165 118.736 156.355 118.708C160.16 118.715 163.93 117.937 167.462 116.418H168.484L168.29 116.497H173.541L176.881 127.351C176.768 128.338 175.155 142.122 173.86 145.206C173.476 146.236 173.303 147.343 173.351 148.451C173.419 150.581 173.743 152.693 174.313 154.734L177.239 154.618L177.127 154.864C174.65 160.321 170.512 170.043 168.066 179.131L163.807 188.404L167 229.993H167.129L167.375 230.035C167.72 230.091 168.238 230.174 168.92 230.267L168.67 230.73L161.632 243.249C161.632 243.249 156.614 254.288 167.716 252.207C167.716 252.207 171.819 250.927 173.494 243.397L180.794 236.039C180.794 236.039 181.135 231.152 179.068 229.2C178.939 226.942 178.611 220.349 179.116 218.764C179.724 216.844 176.527 194.77 176.527 194.77C176.527 194.77 188.082 169.014 195.08 168.374C195.593 168.336 196.108 168.408 196.595 168.588C202.346 170.6 209.314 185.543 211.364 190.194L211.459 190.407V190.449L211.537 190.629V190.68L211.606 190.838V190.88L211.666 191.024V191.056L211.718 191.172V191.218L211.757 191.306V191.343L211.782 191.408V191.445V191.487L211.804 191.543L212.714 220.498L212.805 220.549H212.848L212.771 221.147L212.374 224.137C212.374 224.137 217.392 235.497 217.085 236.934C216.779 238.371 220.429 244.135 225.598 242.535C230.767 240.935 227.691 231.917 227.691 231.917L222.712 220.892L222.492 220.4C222.988 220.073 223.455 219.699 223.89 219.283C223.89 219.283 222.371 207.446 223.89 204.887C225.408 202.327 225.866 190.648 225.866 190.648C225.866 190.648 224.8 182.65 222.975 179.131L215.329 149.805C217.62 152.096 219.402 152.99 220.891 152.93H221.137C221.791 152.943 222.437 152.771 223.009 152.429C223.317 152.243 223.606 152.024 223.872 151.776C223.923 151.728 223.971 151.677 224.015 151.623C226.142 149.703 221.581 142.183 218.997 137.713C216.507 133.401 219.937 121.685 220.196 120.813C220.427 120.631 220.674 120.476 220.934 120.349C221.469 120.103 222.043 119.969 222.625 119.955C225.102 120.048 228.148 121.578 231.919 122.348C234.54 122.827 237.196 123.049 239.854 123.011H240.009C241.067 123.011 242.024 122.988 242.801 122.955C243.51 122.925 244.203 122.724 244.829 122.366C245.366 122.03 245.852 121.608 246.27 121.114L252.889 113.079L252.716 113.168C253.037 112.256 253.037 111.251 252.716 110.339L259.711 97.3571C260.064 96.7174 260.278 96.0003 260.337 95.2593C260.396 94.5183 260.298 93.7725 260.051 93.0776Z" fill="url(#paint0_linear)"/>
<path d="M181.472 234.94L174.426 242.197C172.812 249.615 168.847 250.871 168.847 250.871C158.134 252.921 162.975 242.062 162.975 242.062L169.77 229.706L170.608 228.18C170.608 228.18 175.453 226.604 178.68 227.55C179.088 227.67 179.464 227.889 179.781 228.19C181.804 230.077 181.472 234.94 181.472 234.94Z" fill="#444176"/>
<path d="M224.917 241.408C219.925 242.985 216.404 237.31 216.719 235.886C217.034 234.463 212.158 223.284 212.158 223.284L212.538 220.335L212.892 217.605L221.09 218.235L221.862 219.978L226.669 230.851C226.669 230.851 229.909 239.832 224.917 241.408Z" fill="#444176"/>
<path opacity="0.1" d="M179.858 229.423C179.086 230.846 172.825 230.128 169.774 229.683L170.611 228.157C170.611 228.157 175.457 226.581 178.684 227.527C179.092 227.647 179.468 227.866 179.785 228.166C179.828 228.936 179.858 229.423 179.858 229.423Z" fill="black"/>
<path opacity="0.1" d="M221.871 219.969C217.672 222.974 213.202 220.702 212.529 220.326L212.883 217.595L221.081 218.226L221.871 219.969Z" fill="black"/>
<path d="M223.01 204.187C221.543 206.709 223.01 218.383 223.01 218.383C218.164 223.117 212.443 219.645 212.443 219.645L211.58 191.098C211.58 191.098 202.04 167.595 195.288 168.226C188.535 168.856 177.381 194.251 177.381 194.251C177.381 194.251 180.462 216.014 179.875 217.897C179.288 219.779 179.875 228.936 179.875 228.936C178.848 230.828 168.135 228.936 168.135 228.936L165.054 187.926L169.145 178.774C171.496 169.816 175.492 160.228 177.882 154.85C179.068 152.174 179.862 150.542 179.862 150.542L187.672 148.794L213.021 143.147L222.129 178.774C223.89 182.242 224.917 190.129 224.917 190.129C224.917 190.129 224.477 201.664 223.01 204.187Z" fill="#565387"/>
<g opacity="0.1">
<path opacity="0.1" d="M214.79 219.645L213.927 191.098C213.927 191.098 204.388 167.595 197.635 168.226C197.333 168.258 197.036 168.329 196.75 168.439C203.335 170.79 211.58 191.098 211.58 191.098L212.443 219.645C214.243 220.63 216.273 221.028 218.281 220.79C217.064 220.633 215.882 220.245 214.79 219.645Z" fill="black"/>
<path opacity="0.1" d="M170.465 228.95L167.384 187.94L171.492 178.774C173.843 169.816 177.839 160.228 180.229 154.85C181.416 152.174 182.21 150.542 182.21 150.542L190.019 148.794L213.159 143.625L213.034 143.129L187.672 148.794L179.863 150.542C179.863 150.542 179.069 152.174 177.882 154.85C175.483 160.228 171.496 169.835 169.145 178.774L165.037 187.922L168.118 228.932C168.118 228.932 173.969 229.965 177.438 229.738C175.103 229.602 172.775 229.339 170.465 228.95Z" fill="black"/>
</g>
<path d="M152.615 101.906C152.615 101.906 144.249 102.369 145.422 111.842L147.77 112.157L151.29 108.058L153.051 104.59V103.802L152.615 101.906Z" fill="#CED2DF"/>
<path opacity="0.1" d="M152.615 101.906C152.615 101.906 144.249 102.369 145.422 111.842L147.77 112.157L151.29 108.058L153.051 104.59V103.802L152.615 101.906Z" fill="black"/>
<path d="M245.688 105.374C245.688 105.374 252.592 109.315 250.827 113.891L248.626 114.818L245.692 113.084L245.261 108.985L245.554 106.148L245.688 105.374Z" fill="#CED2DF"/>
<path opacity="0.1" d="M245.688 105.374C245.688 105.374 252.592 109.315 250.827 113.891L248.626 114.818L245.692 113.084L245.261 108.985L245.554 106.148L245.688 105.374Z" fill="black"/>
<path d="M201.363 64.6791H195.49C190.465 64.6791 186.391 69.0571 186.391 74.4575C186.391 79.8579 190.465 84.2359 195.49 84.2359H201.363C206.388 84.2359 210.462 79.8579 210.462 74.4575C210.462 69.0571 206.388 64.6791 201.363 64.6791Z" fill="#88455E"/>
<path d="M152.559 103.245L147.42 112.055L146.989 110.488L140.007 86.0441C139.769 85.2108 139.807 84.3143 140.115 83.5079C141.88 78.8992 148.102 63.571 150.358 70.7344C152.999 79.0801 145.806 88.0841 145.806 88.0841C146.626 95.3912 150.445 100.686 151.946 102.522C152.326 103 152.559 103.245 152.559 103.245Z" fill="#EC8C9C"/>
<path d="M244.588 107.029C244.588 107.029 252.661 98.8269 252.354 95.5164C252.354 95.5164 244.722 82.27 248.54 79.2887C251.56 76.9148 256.147 88.877 257.925 93.9632C258.16 94.6407 258.254 95.3652 258.201 96.086C258.148 96.8069 257.949 97.5065 257.618 98.136L247.971 116.492L244.588 107.029Z" fill="#EC8C9C"/>
<path d="M192.332 84.1617C192.332 84.1617 193.799 94.2553 189.545 98.0433C185.29 101.831 201.729 101.808 201.729 101.808L207.602 95.9708C207.602 95.9708 200.849 89.1876 202.903 84.1431L192.332 84.1617Z" fill="#EC8C9C"/>
<path opacity="0.1" d="M192.038 95.6741C192.038 95.6741 198.351 100.723 204.659 95.0435L214.932 117.915L214.345 145.832C214.345 145.832 193.061 157.659 184.255 150.408C175.448 143.156 182.788 139.368 182.788 139.368L180.734 117.92L182.934 104.038C182.934 104.038 186.895 97.4128 187.193 97.4128C187.491 97.4128 192.038 95.6741 192.038 95.6741Z" fill="black"/>
<path d="M192.039 95.3588C192.039 95.3588 198.351 100.417 204.664 94.7282L214.937 117.6L214.35 145.516C214.35 145.516 193.066 157.344 184.259 150.093C175.453 142.841 182.792 139.053 182.792 139.053L180.739 117.605L182.939 103.723C182.939 103.723 186.9 97.0975 187.198 97.0975C187.495 97.0975 192.039 95.3588 192.039 95.3588Z" fill="#EBF1F6"/>
<path opacity="0.1" d="M192.039 92.9988C192.039 92.9988 186.054 96.6616 179.556 96.4808C178.947 96.4603 178.339 96.5703 177.77 96.8043C177.2 97.0383 176.679 97.3917 176.238 97.8439C174.387 99.7542 171.147 102.777 169.14 102.777C168.709 102.777 156.222 105.457 156.222 105.457L152.921 101.91C152.921 101.91 148.002 112.24 145.655 111.767L149.914 117.762C149.914 117.762 157.987 121.546 168.554 116.974H174.719L177.947 127.698C177.947 127.698 176.333 142.211 175.013 145.363C173.692 148.516 175.444 154.669 175.444 154.669L187.038 154.205C187.038 154.205 187.625 148.053 188.505 147.25C189.385 146.448 185.424 119.334 185.424 119.334C185.424 119.334 182.784 104.034 192.47 98.5162L192.039 92.9988Z" fill="black"/>
<path opacity="0.1" d="M187.668 148.813C187.241 150.684 186.936 152.585 186.757 154.502L177.882 154.863C179.068 152.188 179.862 150.556 179.862 150.556L187.668 148.813Z" fill="black"/>
<path opacity="0.1" d="M152.559 103.245L147.42 112.055L146.989 110.488C148.874 108.475 151.083 104.27 151.964 102.518C152.326 103 152.559 103.245 152.559 103.245Z" fill="black"/>
<path d="M192.038 92.9988C192.038 92.9988 185.756 96.6616 179.262 96.4808C178.653 96.4603 178.046 96.5703 177.476 96.8043C176.906 97.0383 176.386 97.3917 175.944 97.844C174.093 99.7542 170.853 102.777 168.847 102.777C168.415 102.777 155.928 105.457 155.928 105.457L152.615 101.906C152.615 101.906 147.696 112.236 145.349 111.763L149.607 117.758C149.607 117.758 157.68 121.541 168.247 116.969H174.413L177.64 127.689C177.64 127.689 176.026 142.201 174.706 145.354C173.386 148.507 175.138 154.66 175.138 154.66L186.731 154.196C186.731 154.196 187.318 148.043 188.198 147.241C189.078 146.439 185.118 119.325 185.118 119.325C185.118 119.325 182.477 104.024 192.163 98.507L192.038 92.9988Z" fill="#CED2DF"/>
<path opacity="0.1" d="M204.664 92.0437C204.664 92.0437 210.653 96.9491 218.648 97.5148C219.523 97.5737 220.359 97.9219 221.042 98.5116C223.059 100.35 224.768 102.545 226.095 105.003C229.322 110.682 237.249 110.052 237.249 110.052C237.249 110.052 244.955 107.451 245.395 105.415C245.395 105.415 245.615 116.543 250.46 113.854L244.087 121.745C243.686 122.244 243.193 122.648 242.64 122.935C242.088 123.221 241.486 123.383 240.873 123.41C238.478 123.512 234.319 123.544 230.807 122.811C225.521 121.708 221.707 119.028 218.92 121.393C218.92 121.393 215.252 133.693 217.746 138.112C220.24 142.53 224.65 149.94 222.591 151.836C220.533 153.732 218.039 153.57 213.932 148.998C209.824 144.427 209.38 136.698 209.38 136.698L210.407 116.826C210.407 116.826 206.446 101.841 202.64 98.8454L204.664 92.0437Z" fill="black"/>
<path opacity="0.1" d="M251.043 113.654L244.652 121.578C244.228 122.104 243.702 122.525 243.112 122.811C242.587 123.066 242.022 123.209 241.447 123.233C239.052 123.34 234.893 123.373 231.38 122.635C226.436 121.601 222.777 119.19 220.041 120.818C219.847 120.933 219.663 121.064 219.489 121.212C219.489 121.212 215.821 133.513 218.315 137.931C220.809 142.35 225.219 149.759 223.161 151.655C222.816 151.981 222.43 152.251 222.013 152.457C220.166 153.352 217.875 152.578 214.501 148.818C210.393 144.241 209.949 136.517 209.949 136.517L210.976 116.645C210.976 116.645 207.015 101.66 203.209 98.6646L204.888 92.1967C206.044 93.0406 211.817 97.0048 218.954 97.5101C219.829 97.5691 220.665 97.9173 221.349 98.507C223.365 100.345 225.074 102.541 226.401 104.998C229.629 110.678 237.555 110.047 237.555 110.047C239.455 109.396 241.31 108.603 243.108 107.673C244.234 107.08 245.226 106.431 245.697 105.819C245.829 105.659 245.925 105.469 245.977 105.262C245.977 105.262 246.201 116.334 251.043 113.654Z" fill="black"/>
<path d="M250.749 113.812L244.363 121.745C244.012 122.18 243.591 122.545 243.12 122.821C242.517 123.173 241.847 123.371 241.162 123.4C238.767 123.507 234.607 123.539 231.095 122.802C226.328 121.805 222.751 119.524 220.054 120.827C219.746 120.971 219.456 121.157 219.191 121.379C219.191 121.379 215.523 133.679 218.017 138.098C220.511 142.517 224.921 149.926 222.863 151.822C222.597 152.068 222.307 152.284 222 152.466C220.101 153.593 217.754 152.93 214.194 148.984C210.087 144.408 209.642 136.684 209.642 136.684L210.669 116.812C210.669 116.812 206.708 101.827 202.903 98.8315L204.663 92.0483L204.875 92.206C206.031 93.0498 211.804 97.014 218.941 97.5194C219.815 97.5784 220.652 97.9266 221.335 98.5162C223.352 100.355 225.06 102.55 226.388 105.007C229.615 110.687 237.541 110.056 237.541 110.056C239.442 109.405 241.297 108.612 243.095 107.683C244.428 106.95 245.515 106.148 245.683 105.415C245.683 105.415 245.683 105.559 245.683 105.814C245.813 107.729 246.46 116.181 250.749 113.812Z" fill="#CED2DF"/>
<path opacity="0.1" d="M203.032 84.3981H192.246C192.483 86.2411 192.551 88.1047 192.448 89.9619C194.095 91.2071 196.026 91.9469 198.034 92.1021C200.043 92.2573 202.052 91.822 203.848 90.8429C202.812 88.7843 202.182 86.4475 203.032 84.3981Z" fill="black"/>
<path d="M198.791 91.8861C204.708 91.8861 209.505 86.7318 209.505 80.3737C209.505 74.0155 204.708 68.8612 198.791 68.8612C192.874 68.8612 188.078 74.0155 188.078 80.3737C188.078 86.7318 192.874 91.8861 198.791 91.8861Z" fill="#EC8C9C"/>
<path opacity="0.1" d="M196.565 78.3243C197.76 78.1713 198.955 77.7169 200.133 77.9719C201.203 78.2038 202.114 78.9966 203.184 79.2377C205.246 79.7013 207.162 78.0693 208.719 76.5485L212.085 73.2566C212.831 72.5287 213.599 71.7637 213.983 70.7622C214.367 69.7607 214.234 68.4439 213.414 67.8134C212.184 66.8861 210.066 67.8134 209.177 66.4966C208.775 65.9031 208.836 65.1057 208.629 64.3963C208.197 62.9775 206.713 62.2032 205.324 62.1847C203.934 62.1661 202.605 62.7132 201.276 63.112C198.477 63.9846 195.55 64.285 192.647 63.9975C191.864 63.8434 191.058 63.8735 190.287 64.0856C189.812 64.3035 189.391 64.6381 189.058 65.0624C188.726 65.4868 188.49 65.9891 188.371 66.5291C187.707 69.0513 188.841 73.1175 189.98 75.3755C191.12 77.6335 194.291 78.6257 196.565 78.3243Z" fill="black"/>
<path d="M196.565 78.0091C197.76 77.856 198.955 77.4017 200.133 77.6567C201.203 77.8885 202.114 78.6813 203.184 78.9224C205.246 79.3861 207.162 77.754 208.719 76.2333L212.085 72.9414C212.831 72.2134 213.599 71.4484 213.983 70.4469C214.367 69.4454 214.234 68.1287 213.414 67.4981C212.184 66.5708 210.066 67.4981 209.177 66.1814C208.775 65.5879 208.836 64.7904 208.629 64.081C208.197 62.6623 206.713 61.888 205.324 61.8694C203.934 61.8509 202.605 62.398 201.276 62.7967C198.477 63.6694 195.55 63.9698 192.647 63.6823C191.864 63.5282 191.058 63.5582 190.287 63.7704C189.812 63.9882 189.391 64.3228 189.058 64.7472C188.726 65.1715 188.49 65.6739 188.371 66.2138C187.707 68.7361 188.841 72.8023 189.98 75.0602C191.12 77.3182 194.291 78.2872 196.565 78.0091Z" fill="#88455E"/>
<path opacity="0.1" d="M177.877 127.773C177.877 127.773 180.225 128.088 181.398 129.664C182.572 131.241 184.626 131.714 184.626 131.714" fill="black"/>
<path opacity="0.1" d="M156.74 106.95C156.74 106.95 158.656 111.545 157.473 112.008C156.291 112.472 156.74 115.792 156.74 115.792" fill="black"/>
<g opacity="0.1">
<path opacity="0.1" d="M157.4 105.374C157.4 105.374 169.874 102.694 170.305 102.694C172.316 102.694 175.552 99.6707 177.403 97.7605C177.966 97.181 178.658 96.7674 179.414 96.5596H179.254C178.644 96.5391 178.037 96.6491 177.468 96.8831C176.898 97.1171 176.377 97.4705 175.936 97.9228C174.085 99.833 170.845 102.856 168.838 102.856C168.489 102.856 160.506 104.558 157.266 105.248L157.4 105.374Z" fill="black"/>
<path opacity="0.1" d="M192.056 93.6618V93.073C189.055 94.7172 185.826 95.8274 182.494 96.3603C185.8 96.0442 189.032 95.1319 192.056 93.6618Z" fill="black"/>
<path opacity="0.1" d="M176.631 154.581C176.631 154.581 174.87 148.428 176.199 145.275C177.528 142.122 179.133 127.61 179.133 127.61L175.914 116.886H169.731L169.356 117.044H174.426L177.64 127.773C177.64 127.773 176.027 142.285 174.706 145.438C173.386 148.59 175.138 154.743 175.138 154.743L186.731 154.279V154.182L176.631 154.581Z" fill="black"/>
</g>
<g opacity="0.1">
<path opacity="0.1" d="M223.01 149.3C222.744 149.546 222.455 149.762 222.147 149.944C220.248 151.071 217.901 150.408 214.342 146.462C211.08 142.832 210.13 137.189 209.876 135.052L209.79 136.684C209.79 136.684 210.221 144.413 214.342 148.984C217.901 152.944 220.248 153.593 222.147 152.466C222.455 152.284 222.744 152.068 223.01 151.822C223.627 151.252 223.661 150.181 223.338 148.845C223.258 149.019 223.146 149.173 223.01 149.3Z" fill="black"/>
<path opacity="0.1" d="M248.674 114.049L244.519 119.209C244.168 119.644 243.747 120.009 243.276 120.285C242.673 120.636 242.003 120.835 241.317 120.864C238.923 120.971 234.763 121.003 231.251 120.266C226.483 119.269 222.906 116.988 220.21 118.291C219.902 118.435 219.612 118.62 219.347 118.843C219.347 118.843 216.978 126.79 217.34 132.2C217.621 127.142 219.347 121.365 219.347 121.365C219.612 121.143 219.902 120.957 220.21 120.813C222.911 119.51 226.483 121.791 231.251 122.788C234.763 123.521 238.918 123.488 241.317 123.386C242.003 123.357 242.673 123.159 243.276 122.807C243.746 122.535 244.167 122.175 244.519 121.745L250.909 113.821C250.578 114.043 250.204 114.178 249.816 114.218C249.429 114.257 249.038 114.199 248.674 114.049Z" fill="black"/>
</g>
<path d="M61.0303 170.841C61.0815 170.894 61.1473 170.928 61.218 170.938C61.2888 170.948 61.3606 170.934 61.4229 170.897C61.2902 170.899 61.1579 170.88 61.0303 170.841Z" fill="url(#paint1_linear)"/>
<path d="M105.002 94.0374C104.225 93.7963 103.116 93.4022 101.783 92.9014C103.169 90.986 104.182 88.7914 104.765 86.4474L104.652 86.4938C104.691 86.3501 104.73 86.211 104.765 86.0626C102.206 87.18 99.3755 85.2883 97.572 82.8588C95.7684 80.4293 94.5517 77.4156 92.5755 75.1808C91.752 74.2917 90.8663 73.4718 89.9263 72.7281C89.3438 72.2644 88.7182 71.7405 88.0062 71.7173C86.8542 71.6802 85.9524 72.895 84.8435 73.252C84.1139 73.4285 83.3541 73.3981 82.6387 73.1639C79.778 72.4591 77.0296 71.1563 74.1085 70.8132C72.5457 70.6058 70.9594 70.798 69.4788 71.3742C68.0118 71.9723 67.343 73.1639 66.1564 74.119C64.862 75.1437 62.3336 75.1205 60.8278 75.3013C59.0005 75.5256 57.1605 75.6077 55.3222 75.547C54.2657 75.4486 53.202 75.4907 52.1551 75.6722C49.9676 76.1869 48.2115 78.0554 46.5719 79.8451C46.1243 80.2499 45.8023 80.7918 45.6485 81.3983C45.6275 81.5691 45.6275 81.7421 45.6485 81.913C45.632 82.3804 45.707 82.8464 45.8686 83.2807C46.3733 84.8901 47.0865 86.415 47.9871 87.8106C48.6559 88.8399 49.4369 89.8089 49.8166 91.0283C49.9966 91.6278 50.0911 92.253 50.097 92.8829C50.0784 93.5517 50.0135 94.2181 49.9029 94.8766C49.6133 96.697 49.1373 98.4775 48.4833 100.185C48.0773 101.062 47.798 102 47.6549 102.967C47.6426 103.165 47.6426 103.363 47.6549 103.561C47.547 106.621 50.4206 108.823 50.9772 111.865C51.023 112.117 51.0504 112.373 51.0592 112.63C50.9988 114.526 49.9935 116.381 48.5092 117.118C48.6386 117.173 48.7724 117.22 48.9062 117.266C48.7785 117.352 48.6459 117.43 48.5092 117.498C48.781 117.609 49.0572 117.707 49.3376 117.785C47.6508 119.364 46.233 121.247 45.148 123.349C40.1559 133.336 6.34567 152.898 6.34567 152.898L6.84618 153.204L6.44059 153.486C3.51521 155.578 -3.34953 161.675 2.85505 169.385C2.85505 169.385 7.70049 161.169 11.0962 157.669C11.2472 157.511 11.3982 157.367 11.5277 157.233C11.6023 157.356 11.6523 157.495 11.6746 157.64C11.6968 157.785 11.6909 157.934 11.6571 158.077L33.8866 144.654C33.8866 144.654 41.7869 138.71 43.9917 137.37C45.5435 136.331 47.2323 135.55 49.0011 135.052L48.7422 135.168C49.5734 134.922 50.4303 134.791 51.2922 134.778C55.2272 134.843 59.4902 137.94 60.8925 150.204C62.7737 166.626 61.9021 169.589 61.2981 169.992C61.2236 169.986 61.1499 169.973 61.078 169.951C61.0967 169.968 61.1169 169.984 61.1384 169.997C61.0566 169.991 60.9756 169.975 60.8968 169.951C60.9403 169.994 60.9932 170.024 61.0506 170.038C61.108 170.053 61.168 170.051 61.2247 170.034C61.2655 170.047 61.3085 170.051 61.3509 170.046C61.3932 170.04 61.434 170.025 61.4707 170.002C61.5698 170.008 61.6692 170.008 61.7684 170.002C61.7684 170.153 61.7583 170.308 61.7382 170.465C61.708 170.465 61.5613 170.553 61.7382 170.563C61.6907 171.49 61.695 172.496 61.7382 173.549C59.7836 173.665 57.829 173.79 56.129 173.901L56.28 173.034L56.3491 172.644C57.8506 172.515 59.2745 172.042 59.4427 170.734C59.8095 167.86 56.1376 166.325 53.0138 166.135C49.8899 165.945 31.1554 167.285 31.1554 167.285C31.1554 167.285 28.3465 171.193 37.2564 172.385C37.521 172.533 37.7957 172.688 38.0805 172.848C41.5711 174.986 46.3044 178.922 48.5739 180.86L48.8889 181.129L47.8706 182.019C53.3805 183.359 58.7092 205.986 61.6476 216.33C64.5859 226.674 71.0148 226.298 76.3435 224.763C81.3357 223.326 81.9527 207.747 82.0347 205.791V205.591L90.9144 217.377L91.5875 218.272C91.8463 218.417 92.1023 218.553 92.3555 218.68C99.0778 222.116 106.503 215.527 104.394 208.016C102.258 200.445 98.9441 189.248 96.7349 184.514C94.8839 180.55 92.4935 173.966 91.0438 169.844C91.232 169.763 91.4151 169.668 91.5918 169.561C91.5918 169.561 91.5573 169.376 91.5012 169.037L91.5918 168.986C91.5918 168.986 89.4344 157.061 89.3395 148.586C89.3395 148.437 89.3395 148.283 89.3395 148.122C89.3395 148.029 89.3395 147.937 89.3395 147.849C90.9446 147.454 91.9628 147.301 91.9628 147.301L91.993 146.93L91.8075 146.972L92.7007 135.988C92.7007 135.988 95.9799 128.491 93.4687 125.371C92.7053 124.458 92.1955 123.334 91.9974 122.125C91.5659 119.255 91.9974 114.466 97.8438 110.488C106.844 104.354 110.357 99.3601 110.357 99.3601C110.357 99.3601 110.512 95.7807 105.002 94.0374ZM87.126 101.66V96.5828C88.7958 96.4947 90.5001 96.7034 92.1786 96.5828C93.0025 96.521 93.8189 96.3735 94.6164 96.1424L95.022 96.4437C92.5664 98.4734 89.92 100.222 87.126 101.66ZM61.6044 181.241C62.2646 181.732 62.929 182.242 63.5806 182.757C63.9861 185.26 64.3443 187.027 64.3702 187.152C63.6255 185.091 62.6994 183.112 61.6044 181.241Z" fill="url(#paint2_linear)"/>
<path d="M75.8689 177.068L75.4805 179.335L75.1828 181.069L74.6392 184.24L69.3665 188.205C69.3665 188.205 68.8919 187.769 68.1067 187.078C65.9493 185.168 61.4059 181.292 58.0706 179.196C57.2135 178.608 56.286 178.148 55.3135 177.828L75.8689 177.068Z" fill="#FFBDC6"/>
<path opacity="0.1" d="M75.8688 177.068L75.4805 179.335C74.3182 179.404 73.1524 179.341 72.0028 179.145L59.7015 179.335C59.119 179.298 58.5753 179.247 58.0662 179.191C57.2091 178.603 56.2816 178.143 55.3091 177.823L75.8688 177.068Z" fill="black"/>
<path d="M72.003 178.774C72.003 178.774 78.1558 179.905 78.5053 177.072C78.8548 174.239 75.3426 172.747 72.3611 172.533C69.3796 172.32 51.4433 173.674 51.4433 173.674C51.4433 173.674 48.2806 178.204 59.7017 178.959L72.003 178.774Z" fill="#7679B4"/>
<path opacity="0.1" d="M75.8689 177.068L75.4805 179.335L75.1828 181.069L74.6392 184.24L69.3665 188.205C69.3665 188.205 68.8919 187.769 68.1067 187.078C65.9493 185.168 61.4059 181.292 58.0706 179.196C57.2135 178.608 56.286 178.148 55.3135 177.828L75.8689 177.068Z" fill="black"/>
<path opacity="0.1" d="M75.8688 177.068L75.4805 179.335C74.3182 179.404 73.1524 179.341 72.0028 179.145L59.7015 179.335C59.119 179.298 58.5753 179.247 58.0662 179.191C57.2091 178.603 56.2816 178.143 55.3091 177.823L75.8688 177.068Z" fill="black"/>
<path opacity="0.1" d="M72.003 178.774C72.003 178.774 78.1558 179.905 78.5053 177.072C78.8548 174.239 75.3426 172.747 72.3611 172.533C69.3796 172.32 51.4433 173.674 51.4433 173.674C51.4433 173.674 48.2806 178.204 59.7017 178.959L72.003 178.774Z" fill="black"/>
<path d="M85.4433 85.6685H53.2856V126.646H85.4433V85.6685Z" fill="#A66477"/>
<path opacity="0.1" d="M85.4433 85.6685H53.2856V126.646H85.4433V85.6685Z" fill="black"/>
<path d="M15.5919 155.823C15.0612 155.967 14.3881 156.514 13.633 157.312C10.384 160.761 5.74999 168.852 5.74999 168.852C-0.187079 161.257 6.38425 155.253 9.20177 153.19C9.8835 152.689 10.3409 152.42 10.3409 152.42L15.5919 155.823Z" fill="#FFBDC6"/>
<path d="M75.5192 98.6044C75.5192 98.6044 77.1027 110.502 82.5479 113.334C87.993 116.167 75.5192 121.453 75.5192 121.453L58.4717 114.656C58.4717 114.656 68.1367 111.257 66.2037 101.247L75.5192 98.6044Z" fill="#FFBDC6"/>
<path d="M57.2595 170.173L56.8711 172.44L56.5734 174.175L56.0298 177.346L50.7572 181.31C50.7572 181.31 50.2825 180.874 49.4973 180.183C47.3399 178.273 42.7965 174.397 39.4612 172.301C38.6041 171.713 37.6766 171.253 36.7041 170.934L57.2595 170.173Z" fill="#FFBDC6"/>
<path opacity="0.1" d="M57.2594 170.173L56.8711 172.44C55.7089 172.51 54.543 172.446 53.3934 172.25L41.0921 172.44C40.5096 172.403 39.966 172.352 39.4568 172.297C38.5997 171.709 37.6722 171.248 36.6997 170.929L57.2594 170.173Z" fill="black"/>
<path d="M53.3764 171.875C53.3764 171.875 59.5292 173.006 59.8787 170.173C60.2282 167.34 56.716 165.829 53.7259 165.643C50.7358 165.458 32.8124 166.775 32.8124 166.775C32.8124 166.775 29.6497 171.305 41.0708 172.06L53.3764 171.875Z" fill="#7679B4"/>
<path opacity="0.1" d="M56.5561 174.179L56.0125 177.351L50.7399 181.315C50.7399 181.315 50.2653 180.879 49.48 180.188L56.4526 174.045L56.5561 174.179Z" fill="black"/>
<path d="M91.3459 217.41C91.1043 217.283 90.8597 217.149 90.6124 217.006L89.9695 216.126L81.4781 204.534V204.738C81.422 206.662 80.8093 222.009 76.0372 223.423C70.9415 224.935 64.7887 225.31 61.9798 215.115C59.1709 204.919 54.0709 182.636 48.7983 181.315L56.6166 174.42C56.6166 174.42 61.7943 180.911 63.9085 187.161C63.8309 186.763 60.2539 168.815 63.2052 165.643H88.8606C88.8606 165.643 92.8129 177.763 95.5398 183.772C97.654 188.436 100.825 199.462 102.875 206.922C104.903 214.303 97.818 220.794 91.3459 217.41Z" fill="#7679B4"/>
<path opacity="0.1" d="M90.6297 169.037C86.6731 171.555 69.2761 170.53 63.6065 170.122L62.0662 170.002C61.8979 170.002 62.0921 169.9 62.0921 169.9L62.2517 168.184L66.4672 156.667L89.0505 142.609C88.5931 144.088 88.4378 146.356 88.4766 148.957C88.5888 157.293 90.6297 169.037 90.6297 169.037Z" fill="black"/>
<path d="M90.6296 168.476C86.673 170.994 69.276 169.969 63.6065 169.561L62.0661 169.441H61.8115L62.092 169.362L63.4813 168.968L66.4671 156.125L89.0504 142.058C88.5931 143.537 88.4377 145.804 88.4766 148.405C88.5887 156.727 90.6296 168.476 90.6296 168.476Z" fill="#F2F1F2"/>
<path opacity="0.1" d="M88.4765 148.386C83.8856 149.522 73.7805 152.865 69.8972 160.905C67.3084 166.274 65.151 168.578 63.6107 169.543L62.0703 169.422L62.0962 169.32L63.4855 168.926L66.4713 156.083L89.0546 142.016C88.5887 143.537 88.4376 145.785 88.4765 148.386Z" fill="black"/>
<path opacity="0.1" d="M10.3193 152.425L15.5919 155.823C15.0611 155.967 14.388 156.514 13.633 157.312C13.2015 155.921 10.4314 154.01 9.18018 153.194C9.8619 152.694 10.3193 152.425 10.3193 152.425Z" fill="black"/>
<path opacity="0.1" d="M61.1426 169.659C61.0837 169.695 61.016 169.709 60.9492 169.7C60.8824 169.69 60.8201 169.658 60.7715 169.608C60.8922 169.645 61.0172 169.662 61.1426 169.659Z" fill="black"/>
<path d="M73.0556 112.579C73.0556 112.579 68.3094 113.144 64.9698 109.37C64.9698 109.37 50.9124 113.715 46.1662 123.535C41.42 133.355 9.08545 152.615 9.08545 152.615C9.08545 152.615 14.6946 156.013 14.1811 157.715L35.4441 144.496C35.4441 144.496 42.9992 138.64 45.1091 137.319C47.219 135.998 58.817 127.879 61.2764 149.972C63.7358 172.065 61.2764 169.445 61.2764 169.445C61.2764 169.445 64.7929 170.767 69.9059 160.172C75.0188 149.578 90.8194 147.144 90.8194 147.144L91.6823 136.016C91.6823 136.016 94.8191 128.635 92.4158 125.556C91.6829 124.65 91.1963 123.545 91.0092 122.362C90.6079 119.533 91.0092 114.818 96.6184 110.9C105.248 104.873 108.57 99.9489 108.57 99.9489C108.57 99.9489 108.747 96.3603 103.474 94.6633C98.2019 92.9664 76.762 83.7119 76.762 83.7119L76.0587 86.9204L92.9293 99.7635C92.9293 99.7635 84.494 107.126 77.8277 106.941C77.8018 106.908 79.0315 112.389 73.0556 112.579Z" fill="#565388"/>
<path opacity="0.1" d="M76.3132 103.783C75.8977 102.262 75.5734 100.713 75.3424 99.1468L66.0269 101.808C66.4347 103.718 66.3617 105.711 65.8154 107.581C67.7192 108.126 69.7306 108.057 71.5978 107.381C73.465 106.704 75.1052 105.451 76.3132 103.779V103.783Z" fill="black"/>
<path d="M68.5769 107.386C74.1101 107.386 78.5957 102.566 78.5957 96.6199C78.5957 90.6741 74.1101 85.854 68.5769 85.854C63.0437 85.854 58.5581 90.6741 58.5581 96.6199C58.5581 102.566 63.0437 107.386 68.5769 107.386Z" fill="#FFBDC6"/>
<path opacity="0.1" d="M73.9015 72.1346C76.6802 72.4731 79.3251 73.7574 82.0607 74.4528C82.7442 74.6832 83.4725 74.7136 84.1706 74.5409C85.232 74.1886 86.095 72.9923 87.1909 73.0294C87.8683 73.0294 88.4853 73.5487 89.029 74.0263C89.9296 74.7605 90.7763 75.5681 91.5617 76.4419C93.4473 78.6442 94.6209 81.6116 96.3424 84.004C98.064 86.3964 100.778 88.2603 103.224 87.1615C101.563 94.1162 96.1094 99.4343 90.2155 99.8654C87.864 100.037 85.4693 99.5131 83.1782 100.255C82.6104 100.504 82.0113 100.66 81.4005 100.719C80.1061 100.719 79.0361 99.425 78.2163 98.1685C76.3005 95.2104 74.7645 91.8536 72.6071 89.1598C71.8952 88.2696 71.0538 87.4211 70.0485 87.2588C69.0431 87.0965 68.1155 87.6112 67.218 88.1119C65.7381 88.9372 64.2236 89.7903 63.0759 91.1998C61.9282 92.6093 61.2033 94.7189 61.6779 96.6292C61.9325 97.6585 62.5193 98.5858 62.5408 99.6661C62.5408 101.382 61.1515 102.638 60.871 104.303C60.8093 105.005 60.7862 105.711 60.802 106.417C60.6769 108.707 59.2875 110.59 57.8292 112.022C57.2639 112.583 56.634 113.181 56.47 114.048C56.3578 114.637 56.47 115.263 56.3967 115.861C56.1852 117.35 54.8045 118.101 53.5835 118.296C52.1573 118.52 50.7013 118.335 49.3637 117.758C51.0896 116.891 52.1208 114.419 51.7238 112.194C51.1802 109.129 48.3152 106.931 48.5568 103.806C48.6919 102.849 48.9595 101.92 49.3507 101.048C49.976 99.3618 50.4302 97.6084 50.7055 95.8178C50.9878 94.4397 50.9597 93.009 50.6236 91.6449C50.2568 90.4441 49.5104 89.489 48.8718 88.4736C48.007 87.0932 47.3245 85.5905 46.8439 84.0086C46.6697 83.5411 46.6031 83.0353 46.6497 82.5342C46.7888 81.9431 47.0894 81.4103 47.5126 81.0042C49.0832 79.2377 50.7659 77.397 52.8543 76.887C53.8521 76.7084 54.8669 76.6663 55.8746 76.7618C57.6338 76.822 59.3948 76.7414 61.1429 76.5207C62.584 76.3399 65.0261 76.3631 66.2429 75.3523C67.3777 74.425 68.0206 73.2427 69.4228 72.6492C70.854 72.0862 72.3919 71.9095 73.9015 72.1346Z" fill="black"/>
<path opacity="0.1" d="M79.4717 183.299C79.4717 183.299 85.2707 195.572 83.5146 199.351L79.4717 183.299Z" fill="black"/>
<path opacity="0.1" d="M89.9865 216.126L81.4951 204.534V204.738C81.4951 204.738 81.0032 200.992 82.6213 202.253C86.1637 205.007 91.8332 209.523 91.954 210.302C92.0748 211.081 90.8063 214.206 89.9865 216.126Z" fill="black"/>
<g opacity="0.1">
<path opacity="0.1" d="M77.9699 106.908C77.9699 106.908 78.6862 110.098 76.3691 111.693C79.9374 111.035 80.0928 108.054 79.9849 106.755C79.3189 106.871 78.6445 106.922 77.9699 106.908Z" fill="black"/>
<path opacity="0.1" d="M11.1995 151.859C11.1995 151.859 43.5341 132.599 48.2803 122.779C51.6846 115.732 59.8869 111.508 64.2448 109.681C61.0649 110.826 50.3643 115.217 46.343 123.535C41.5968 133.355 9.26221 152.615 9.26221 152.615L11.1995 151.859Z" fill="black"/>
<path opacity="0.1" d="M84.2609 105.411C89.7622 103.556 95.0218 98.9799 95.0218 98.9799L78.1513 86.1369L78.5353 84.375L76.9216 83.6795L76.2183 86.888L93.0889 99.731C90.3816 102.018 87.4153 103.926 84.2609 105.411Z" fill="black"/>
<path opacity="0.1" d="M84.3687 148.929C86.5243 148.138 88.7365 147.538 90.9831 147.135L91.0134 146.768C88.7498 147.303 86.5282 148.025 84.3687 148.929Z" fill="black"/>
<path opacity="0.1" d="M63.9213 168.713H63.766C63.7072 168.748 63.6394 168.762 63.5726 168.753C63.5058 168.744 63.4436 168.712 63.3949 168.662C63.5156 168.698 63.6406 168.715 63.766 168.713C64.3441 168.351 65.2114 165.532 63.3949 149.212C61.4533 131.788 53.8335 133.156 49.6611 135.158C53.9241 133.897 59.7921 134.987 61.4619 149.967C63.2784 166.288 62.4112 169.111 61.833 169.469C62.5824 169.439 63.3077 169.176 63.9213 168.713Z" fill="black"/>
<path opacity="0.1" d="M61.833 169.474C61.7077 169.476 61.5827 169.459 61.4619 169.422C61.5106 169.473 61.5729 169.505 61.6396 169.514C61.7064 169.523 61.7742 169.509 61.833 169.474Z" fill="black"/>
</g>
<path d="M73.9015 71.7683C76.6802 72.1068 79.3251 73.3911 82.0607 74.0866C82.7442 74.3169 83.4725 74.3473 84.1706 74.1747C85.232 73.8223 86.095 72.6261 87.1909 72.6632C87.8683 72.6632 88.4853 73.1824 89.029 73.66C89.9296 74.3943 90.7763 75.2018 91.5617 76.0756C93.4473 78.2779 94.6209 81.2453 96.3424 83.6377C98.064 86.0302 100.778 87.894 103.224 86.7952C101.563 93.7499 96.1094 99.068 90.2155 99.4992C87.864 99.6707 85.4693 99.1468 83.1782 99.8886C82.6104 100.137 82.0113 100.294 81.4005 100.352C80.1061 100.352 79.0361 99.0587 78.2163 97.8022C76.3005 94.8441 74.7645 91.4873 72.6071 88.7935C71.8952 87.9033 71.0538 87.0548 70.0485 86.8925C69.0431 86.7303 68.1155 87.2449 67.218 87.7457C65.7381 88.571 64.2236 89.4241 63.0759 90.8336C61.9282 92.243 61.2033 94.3527 61.6779 96.2629C61.9325 97.2922 62.5193 98.2195 62.5408 99.2998C62.5408 101.015 61.1515 102.272 60.871 103.936C60.8093 104.639 60.7862 105.345 60.802 106.051C60.6769 108.341 59.2875 110.223 57.8292 111.656C57.2639 112.217 56.634 112.815 56.47 113.682C56.3578 114.271 56.47 114.897 56.3967 115.495C56.1852 116.983 54.8045 117.734 53.5835 117.929C52.1573 118.154 50.7013 117.968 49.3637 117.391C51.0896 116.524 52.1208 114.053 51.7238 111.828C51.1802 108.763 48.3152 106.565 48.5568 103.44C48.6919 102.483 48.9595 101.553 49.3507 100.681C49.976 98.9955 50.4302 97.2421 50.7055 95.4515C50.9878 94.0734 50.9597 92.6428 50.6236 91.2787C50.2568 90.0778 49.5104 89.1227 48.8718 88.1073C48.007 86.7269 47.3245 85.2243 46.8439 83.6424C46.6697 83.1748 46.6031 82.6691 46.6497 82.168C46.7888 81.5769 47.0894 81.044 47.5126 80.6379C49.0832 78.8714 50.7659 77.0307 52.8543 76.5207C53.8521 76.3421 54.8669 76.3 55.8746 76.3955C57.6338 76.4557 59.3948 76.3751 61.1429 76.1544C62.584 75.9736 65.0261 75.9968 66.2429 74.986C67.3777 74.0587 68.0206 72.8764 69.4228 72.283C70.854 71.72 72.3919 71.5432 73.9015 71.7683Z" fill="#A66477"/>
<path d="M359.981 47.6029C359.981 47.5427 359.981 47.487 359.981 47.4314C359.981 47.3757 359.981 47.3108 359.955 47.2552H359.886C359.886 47.13 359.886 47.0048 359.886 46.8704C359.713 42.5723 354.182 33.4245 351.964 36.0952C350.022 38.4412 352.952 44.3759 354.445 47.0465L354.579 47.2876L354.505 47.2366C354.505 47.2366 348.331 67.0252 347.602 67.7949C346.873 68.5645 341.79 84.1246 335.089 85.8772C333.764 86.2156 332.664 86.5217 331.741 86.8045L331.814 86.5402C332.246 85.0241 332.776 83.5914 332.992 81.9037C333.208 80.216 332.992 78.1713 332.198 77.3507C331.81 76.9427 331.335 76.887 331.016 76.2379C330.809 75.6686 330.698 75.0641 330.688 74.4529L330.119 66.951L330.515 66.8212C332.914 65.9959 335.24 64.0393 335.512 61.4058C335.429 61.4398 335.344 61.4692 335.257 61.4939C335.289 61.3407 335.313 61.186 335.331 61.0302C333.316 61.8833 331.447 59.6393 329.506 58.6331C326.309 56.9501 322.654 58.5358 319.353 58.9206C315.612 59.3611 312.061 57.6919 308.239 57.9933C306.159 58.1649 303.846 59.681 303.958 61.8833C304.023 63.0935 304.821 64.1181 305.149 65.2772C305.978 68.0823 304.135 70.8967 302.522 73.2891C301.46 74.8609 300.442 76.7757 300.261 78.6211C296.546 74.4482 292.529 69.6263 292.063 67.8134L281.315 48.0248C281.315 48.0248 281.06 48.3169 280.65 48.7481C280.585 48.5349 280.508 48.2845 280.421 48.0341C279.049 43.903 275.166 33.8928 270.243 35.7289C265.32 37.5649 272.284 47.8255 275.313 51.9149L275.744 52.4805C275.49 52.5476 275.224 52.5347 274.976 52.4434L286.963 74.5363C286.963 74.5363 289.142 78.7648 291.139 79.9146C291.139 79.9146 306.029 100.088 306.211 104.122C306.392 108.156 312.907 118.917 312.907 118.917C312.907 118.917 315.086 136.401 311.272 139.475H311.319H311.349H311.397H311.44H311.526H311.582H311.639H311.712H311.772H311.859H311.902C311.721 139.665 311.535 139.874 311.345 140.101C308.519 143.467 304.908 150.681 309.844 162.95C317.105 181.032 318.197 188.116 318.197 188.116C318.197 188.116 304.39 188.886 301.672 189.461C299.264 189.971 289.905 190.328 287.765 190.388C287.001 189.433 284.745 187.319 281.699 190.388C277.884 194.232 275.162 207.08 275.162 207.08C275.162 207.08 273.708 217.456 278.614 214.762C278.614 214.762 284.426 206.115 286.057 205.731C286.868 205.54 287.726 204.256 288.382 203.018L288.417 203.041C288.456 203.041 288.615 202.949 288.874 202.837C290.082 202.323 293.409 201.085 296.032 201.701C297.469 202.04 303.63 202.119 310.09 202.1C308.631 205.856 306.016 215.546 306.016 215.546C306.016 215.546 304.925 224.582 308.549 224.212C311.138 223.938 315.108 216.83 317.179 212.773C318.68 211.591 322.982 207.353 326.162 207.673L347.589 198.836C347.589 198.836 352.672 195.762 349.949 185.58C347.792 177.485 341.652 160.914 339.227 154.456L339.154 154.289C338.567 152.726 338.213 151.799 338.213 151.799C337.217 148.85 336.563 145.781 336.267 142.66C336.245 142.415 336.228 142.164 336.211 141.918C336.511 141.783 336.794 141.607 337.052 141.395C337.052 141.395 335.055 119.686 337.052 117.378L337.087 117.336V117.308L337.121 117.262L337.199 117.155L337.294 117.025C337.402 116.872 337.531 116.682 337.678 116.45C338.821 114.651 340.953 110.543 340.34 105.694C340.314 105.483 340.283 105.272 340.245 105.058C340.01 103.743 339.591 102.474 339.003 101.294C338.916 100.802 338.863 100.305 338.843 99.8052C338.843 99.5224 338.843 99.2117 338.843 98.8779V98.8223C338.843 98.7326 338.843 98.643 338.843 98.5534V98.4884C338.843 98.2705 338.877 98.0248 338.908 97.8208V97.7373C338.908 97.6539 338.921 97.5689 338.946 97.4823V97.3757C338.946 97.2922 338.981 97.2088 338.998 97.1253V97.0372C339.024 96.9259 339.05 96.8147 339.085 96.7034V96.6477C339.11 96.555 339.139 96.4638 339.171 96.3742L339.21 96.2676L339.296 96.045L339.339 95.9337C339.374 95.8503 339.412 95.7668 339.451 95.6834L339.481 95.6138C339.533 95.5118 339.588 95.4114 339.645 95.3124L339.693 95.2336L339.835 95.0157L339.904 94.9183L340.055 94.7236L340.124 94.6402C340.202 94.5521 340.28 94.464 340.366 94.3805C342.726 92.0623 353.258 74.9768 353.258 74.9768C353.258 74.9768 355.8 71.1331 355.8 68.6387C355.942 68.5831 360.434 52.4944 359.981 47.6029ZM331.706 191.218C331.447 188.585 331.189 185.321 330.951 181.945L335.059 188.826C335.059 188.826 334.671 190.922 331.706 191.218Z" fill="url(#paint3_linear)"/>
<path d="M288.878 189.762C288.878 189.762 286.419 185.59 282.726 189.387C279.032 193.184 276.4 205.814 276.4 205.814C276.4 205.814 274.994 216.014 279.74 213.367C279.74 213.367 285.349 204.868 286.946 204.493C288.542 204.117 290.285 199.392 290.285 199.392L288.878 189.762Z" fill="#493545"/>
<path d="M315.237 199.958C315.237 199.958 311.897 198.256 310.845 199.583C309.792 200.909 306.275 214.123 306.275 214.123C306.275 214.123 305.223 222.811 308.735 222.431C312.247 222.051 318.4 208.447 318.4 208.447L315.237 199.958Z" fill="#493545"/>
<path opacity="0.05" d="M315.237 199.958C315.237 199.958 311.897 198.256 310.845 199.583C309.792 200.909 306.275 214.123 306.275 214.123C306.275 214.123 305.223 222.811 308.735 222.431C312.247 222.051 318.4 208.447 318.4 208.447L315.237 199.958Z" fill="black"/>
<path d="M326.835 174.277L334.39 186.93C334.39 186.93 333.864 189.762 329.294 189.197L313.653 199.773C313.653 199.773 312.294 212.648 316.639 211.48C317.343 211.29 322.248 205.814 325.778 206.194L346.519 197.505C346.519 197.505 351.438 194.482 348.801 184.477C346.165 174.471 337.449 151.27 337.449 151.27L323.672 159.551L326.835 174.277Z" fill="#3E3D77"/>
<path opacity="0.05" d="M326.835 174.277L334.39 186.93C334.39 186.93 333.864 189.762 329.294 189.197L313.653 199.773C313.653 199.773 312.294 212.648 316.639 211.48C317.343 211.29 322.248 205.814 325.778 206.194L346.519 197.505C346.519 197.505 351.438 194.482 348.801 184.477C346.165 174.471 337.449 151.27 337.449 151.27L323.672 159.551L326.835 174.277Z" fill="black"/>
<path d="M331.581 192.971C332.634 200.148 326.662 200.714 326.662 200.714C326.662 200.714 299.773 201.279 296.61 200.524C293.448 199.768 289.228 201.845 289.228 201.845C283.778 198.257 288.175 189.382 288.175 189.382C288.175 189.382 299.423 189.007 302.06 188.455C304.696 187.903 318.05 187.12 318.05 187.12C318.05 187.12 316.997 180.132 309.964 162.384C305.188 150.329 308.67 143.235 311.418 139.929C312.12 139.052 312.932 138.284 313.83 137.648L335.447 138.78C335.424 139.951 335.464 141.123 335.568 142.289C335.937 146.294 336.906 150.208 338.437 153.881C337.207 153.881 329.299 161.814 329.299 161.814C329.299 161.814 330.524 185.798 331.581 192.971Z" fill="#3E3D77"/>
<path opacity="0.1" d="M289.754 190.138C289.754 190.138 301.003 189.762 303.639 189.211C306.275 188.659 319.629 187.889 319.629 187.889C319.629 187.889 318.577 180.902 311.544 163.154C306.767 151.099 310.249 144.005 312.998 140.699C313.699 139.822 314.511 139.054 315.41 138.418L335.439 139.466C335.439 139.243 335.439 139.002 335.439 138.793L313.822 137.662C312.923 138.298 312.111 139.066 311.41 139.943C308.674 143.254 305.179 150.343 309.956 162.398C317.006 180.132 318.05 187.12 318.05 187.12C318.05 187.12 304.675 187.875 302.06 188.441C299.445 189.007 288.175 189.368 288.175 189.368C288.175 189.368 283.783 198.247 289.228 201.85C289.228 201.85 289.392 201.766 289.659 201.646C286.039 197.644 289.754 190.138 289.754 190.138Z" fill="black"/>
<path d="M321.912 68.3373H311.017V97.983H321.912V68.3373Z" fill="#493545"/>
<path opacity="0.1" d="M321.912 68.3373H311.017V97.983H321.912V68.3373Z" fill="black"/>
<path d="M328.142 63.9883C328.518 64.0996 328.94 64.1135 329.195 64.6698C329.353 65.1145 329.439 65.5849 329.45 66.0608L330.136 75.2225C330.145 75.8223 330.253 76.4156 330.455 76.9751C330.744 77.5964 331.223 77.6706 331.598 78.0693C332.353 78.8761 332.573 80.8976 332.366 82.5435C332.159 84.1895 331.637 85.599 331.227 87.0873C330.641 89.2201 330.252 91.6171 329.428 93.4161C328.604 95.2151 327.107 96.198 326.14 94.6865C325.174 93.175 325.303 90.1242 325.122 87.6251C324.82 83.4523 323.305 79.8544 323.202 75.6537C323.116 72.2551 323.966 69.0838 324.496 65.8614C324.876 63.6498 324.898 60.9653 325.45 58.9762C325.912 61.3408 326.792 63.5895 328.142 63.9883Z" fill="#493545"/>
<path opacity="0.1" d="M328.142 63.9883C328.518 64.0996 328.94 64.1135 329.195 64.6698C329.353 65.1145 329.439 65.5849 329.45 66.0608L330.136 75.2225C330.145 75.8223 330.253 76.4156 330.455 76.9751C330.744 77.5964 331.223 77.6706 331.598 78.0693C332.353 78.8761 332.573 80.8976 332.366 82.5435C332.159 84.1895 331.637 85.599 331.227 87.0873C330.641 89.2201 330.252 91.6171 329.428 93.4161C328.604 95.2151 327.107 96.198 326.14 94.6865C325.174 93.175 325.303 90.1242 325.122 87.6251C324.82 83.4523 323.305 79.8544 323.202 75.6537C323.116 72.2551 323.966 69.0838 324.496 65.8614C324.876 63.6498 324.898 60.9653 325.45 58.9762C325.912 61.3408 326.792 63.5895 328.142 63.9883Z" fill="black"/>
<path d="M282.023 50.9644L277.807 54.7431C277.807 54.7431 277.307 54.1126 276.56 53.0925C273.63 49.0727 266.895 38.9883 271.654 37.1847C276.413 35.3811 280.176 45.2151 281.505 49.2767C281.841 50.306 282.023 50.9644 282.023 50.9644Z" fill="#C77485"/>
<path d="M358.117 49.643C356.361 52.4759 353.902 49.643 353.902 49.643C353.902 49.643 353.587 49.1376 353.142 48.3216C351.697 45.6927 348.862 39.8646 350.739 37.5557C352.896 34.9175 358.242 43.9216 358.406 48.1454C358.457 48.6648 358.356 49.1882 358.117 49.643Z" fill="#C77485"/>
<path d="M314.883 80.2345C314.883 80.2345 318.4 92.3219 317.343 95.9059C316.286 99.4899 324.902 103.663 324.902 103.663H334.744C334.744 103.663 338.26 95.9198 337.38 93.6526C336.5 91.3853 328.945 89.6883 328.945 89.6883C328.945 89.6883 324.553 89.6884 324.73 77.0354L314.883 80.2345Z" fill="#C77485"/>
<path opacity="0.1" d="M282.022 50.9644L277.807 54.7431C277.807 54.7431 277.306 54.1125 276.56 53.0925C278.091 52.8004 280.469 50.3987 281.509 49.2767C281.841 50.306 282.022 50.9644 282.022 50.9644Z" fill="black"/>
<path opacity="0.1" d="M358.117 49.643C356.361 52.4759 353.901 49.643 353.901 49.643C353.901 49.643 353.587 49.1376 353.142 48.3216L353.198 48.1315C354.337 49.0078 357.88 48.2613 358.406 48.1315C358.46 48.6554 358.358 49.1842 358.117 49.643Z" fill="black"/>
<path opacity="0.1" d="M335.559 142.285C330.123 144.951 312.458 140.203 311.397 139.92C312.098 139.043 312.91 138.275 313.809 137.639L335.426 138.77C335.407 139.944 335.451 141.117 335.559 142.285Z" fill="black"/>
<path d="M317.17 90.6203C317.17 90.6203 312.955 92.1318 306.979 86.2759C306.979 86.2759 293.603 72.1114 292.74 68.7129L282.385 49.2396C282.385 49.2396 277.992 54.3397 276.232 53.584L287.83 75.3013C287.83 75.3013 289.94 79.4742 291.873 80.5869C291.873 80.5869 306.284 100.417 306.457 104.381C306.629 108.346 312.95 118.963 312.95 118.963C312.95 118.963 315.06 136.146 311.367 139.169C311.367 139.169 331.926 144.835 336.319 141.056C336.319 141.056 334.386 119.728 336.319 117.452C336.319 117.452 342.295 109.899 338.252 101.59C338.252 101.59 337.389 97.0604 339.658 94.7931C341.928 92.5259 352.137 75.7186 352.137 75.7186C352.137 75.7186 354.596 71.9399 354.596 69.4872C354.596 69.4872 359.165 52.87 358.479 48.5256C358.479 48.5256 354.436 49.4529 353.207 48.5256C353.207 48.5256 347.231 67.9988 346.527 68.7314C345.824 69.464 340.918 84.7829 334.403 86.4845C327.888 88.1861 326.848 88.9372 326.848 88.9372C326.848 88.9372 339.499 97.4359 333.35 101.21C327.202 104.984 317.17 90.6203 317.17 90.6203Z" fill="#FFAAC4"/>
<path opacity="0.1" d="M325.157 83.1416C324.948 81.3628 324.863 79.5697 324.902 77.7772L315.06 80.9857C315.319 81.6902 315.525 82.4158 315.677 83.1555C316.803 83.6887 318.322 84.9499 319.629 84.9499C321.607 85.0193 323.55 84.3835 325.157 83.1416Z" fill="black"/>
<path d="M319.453 84.3888C324.5 84.3888 328.591 79.9922 328.591 74.5687C328.591 69.1453 324.5 64.7487 319.453 64.7487C314.405 64.7487 310.314 69.1453 310.314 74.5687C310.314 79.9922 314.405 84.3888 319.453 84.3888Z" fill="#C77485"/>
<path opacity="0.1" d="M308.579 59.4399C306.569 59.6068 304.325 61.0998 304.437 63.265C304.497 64.4566 305.257 65.4627 305.589 66.6033C306.387 69.362 304.61 72.13 303.048 74.4853C301.486 76.8407 300.027 79.961 301.365 82.4555C301.746 83.056 302.158 83.6334 302.599 84.1849C304.252 86.5819 304.23 89.8182 304.963 92.6975C305.9 96.381 308.114 99.5391 311.151 101.522C314.188 103.506 317.816 104.164 321.29 103.361C319.983 101.567 319.33 99.3214 319.457 97.0465C319.556 95.3959 320.052 93.6711 319.457 92.1457C318.689 90.1845 316.436 89.4102 315.276 87.6947C314.115 85.9792 314.193 83.6007 314.754 81.556C315.315 79.5113 316.285 77.615 316.751 75.5285C316.866 74.9198 317.01 74.3178 317.183 73.7249C317.994 71.249 320.419 69.8117 322.792 69.1951C325.165 68.5784 327.659 68.5413 329.976 67.7299C332.293 66.9186 334.545 65.0176 334.813 62.4073C332.862 63.2465 331.055 61.058 329.173 60.0519C326.075 58.4013 322.542 59.9546 319.349 60.3347C315.711 60.7706 312.26 59.1524 308.579 59.4399Z" fill="black"/>
<path d="M308.402 59.0643C306.392 59.2313 304.148 60.7242 304.26 62.8895C304.321 64.081 305.08 65.0872 305.412 66.2277C306.211 68.9864 304.433 71.7544 302.871 74.1098C301.309 76.4651 299.851 79.5855 301.188 82.0799C301.57 82.6804 301.981 83.2578 302.422 83.8093C304.075 86.2064 304.053 89.4426 304.787 92.3219C305.723 96.0055 307.938 99.1635 310.974 101.147C314.011 103.13 317.639 103.788 321.114 102.986C319.806 101.192 319.154 98.9458 319.28 96.6709C319.379 95.0203 319.875 93.2956 319.28 91.7702C318.512 89.8089 316.26 89.0346 315.099 87.3191C313.938 85.6036 314.016 83.2251 314.577 81.1804C315.138 79.1357 316.109 77.2394 316.575 75.153C316.69 74.5442 316.834 73.9422 317.006 73.3494C317.817 70.8735 320.242 69.4362 322.615 68.8195C324.988 68.2029 327.482 68.1658 329.799 67.3544C332.116 66.543 334.368 64.6421 334.636 62.0317C332.686 62.8709 330.878 60.6825 328.997 59.6764C325.899 58.0258 322.365 59.579 319.172 59.9592C315.543 60.3904 312.104 58.7537 308.402 59.0643Z" fill="#493545"/>
<path opacity="0.1" d="M328.505 96.3835C328.505 96.3835 332.164 99.8933 332.884 101.442L328.505 96.3835Z" fill="black"/>
<path opacity="0.1" d="M336.422 117.345C336.422 117.345 331.853 117.345 329.743 117.911C327.633 118.476 322.538 117.911 322.538 117.911" fill="black"/>
<g opacity="0.1">
<path opacity="0.1" d="M333.337 101.196C332.943 101.438 332.517 101.614 332.073 101.715C333.219 101.988 334.418 101.804 335.447 101.196C341.6 97.4174 328.945 88.9233 328.945 88.9233H326.835C326.835 88.9233 339.49 97.422 333.337 101.196Z" fill="black"/>
<path opacity="0.1" d="M358.51 48.8548C358.51 48.7342 358.484 48.6183 358.466 48.5117C357.744 48.6726 357.013 48.7918 356.279 48.8687C357.02 48.9563 357.769 48.9517 358.51 48.8548Z" fill="black"/>
<path opacity="0.1" d="M313.481 139.155C317.17 136.132 315.064 118.949 315.064 118.949C315.064 118.949 308.739 108.373 308.562 104.409C308.385 100.445 293.978 80.6148 293.978 80.6148C292.045 79.4834 289.935 75.3292 289.935 75.3292C289.935 75.3292 277.984 54.3676 276.228 53.6118L287.826 75.3292C287.826 75.3292 289.935 79.502 291.868 80.6148C291.868 80.6148 306.28 100.445 306.452 104.409C306.625 108.373 312.95 118.963 312.95 118.963C312.95 118.963 315.06 136.146 311.367 139.169C311.367 139.169 324.005 142.651 331.581 142.336C323.987 142.048 313.481 139.155 313.481 139.155Z" fill="black"/>
<path opacity="0.1" d="M317.273 90.7687L317.17 90.6249C317.05 90.6632 316.927 90.6926 316.803 90.713C316.967 90.7362 317.122 90.7547 317.273 90.7687Z" fill="black"/>
</g>
<g opacity="0.1">
<path opacity="0.1" d="M358.466 48.4885L358.358 48.5117C358.172 54.3119 354.427 67.9386 354.427 67.9386C354.427 70.3913 351.968 74.17 351.968 74.17C351.968 74.17 341.776 90.9773 339.49 93.2445C337.203 95.5118 338.083 100.042 338.083 100.042L338.105 100.088C338.036 98.5626 338.208 96.198 339.662 94.7514C341.945 92.4841 352.14 75.6769 352.14 75.6769C352.14 75.6769 354.6 71.8981 354.6 69.4454C354.6 69.4733 359.169 52.8561 358.466 48.4885Z" fill="black"/>
<path opacity="0.1" d="M336.15 115.926C336.414 117.531 336.237 115.834 336.327 117.438C336.327 117.438 340.642 111.999 339.464 105.276C339.818 111.285 336.15 115.926 336.15 115.926Z" fill="black"/>
</g>
<path opacity="0.1" d="M203.05 307.094C304.962 307.094 387.578 298.566 387.578 288.047C387.578 277.528 304.962 269 203.05 269C101.138 269 18.522 277.528 18.522 288.047C18.522 298.566 101.138 307.094 203.05 307.094Z" fill="#FFFF64"/>
<path d="M131.52 268.722C131.52 268.722 125.238 245.794 132.698 228.922C135.871 221.866 136.828 213.894 135.425 206.203C134.732 202.558 133.73 198.988 132.431 195.539" stroke="#535461" stroke-width="2" stroke-miterlimit="10"/>
<path d="M137.082 184.885C137.082 187.695 132.336 195.841 132.336 195.841C132.336 195.841 127.59 187.695 127.59 184.885C127.541 184.185 127.628 183.483 127.844 182.821C128.06 182.159 128.401 181.552 128.845 181.038C129.289 180.524 129.828 180.114 130.426 179.833C131.024 179.553 131.67 179.408 132.323 179.408C132.976 179.408 133.621 179.553 134.22 179.833C134.818 180.114 135.356 180.524 135.801 181.038C136.245 181.552 136.586 182.159 136.802 182.821C137.018 183.483 137.104 184.185 137.056 184.885H137.082Z" fill="#FFFF64"/>
<path d="M144.896 200.445C143.476 202.805 135.382 206.876 135.382 206.876C135.382 206.876 135.529 197.274 136.948 194.914C137.263 194.301 137.692 193.764 138.208 193.338C138.724 192.911 139.316 192.602 139.948 192.432C140.58 192.262 141.237 192.233 141.88 192.348C142.523 192.462 143.136 192.718 143.683 193.098C144.23 193.479 144.698 193.976 145.058 194.559C145.418 195.143 145.662 195.799 145.776 196.488C145.89 197.177 145.87 197.884 145.719 198.565C145.568 199.246 145.287 199.886 144.896 200.445Z" fill="#FFFF64"/>
<path d="M144.555 227.044C142.221 228.31 133.337 227.434 133.337 227.434C133.337 227.434 137.975 219.223 140.31 217.957C140.869 217.596 141.492 217.363 142.139 217.272C142.786 217.181 143.444 217.235 144.071 217.43C144.698 217.625 145.281 217.957 145.783 218.404C146.286 218.852 146.696 219.407 146.99 220.033C147.284 220.659 147.455 221.344 147.491 222.044C147.528 222.744 147.43 223.445 147.203 224.103C146.976 224.76 146.625 225.361 146.173 225.866C145.72 226.371 145.175 226.771 144.572 227.04L144.555 227.044Z" fill="#FFFF64"/>
<path d="M140.081 247.102C137.98 248.771 129.065 249.527 129.065 249.527C129.065 249.527 132.345 240.592 134.45 238.919C135.463 238.257 136.671 238.027 137.834 238.273C138.997 238.52 140.032 239.226 140.736 240.251C141.439 241.277 141.76 242.548 141.635 243.815C141.509 245.082 140.947 246.253 140.059 247.097L140.081 247.102Z" fill="#FFFF64"/>
<path d="M125.432 207.423C127.309 209.379 136.047 211.41 136.047 211.41C136.047 211.41 133.889 202.086 132.03 200.125C131.596 199.602 131.066 199.181 130.474 198.888C129.882 198.595 129.24 198.436 128.589 198.421C127.937 198.406 127.289 198.536 126.686 198.802C126.083 199.068 125.538 199.464 125.084 199.966C124.629 200.469 124.276 201.066 124.046 201.722C123.817 202.377 123.715 203.077 123.748 203.776C123.78 204.476 123.947 205.161 124.237 205.788C124.527 206.415 124.934 206.972 125.432 207.423Z" fill="#FFFF64"/>
<path d="M120.483 230.958C122.818 232.223 131.702 231.347 131.702 231.347C131.702 231.347 127.08 223.136 124.746 221.893C123.639 221.4 122.4 221.374 121.276 221.822C120.153 222.269 119.228 223.157 118.689 224.307C118.149 225.457 118.034 226.783 118.367 228.02C118.7 229.257 119.456 230.313 120.483 230.976V230.958Z" fill="#FFFF64"/>
<path d="M118.585 254.539C120.686 256.208 129.6 256.964 129.6 256.964C129.6 256.964 126.321 248.029 124.215 246.355C123.722 245.886 123.143 245.533 122.515 245.317C121.888 245.102 121.225 245.029 120.57 245.104C119.915 245.179 119.281 245.399 118.71 245.751C118.138 246.104 117.641 246.58 117.25 247.15C116.859 247.72 116.583 248.371 116.439 249.062C116.295 249.753 116.287 250.468 116.415 251.163C116.542 251.858 116.803 252.516 117.18 253.097C117.558 253.677 118.043 254.167 118.606 254.534L118.585 254.539Z" fill="#FFFF64"/>
<path opacity="0.1" d="M137.082 184.885C137.082 187.695 132.336 195.841 132.336 195.841C132.336 195.841 127.59 187.695 127.59 184.885C127.541 184.185 127.628 183.483 127.844 182.821C128.06 182.159 128.401 181.552 128.845 181.038C129.289 180.524 129.828 180.114 130.426 179.833C131.024 179.553 131.67 179.408 132.323 179.408C132.976 179.408 133.621 179.553 134.22 179.833C134.818 180.114 135.356 180.524 135.801 181.038C136.245 181.552 136.586 182.159 136.802 182.821C137.018 183.483 137.104 184.185 137.056 184.885H137.082Z" fill="#FFFF64"/>
<path opacity="0.1" d="M144.896 200.445C143.476 202.805 135.382 206.876 135.382 206.876C135.382 206.876 135.529 197.274 136.948 194.914C137.263 194.301 137.692 193.764 138.208 193.338C138.724 192.911 139.316 192.602 139.948 192.432C140.58 192.262 141.237 192.233 141.88 192.348C142.523 192.462 143.136 192.718 143.683 193.098C144.23 193.479 144.698 193.976 145.058 194.559C145.418 195.143 145.662 195.799 145.776 196.488C145.89 197.177 145.87 197.884 145.719 198.565C145.568 199.246 145.287 199.886 144.896 200.445Z" fill="#FFFF64"/>
<path opacity="0.1" d="M144.555 227.044C142.221 228.31 133.337 227.434 133.337 227.434C133.337 227.434 137.975 219.223 140.31 217.957C140.869 217.596 141.492 217.363 142.139 217.272C142.786 217.181 143.444 217.235 144.071 217.43C144.698 217.625 145.281 217.957 145.783 218.404C146.286 218.852 146.696 219.407 146.99 220.033C147.284 220.659 147.455 221.344 147.491 222.044C147.528 222.744 147.43 223.445 147.203 224.103C146.976 224.76 146.625 225.361 146.173 225.866C145.72 226.371 145.175 226.771 144.572 227.04L144.555 227.044Z" fill="#FFFF64"/>
<path opacity="0.1" d="M140.081 247.102C137.98 248.771 129.065 249.527 129.065 249.527C129.065 249.527 132.345 240.592 134.45 238.919C135.463 238.257 136.671 238.027 137.834 238.273C138.997 238.52 140.032 239.226 140.736 240.251C141.439 241.277 141.76 242.548 141.635 243.815C141.509 245.082 140.947 246.253 140.059 247.097L140.081 247.102Z" fill="#FFFF64"/>
<path opacity="0.1" d="M125.432 207.423C127.309 209.379 136.047 211.41 136.047 211.41C136.047 211.41 133.889 202.086 132.03 200.125C131.596 199.602 131.066 199.181 130.474 198.888C129.882 198.595 129.24 198.436 128.589 198.421C127.937 198.406 127.289 198.536 126.686 198.802C126.083 199.068 125.538 199.464 125.084 199.966C124.629 200.469 124.276 201.066 124.046 201.722C123.817 202.377 123.715 203.077 123.748 203.776C123.78 204.476 123.947 205.161 124.237 205.788C124.527 206.415 124.934 206.972 125.432 207.423Z" fill="#FFFF64"/>
<path opacity="0.1" d="M120.483 230.958C122.818 232.223 131.702 231.347 131.702 231.347C131.702 231.347 127.08 223.136 124.746 221.893C123.639 221.4 122.4 221.374 121.276 221.822C120.153 222.269 119.228 223.157 118.689 224.307C118.149 225.457 118.034 226.783 118.367 228.02C118.7 229.257 119.456 230.313 120.483 230.976V230.958Z" fill="#FFFF64"/>
<path opacity="0.1" d="M118.585 254.539C120.686 256.208 129.6 256.964 129.6 256.964C129.6 256.964 126.321 248.029 124.215 246.355C123.722 245.886 123.143 245.533 122.515 245.317C121.888 245.102 121.225 245.029 120.57 245.104C119.915 245.179 119.281 245.399 118.71 245.751C118.138 246.104 117.641 246.58 117.25 247.15C116.859 247.72 116.583 248.371 116.439 249.062C116.295 249.753 116.287 250.468 116.415 251.163C116.542 251.858 116.803 252.516 117.18 253.097C117.558 253.677 118.043 254.167 118.606 254.534L118.585 254.539Z" fill="#FFFF64"/>
<path d="M258.649 269.051C258.649 269.051 252.367 246.124 259.827 229.251C263 222.195 263.957 214.223 262.554 206.533C261.861 202.887 260.859 199.318 259.559 195.869" stroke="#535461" stroke-width="2" stroke-miterlimit="10"/>
<path d="M264.202 185.209C264.202 188.019 259.456 196.165 259.456 196.165C259.456 196.165 254.71 188.019 254.71 185.209C254.798 183.925 255.335 182.725 256.213 181.849C257.091 180.973 258.245 180.486 259.443 180.486C260.641 180.486 261.795 180.973 262.673 181.849C263.551 182.725 264.088 183.925 264.176 185.209H264.202Z" fill="#FFFF64"/>
<path d="M272.03 200.769C270.61 203.129 262.516 207.2 262.516 207.2C262.516 207.2 262.662 197.598 264.082 195.238C264.397 194.625 264.826 194.089 265.342 193.662C265.858 193.235 266.45 192.927 267.082 192.757C267.714 192.586 268.371 192.558 269.014 192.672C269.656 192.787 270.27 193.042 270.817 193.423C271.363 193.803 271.831 194.301 272.191 194.884C272.551 195.467 272.796 196.124 272.91 196.813C273.024 197.502 273.004 198.209 272.853 198.889C272.701 199.57 272.421 200.21 272.03 200.769Z" fill="#FFFF64"/>
<path d="M271.702 227.369C269.367 228.635 260.483 227.758 260.483 227.758C260.483 227.758 265.122 219.547 267.456 218.281C268.016 217.917 268.641 217.681 269.29 217.589C269.939 217.496 270.599 217.549 271.228 217.744C271.857 217.939 272.442 218.272 272.946 218.721C273.45 219.171 273.861 219.727 274.155 220.356C274.449 220.985 274.619 221.673 274.653 222.375C274.688 223.078 274.587 223.781 274.356 224.439C274.126 225.098 273.771 225.698 273.314 226.203C272.857 226.707 272.308 227.104 271.702 227.369Z" fill="#FFFF64"/>
<path d="M267.21 247.427C265.109 249.096 256.194 249.851 256.194 249.851C256.194 249.851 259.474 240.917 261.579 239.243C262.592 238.581 263.799 238.351 264.963 238.598C266.126 238.845 267.161 239.55 267.865 240.576C268.568 241.602 268.889 242.873 268.763 244.14C268.638 245.407 268.076 246.578 267.188 247.422L267.21 247.427Z" fill="#FFFF64"/>
<path d="M252.57 207.747C254.447 209.704 263.184 211.735 263.184 211.735C263.184 211.735 261.027 202.411 259.167 200.45C258.733 199.927 258.204 199.506 257.612 199.213C257.02 198.92 256.378 198.761 255.726 198.746C255.075 198.731 254.427 198.86 253.824 199.126C253.221 199.392 252.675 199.789 252.221 200.291C251.767 200.793 251.414 201.391 251.184 202.046C250.954 202.702 250.853 203.401 250.885 204.101C250.918 204.8 251.085 205.485 251.374 206.113C251.664 206.74 252.071 207.296 252.57 207.747Z" fill="#FFFF64"/>
<path d="M247.612 231.282C249.947 232.548 258.831 231.672 258.831 231.672C258.831 231.672 254.192 223.46 251.858 222.195C250.751 221.701 249.512 221.675 248.388 222.123C247.264 222.571 246.34 223.459 245.8 224.608C245.261 225.758 245.146 227.085 245.479 228.322C245.812 229.559 246.568 230.615 247.595 231.278L247.612 231.282Z" fill="#FFFF64"/>
<path d="M245.718 254.863C247.82 256.533 256.734 257.288 256.734 257.288C256.734 257.288 253.455 248.354 251.349 246.68C250.336 246.018 249.129 245.788 247.966 246.035C246.802 246.282 245.767 246.987 245.064 248.013C244.36 249.038 244.04 250.31 244.165 251.577C244.29 252.844 244.852 254.015 245.74 254.859L245.718 254.863Z" fill="#FFFF64"/>
<path opacity="0.1" d="M264.202 185.209C264.202 188.019 259.456 196.165 259.456 196.165C259.456 196.165 254.71 188.019 254.71 185.209C254.798 183.925 255.335 182.725 256.213 181.849C257.091 180.973 258.245 180.486 259.443 180.486C260.641 180.486 261.795 180.973 262.673 181.849C263.551 182.725 264.088 183.925 264.176 185.209H264.202Z" fill="#FFFF64"/>
<path opacity="0.1" d="M272.03 200.769C270.61 203.129 262.516 207.2 262.516 207.2C262.516 207.2 262.662 197.598 264.082 195.238C264.397 194.625 264.826 194.089 265.342 193.662C265.858 193.235 266.45 192.927 267.082 192.757C267.714 192.586 268.371 192.558 269.014 192.672C269.656 192.787 270.27 193.042 270.817 193.423C271.363 193.803 271.831 194.301 272.191 194.884C272.551 195.467 272.796 196.124 272.91 196.813C273.024 197.502 273.004 198.209 272.853 198.889C272.701 199.57 272.421 200.21 272.03 200.769Z" fill="#FFFF64"/>
<path opacity="0.1" d="M271.702 227.369C269.367 228.635 260.483 227.758 260.483 227.758C260.483 227.758 265.122 219.547 267.456 218.281C268.016 217.917 268.641 217.681 269.29 217.589C269.939 217.496 270.599 217.549 271.228 217.744C271.857 217.939 272.442 218.272 272.946 218.721C273.45 219.171 273.861 219.727 274.155 220.356C274.449 220.985 274.619 221.673 274.653 222.375C274.688 223.078 274.587 223.781 274.356 224.439C274.126 225.098 273.771 225.698 273.314 226.203C272.857 226.707 272.308 227.104 271.702 227.369Z" fill="#FFFF64"/>
<path opacity="0.1" d="M267.21 247.427C265.109 249.096 256.194 249.851 256.194 249.851C256.194 249.851 259.474 240.917 261.579 239.243C262.592 238.581 263.799 238.351 264.963 238.598C266.126 238.845 267.161 239.55 267.865 240.576C268.568 241.602 268.889 242.873 268.763 244.14C268.638 245.407 268.076 246.578 267.188 247.422L267.21 247.427Z" fill="#FFFF64"/>
<path opacity="0.1" d="M252.57 207.747C254.447 209.704 263.184 211.735 263.184 211.735C263.184 211.735 261.027 202.411 259.167 200.45C258.733 199.927 258.204 199.506 257.612 199.213C257.02 198.92 256.378 198.761 255.726 198.746C255.075 198.731 254.427 198.86 253.824 199.126C253.221 199.392 252.675 199.789 252.221 200.291C251.767 200.793 251.414 201.391 251.184 202.046C250.954 202.702 250.853 203.401 250.885 204.101C250.918 204.8 251.085 205.485 251.374 206.113C251.664 206.74 252.071 207.296 252.57 207.747Z" fill="#FFFF64"/>
<path opacity="0.1" d="M247.612 231.282C249.947 232.548 258.831 231.672 258.831 231.672C258.831 231.672 254.192 223.46 251.858 222.195C250.751 221.701 249.512 221.675 248.388 222.123C247.264 222.571 246.34 223.459 245.8 224.608C245.261 225.758 245.146 227.085 245.479 228.322C245.812 229.559 246.568 230.615 247.595 231.278L247.612 231.282Z" fill="#FFFF64"/>
<path opacity="0.1" d="M245.718 254.863C247.82 256.533 256.734 257.288 256.734 257.288C256.734 257.288 253.455 248.354 251.349 246.68C250.336 246.018 249.129 245.788 247.966 246.035C246.802 246.282 245.767 246.987 245.064 248.013C244.36 249.038 244.04 250.31 244.165 251.577C244.29 252.844 244.852 254.015 245.74 254.859L245.718 254.863Z" fill="#FFFF64"/>
<path opacity="0.5" d="M289.392 7.47874H286.682C286.939 7.49189 287.195 7.44893 287.436 7.35247C287.677 7.256 287.897 7.10803 288.083 6.91751C288.269 6.727 288.417 6.4979 288.518 6.2441C288.619 5.99031 288.671 5.71709 288.671 5.441C288.671 5.1649 288.619 4.89169 288.518 4.63789C288.417 4.3841 288.269 4.155 288.083 3.96448C287.897 3.77397 287.677 3.62599 287.436 3.52952C287.195 3.43306 286.939 3.3901 286.682 3.40326H264.712C264.224 3.42824 263.765 3.65384 263.428 4.03325C263.091 4.41267 262.904 4.91677 262.904 5.441C262.904 5.96522 263.091 6.46933 263.428 6.84874C263.765 7.22815 264.224 7.45375 264.712 7.47874H267.421C266.934 7.50372 266.474 7.72932 266.138 8.10873C265.801 8.48815 265.613 8.99225 265.613 9.51648C265.613 10.0407 265.801 10.5448 266.138 10.9242C266.474 11.3036 266.934 11.5292 267.421 11.5542H263.629C263.372 11.5411 263.116 11.584 262.875 11.6805C262.634 11.7769 262.414 11.9249 262.228 12.1154C262.042 12.306 261.894 12.535 261.793 12.7888C261.692 13.0426 261.64 13.3159 261.64 13.592C261.64 13.868 261.692 14.1413 261.793 14.3951C261.894 14.6488 262.042 14.8779 262.228 15.0685C262.414 15.259 262.634 15.407 262.875 15.5034C263.116 15.5999 263.372 15.6428 263.629 15.6297H285.582C285.839 15.6428 286.095 15.5999 286.336 15.5034C286.577 15.407 286.797 15.259 286.982 15.0685C287.168 14.8779 287.316 14.6488 287.418 14.3951C287.519 14.1413 287.571 13.868 287.571 13.592C287.571 13.3159 287.519 13.0426 287.418 12.7888C287.316 12.535 287.168 12.306 286.982 12.1154C286.797 11.9249 286.577 11.7769 286.336 11.6805C286.095 11.584 285.839 11.5411 285.582 11.5542H289.392C289.879 11.5292 290.339 11.3036 290.675 10.9242C291.012 10.5448 291.2 10.0407 291.2 9.51648C291.2 8.99225 291.012 8.48815 290.675 8.10873C290.339 7.72932 289.879 7.50372 289.392 7.47874Z" fill="#DEE3F3"/>
<path opacity="0.5" d="M162.444 19.3667H160.381C160.577 19.3782 160.774 19.3466 160.958 19.2739C161.143 19.2012 161.311 19.0888 161.454 18.9437C161.597 18.7985 161.71 18.6236 161.788 18.4297C161.866 18.2358 161.906 18.0269 161.906 17.8158C161.906 17.6047 161.866 17.3958 161.788 17.2018C161.71 17.0079 161.597 16.833 161.454 16.6879C161.311 16.5427 161.143 16.4304 160.958 16.3576C160.774 16.2849 160.577 16.2533 160.381 16.2649H143.675C143.306 16.2866 142.958 16.4594 142.704 16.7479C142.45 17.0364 142.308 17.4185 142.308 17.8158C142.308 18.213 142.45 18.5952 142.704 18.8836C142.958 19.1721 143.306 19.345 143.675 19.3667H145.737C145.541 19.3551 145.345 19.3867 145.16 19.4594C144.976 19.5322 144.807 19.6445 144.664 19.7897C144.522 19.9348 144.408 20.1097 144.33 20.3036C144.253 20.4976 144.213 20.7065 144.213 20.9176C144.213 21.1287 144.253 21.3376 144.33 21.5315C144.408 21.7254 144.522 21.9003 144.664 22.0455C144.807 22.1906 144.976 22.303 145.16 22.3757C145.345 22.4484 145.541 22.48 145.737 22.4685H142.851C142.654 22.457 142.458 22.4885 142.274 22.5613C142.089 22.634 141.92 22.7464 141.778 22.8915C141.635 23.0366 141.522 23.2115 141.444 23.4055C141.366 23.5994 141.326 23.8083 141.326 24.0194C141.326 24.2305 141.366 24.4394 141.444 24.6333C141.522 24.8273 141.635 25.0021 141.778 25.1473C141.92 25.2924 142.089 25.4048 142.274 25.4775C142.458 25.5503 142.654 25.5818 142.851 25.5703H159.557C159.753 25.5818 159.95 25.5503 160.134 25.4775C160.319 25.4048 160.487 25.2924 160.63 25.1473C160.773 25.0021 160.886 24.8273 160.964 24.6333C161.042 24.4394 161.082 24.2305 161.082 24.0194C161.082 23.8083 161.042 23.5994 160.964 23.4055C160.886 23.2115 160.773 23.0366 160.63 22.8915C160.487 22.7464 160.319 22.634 160.134 22.5613C159.95 22.4885 159.753 22.457 159.557 22.4685H162.444C162.813 22.4468 163.16 22.2739 163.414 21.9855C163.669 21.697 163.81 21.3148 163.81 20.9176C163.81 20.5203 163.669 20.1382 163.414 19.8497C163.16 19.5612 162.813 19.3884 162.444 19.3667Z" fill="#DEE3F3"/>
<path d="M22.2155 239.048C22.2155 239.048 29.7663 254.975 23.6135 263.687C17.4607 272.399 24.1744 296.142 24.1744 296.142" stroke="#FFFF64" stroke-miterlimit="10"/>
<path d="M24.4674 234.069C24.4674 237.138 22.3704 239.633 22.3704 239.633C22.3704 239.633 20.2734 237.143 20.2734 234.069C20.2734 230.995 22.3704 228.505 22.3704 228.505C22.3704 228.505 24.4674 230.999 24.4674 234.069Z" fill="#FFFF64"/>
<path d="M26.1288 239.048C26.1288 239.048 18.578 254.975 24.7308 263.687C30.8836 272.399 24.1699 296.142 24.1699 296.142" stroke="#FFFF64" stroke-miterlimit="10"/>
<path d="M23.8936 234.069C23.8936 237.138 25.9905 239.633 25.9905 239.633C25.9905 239.633 28.0875 237.143 28.0875 234.069C28.0875 230.995 25.9905 228.505 25.9905 228.505C25.9905 228.505 23.8936 230.999 23.8936 234.069Z" fill="#FFFF64"/>
<path opacity="0.1" d="M23.8936 234.069C23.8936 237.138 25.9905 239.633 25.9905 239.633C25.9905 239.633 28.0875 237.143 28.0875 234.069C28.0875 230.995 25.9905 228.505 25.9905 228.505C25.9905 228.505 23.8936 230.999 23.8936 234.069Z" fill="black"/>
<path d="M29.2135 239.048C29.2135 239.048 36.7643 254.975 30.6115 263.687C24.4587 272.399 31.1724 296.142 31.1724 296.142" stroke="#FFFF64" stroke-miterlimit="10"/>
<path d="M31.4444 234.069C31.4444 237.138 29.3474 239.633 29.3474 239.633C29.3474 239.633 27.2505 237.143 27.2505 234.069C27.2505 230.995 29.3474 228.505 29.3474 228.505C29.3474 228.505 31.4444 230.999 31.4444 234.069Z" fill="#FFFF64"/>
<path d="M30.2665 246.828C28.2861 249.04 25.1665 249.272 25.1665 249.272C25.1665 249.272 25.2614 245.915 27.2419 243.708C29.2223 241.501 32.3419 241.265 32.3419 241.265C32.3419 241.265 32.234 244.612 30.2665 246.828Z" fill="#FFFF64"/>
<path d="M30.4648 257.817C28.4843 260.028 25.3647 260.26 25.3647 260.26C25.3647 260.26 25.4597 256.903 27.4401 254.696C29.4206 252.49 32.5401 252.253 32.5401 252.253C32.5401 252.253 32.4452 255.601 30.4648 257.817Z" fill="#FFFF64"/>
<path d="M19.7212 263.858C21.5938 266.176 21.5291 269.533 21.5291 269.533C21.5291 269.533 18.4268 269.13 16.5542 266.812C14.6816 264.493 14.7464 261.137 14.7464 261.137C14.7464 261.137 17.8487 261.54 19.7212 263.858Z" fill="#FFFF64"/>
<path d="M21.4471 240.439C23.8289 242.136 24.6012 245.391 24.6012 245.391C24.6012 245.391 21.5119 245.896 19.1301 244.199C16.7484 242.503 15.9761 239.248 15.9761 239.248C15.9761 239.248 19.0784 238.733 21.4471 240.439Z" fill="#FFFF64"/>
<path opacity="0.1" d="M21.4471 240.439C23.8289 242.136 24.6012 245.391 24.6012 245.391C24.6012 245.391 21.5119 245.896 19.1301 244.199C16.7484 242.503 15.9761 239.248 15.9761 239.248C15.9761 239.248 19.0784 238.733 21.4471 240.439Z" fill="black"/>
<path d="M33.1185 239.048C33.1185 239.048 25.5677 254.975 31.7205 263.687C37.8734 272.399 31.1596 296.142 31.1596 296.142" stroke="#FFFF64" stroke-miterlimit="10"/>
<path d="M30.8833 234.069C30.8833 237.138 32.9803 239.633 32.9803 239.633C32.9803 239.633 35.0772 237.143 35.0772 234.069C35.0772 230.995 32.9803 228.505 32.9803 228.505C32.9803 228.505 30.8833 230.999 30.8833 234.069Z" fill="#FFFF64"/>
<path opacity="0.1" d="M30.8833 234.069C30.8833 237.138 32.9803 239.633 32.9803 239.633C32.9803 239.633 35.0772 237.143 35.0772 234.069C35.0772 230.995 32.9803 228.505 32.9803 228.505C32.9803 228.505 30.8833 230.999 30.8833 234.069Z" fill="black"/>
<path d="M31.4874 247.065C29.4811 249.253 29.3301 252.629 29.3301 252.629C29.3301 252.629 32.4496 252.439 34.456 250.25C36.4623 248.062 36.6133 244.686 36.6133 244.686C36.6133 244.686 33.4938 244.876 31.4874 247.065Z" fill="#FFFF64"/>
<path opacity="0.1" d="M31.4874 247.065C29.4811 249.253 29.3301 252.629 29.3301 252.629C29.3301 252.629 32.4496 252.439 34.456 250.25C36.4623 248.062 36.6133 244.686 36.6133 244.686C36.6133 244.686 33.4938 244.876 31.4874 247.065Z" fill="black"/>
<path d="M35.4181 262.277C33.4118 264.466 33.2607 267.841 33.2607 267.841C33.2607 267.841 36.3803 267.651 38.3866 265.462C40.393 263.274 40.544 259.899 40.544 259.899C40.544 259.899 37.4115 260.089 35.4181 262.277Z" fill="#FFFF64"/>
<path d="M29.645 258.934C29.645 258.934 34.1884 251.238 40.5699 251.052" stroke="#FFFF64" stroke-miterlimit="10"/>
<path d="M26.0938 254.284C26.0938 254.284 21.5504 246.587 15.1689 246.402" stroke="#FFFF64" stroke-miterlimit="10"/>
<path d="M25.5029 265.272C25.5029 265.272 30.0463 257.576 36.4278 257.39" stroke="#FFFF64" stroke-miterlimit="10"/>
<path d="M40.3498 252.276C41.0003 252.276 41.5277 251.71 41.5277 251.01C41.5277 250.311 41.0003 249.745 40.3498 249.745C39.6992 249.745 39.1719 250.311 39.1719 251.01C39.1719 251.71 39.6992 252.276 40.3498 252.276Z" fill="#FFFF64"/>
<path d="M15.2814 247.733C15.932 247.733 16.4594 247.166 16.4594 246.467C16.4594 245.768 15.932 245.201 15.2814 245.201C14.6309 245.201 14.1035 245.768 14.1035 246.467C14.1035 247.166 14.6309 247.733 15.2814 247.733Z" fill="#FFFF64"/>
<path d="M28.8468 267.795C28.8468 267.795 24.3034 260.098 17.9219 259.913" stroke="#FFFF64" stroke-miterlimit="10"/>
<path d="M18.0344 261.253C18.6849 261.253 19.2123 260.686 19.2123 259.987C19.2123 259.288 18.6849 258.721 18.0344 258.721C17.3838 258.721 16.8564 259.288 16.8564 259.987C16.8564 260.686 17.3838 261.253 18.0344 261.253Z" fill="#FFFF64"/>
<path d="M36.5143 258.721C37.1649 258.721 37.6923 258.154 37.6923 257.455C37.6923 256.756 37.1649 256.189 36.5143 256.189C35.8638 256.189 35.3364 256.756 35.3364 257.455C35.3364 258.154 35.8638 258.721 36.5143 258.721Z" fill="#FFFF64"/>
<path d="M53.9715 286.874C53.9715 286.874 43.0207 284.518 40.0953 281.38C37.17 278.241 24.0359 272.751 22.5732 276.674C21.1105 280.596 2.85924 293.935 15.2727 296.29C27.6862 298.646 44.4791 299.429 48.1294 297.858C51.7796 296.286 53.9715 286.874 53.9715 286.874Z" fill="#A8A8A8"/>
<path opacity="0.2" d="M15.2731 294.83C27.6865 297.185 44.4795 297.969 48.1297 296.397C50.9084 295.201 52.8414 289.442 53.6051 286.79L53.9719 286.874C53.9719 286.874 51.78 296.29 48.1297 297.858C44.4795 299.425 27.6865 298.641 15.2731 296.29C11.6918 295.609 10.6649 294.014 11.0533 291.997C11.3553 293.295 12.6066 294.325 15.2731 294.83Z" fill="black"/>
<path d="M386.443 242.656C386.443 242.656 390.059 247.756 384.773 255.406C379.488 263.056 375.13 269.552 376.895 274.337C376.895 274.337 384.868 260.089 391.358 259.889C397.847 259.69 393.584 251.219 386.443 242.656Z" fill="#FFFF64"/>
<path opacity="0.1" d="M386.443 242.656C386.758 243.147 387.006 243.684 387.181 244.25C393.515 252.244 396.884 259.704 390.801 259.894C385.131 260.07 378.331 270.961 376.7 273.715C376.754 273.928 376.819 274.137 376.894 274.341C376.894 274.341 384.868 260.093 391.357 259.894C397.847 259.695 393.584 251.219 386.443 242.656Z" fill="black"/>
<path d="M393.165 249.128C393.165 250.918 392.98 252.374 392.734 252.374C392.488 252.374 392.302 250.922 392.302 249.128C392.302 247.334 392.535 248.201 392.764 248.201C392.993 248.201 393.165 247.343 393.165 249.128Z" fill="#FFD037"/>
<path d="M395.474 251.265C394.011 252.123 392.738 252.656 392.63 252.42C392.523 252.184 393.614 251.33 395.077 250.477C396.539 249.624 395.961 250.245 396.074 250.477C396.186 250.709 396.932 250.408 395.474 251.265Z" fill="#FFD037"/>
<path d="M367.346 242.656C367.346 242.656 363.73 247.756 369.016 255.406C374.301 263.056 378.659 269.552 376.894 274.337C376.894 274.337 368.921 260.089 362.431 259.889C355.942 259.69 360.205 251.219 367.346 242.656Z" fill="#FFFF64"/>
<path opacity="0.1" d="M367.346 242.656C367.031 243.147 366.782 243.684 366.608 244.25C360.274 252.244 356.904 259.704 362.988 259.894C368.658 260.07 375.458 270.961 377.089 273.715C377.035 273.928 376.97 274.137 376.894 274.341C376.894 274.341 368.921 260.093 362.431 259.894C355.942 259.695 360.205 251.219 367.346 242.656Z" fill="black"/>
<path d="M360.624 249.128C360.624 250.918 360.809 252.374 361.055 252.374C361.301 252.374 361.486 250.922 361.486 249.128C361.486 247.334 361.253 248.201 361.025 248.201C360.796 248.201 360.624 247.343 360.624 249.128Z" fill="#FFD037"/>
<path d="M358.315 251.265C359.778 252.123 361.051 252.656 361.159 252.42C361.266 252.184 360.175 251.33 358.712 250.477C357.249 249.624 357.828 250.245 357.715 250.477C357.603 250.709 356.852 250.408 358.315 251.265Z" fill="#FFD037"/>
<path d="M361.776 273.669C361.776 273.669 371.885 273.335 374.931 271.003C377.978 268.671 390.464 265.903 391.237 269.612C392.009 273.321 406.429 288.209 395.017 288.306C383.604 288.404 368.498 286.396 365.456 284.407C362.414 282.418 361.776 273.669 361.776 273.669Z" fill="#A8A8A8"/>
<path opacity="0.2" d="M395.219 287.022C383.807 287.12 368.701 285.112 365.659 283.123C363.342 281.607 362.419 276.168 362.112 273.66H361.776C361.776 273.66 362.414 282.423 365.456 284.412C368.498 286.401 383.604 288.413 395.017 288.311C398.313 288.283 399.448 287.022 399.387 285.158C398.93 286.294 397.692 286.999 395.219 287.022Z" fill="black"/>
<path opacity="0.5" d="M77.0813 34.987H74.3717C74.6283 35.0002 74.8848 34.9572 75.1255 34.8608C75.3662 34.7643 75.5863 34.6163 75.7722 34.4258C75.9582 34.2353 76.1062 34.0062 76.2074 33.7524C76.3085 33.4986 76.3607 33.2254 76.3607 32.9493C76.3607 32.6732 76.3085 32.4 76.2074 32.1462C76.1062 31.8924 75.9582 31.6633 75.7722 31.4728C75.5863 31.2823 75.3662 31.1343 75.1255 31.0378C74.8848 30.9414 74.6283 30.8984 74.3717 30.9116H52.4183C51.9311 30.9365 51.4714 31.1621 51.1348 31.5416C50.7981 31.921 50.6103 32.4251 50.6103 32.9493C50.6103 33.4735 50.7981 33.9776 51.1348 34.357C51.4714 34.7365 51.9311 34.9621 52.4183 34.987H55.128C54.6407 35.012 54.1811 35.2376 53.8444 35.617C53.5078 35.9964 53.32 36.5006 53.32 37.0248C53.32 37.549 53.5078 38.0531 53.8444 38.4325C54.1811 38.8119 54.6407 39.0375 55.128 39.0625H51.3353C50.8481 39.0875 50.3884 39.3131 50.0518 39.6925C49.7151 40.0719 49.5273 40.576 49.5273 41.1003C49.5273 41.6245 49.7151 42.1286 50.0518 42.508C50.3884 42.8874 50.8481 43.113 51.3353 43.138H73.2887C73.5453 43.1512 73.8018 43.1082 74.0425 43.0117C74.2832 42.9153 74.5033 42.7673 74.6892 42.5768C74.8752 42.3862 75.0232 42.1572 75.1244 41.9034C75.2255 41.6496 75.2776 41.3763 75.2776 41.1003C75.2776 40.8242 75.2255 40.5509 75.1244 40.2971C75.0232 40.0434 74.8752 39.8143 74.6892 39.6237C74.5033 39.4332 74.2832 39.2853 74.0425 39.1888C73.8018 39.0923 73.5453 39.0494 73.2887 39.0625H77.0813C77.5686 39.0375 78.0283 38.8119 78.3649 38.4325C78.7015 38.0531 78.8893 37.549 78.8893 37.0248C78.8893 36.5006 78.7015 35.9964 78.3649 35.617C78.0283 35.2376 77.5686 35.012 77.0813 34.987Z" fill="#DEE3F3"/>
</g>
<defs>
<linearGradient id="paint0_linear" x1="199.041" y1="252.494" x2="199.041" y2="60.5434" gradientUnits="userSpaceOnUse">
<stop stop-color="#808080" stop-opacity="0.25"/>
<stop offset="0.54" stop-color="#808080" stop-opacity="0.12"/>
<stop offset="1" stop-color="#808080" stop-opacity="0.1"/>
</linearGradient>
<linearGradient id="paint1_linear" x1="165.55" y1="219.845" x2="165.55" y2="219.823" gradientUnits="userSpaceOnUse">
<stop stop-color="#808080" stop-opacity="0.25"/>
<stop offset="0.54" stop-color="#808080" stop-opacity="0.12"/>
<stop offset="1" stop-color="#808080" stop-opacity="0.1"/>
</linearGradient>
<linearGradient id="paint2_linear" x1="27785.3" y1="93749.7" x2="27785.3" y2="42032.7" gradientUnits="userSpaceOnUse">
<stop stop-color="#808080" stop-opacity="0.25"/>
<stop offset="0.54" stop-color="#808080" stop-opacity="0.12"/>
<stop offset="1" stop-color="#808080" stop-opacity="0.1"/>
</linearGradient>
<linearGradient id="paint3_linear" x1="78270.4" y1="113643" x2="78270.4" y2="36835.2" gradientUnits="userSpaceOnUse">
<stop stop-color="#808080" stop-opacity="0.25"/>
<stop offset="0.54" stop-color="#808080" stop-opacity="0.12"/>
<stop offset="1" stop-color="#808080" stop-opacity="0.1"/>
</linearGradient>
<clipPath id="clip0">
<rect width="409.813" height="306.713" fill="white" transform="translate(0.348145 0.380249)"/>
</clipPath>
</defs>
</svg>
