<svg width="1081" height="931" viewBox="0 0 1081 931" fill="none" xmlns="http://www.w3.org/2000/svg">
<g clip-path="url(#clip0)">
<path d="M268.23 299.017C268.23 299.017 152.614 338.827 130.441 375.575C108.269 412.324 268.23 299.017 268.23 299.017Z" fill="#FFFF64"/>
<path d="M68.4675 426.445C67.6632 426.505 66.8555 426.392 66.0988 426.113C65.3421 425.833 64.6542 425.395 64.0816 424.827C60.4848 421.588 63.4244 415.464 65.9472 411.138C99.772 353.17 269.846 292.083 277.067 289.511L292.621 283.973L279.303 293.727C278.81 294.089 229.333 330.296 178.683 364.406C99.9393 417.44 76.561 426.445 68.4675 426.445ZM261.952 300.346C217.294 317.627 96.9454 367.583 70.1164 413.569C66.5431 419.691 67.2992 421.229 67.3086 421.242C68.0318 422.021 77.171 426.915 175.4 360.803C209.641 337.757 243.424 313.69 261.952 300.346V300.346Z" fill="#3F3D56"/>
<path d="M265.724 259.253C265.724 259.253 159.18 248.303 126.858 267.015C94.5371 285.726 265.724 259.253 265.724 259.253Z" fill="#FFFF64"/>
<path d="M120.538 277.149C83.2435 277.149 80.6831 271.172 79.5101 268.439C77.1664 262.971 83.6887 257.822 85.8322 256.13C132.078 219.627 272.543 256.516 278.5 258.104L289.924 261.15L278.219 262.82C277.748 262.887 230.685 269.58 183.192 273.769C155.493 276.213 135.295 277.149 120.538 277.149ZM153.22 244.982C126.952 244.982 102.921 248.786 88.8236 259.914C84.5696 263.271 83.5143 265.537 83.9454 266.538C85.0266 269.057 95.346 276.678 182.768 268.966C215.344 266.091 247.716 262.037 264.908 259.764C242.88 254.695 195.193 244.982 153.22 244.982Z" fill="#3F3D56"/>
<path d="M296.215 240.492C296.215 240.492 242.623 111.845 255.608 99.1111C268.593 86.3771 296.215 240.492 296.215 240.492Z" fill="#FFFF64"/>
<path d="M299.178 251.809L292.515 234.786C292.352 234.37 276.047 192.614 262.612 149.625C234.937 61.0898 246.281 53.5293 250.008 51.0449C250.927 50.3859 252.008 49.9877 253.135 49.8926C254.263 49.7974 255.395 50.0089 256.412 50.5045C277.315 60.242 295.191 215.922 297.16 233.642L299.178 251.809ZM253.677 54.6962C253.317 54.7138 252.971 54.8398 252.683 55.0577C239.365 63.9345 266.364 151.329 290.098 214.938C281.957 149.349 266.967 60.7424 254.375 54.8752C254.158 54.7646 253.92 54.7034 253.677 54.6962Z" fill="#3F3D56"/>
<path d="M316.47 268.782C316.47 268.782 345.234 138.748 375.368 138.748C405.502 138.748 316.47 268.782 316.47 268.782Z" fill="#FFFF64"/>
<path d="M308.881 277.755L311.726 267.049C313.815 259.197 363.481 74.7542 417.775 74.7542C425.218 74.7542 428.429 78.2453 429.814 81.1736C444.291 111.826 329.103 253.183 315.921 269.2L308.881 277.755ZM417.775 79.577C374.439 79.577 331.361 216.512 319.549 257.097C358.417 208.818 435.889 105.334 425.452 83.233C425.023 82.3287 423.725 79.577 417.775 79.577Z" fill="#3F3D56"/>
<path d="M333.354 270.079C333.354 270.079 432.247 207.603 634.857 226.674C837.467 245.745 333.354 270.079 333.354 270.079Z" fill="#FFFF64"/>
<path d="M326.608 272.685L331.786 268.248C332.834 267.35 358.045 246.045 408.558 228.912C455.041 213.142 532.528 198.288 637.693 217.066C682.125 224.998 687.893 230.909 687.507 236.115C687.125 241.258 686.23 253.303 508.706 264.47C421.956 269.926 334.299 272.465 333.423 272.49L326.608 272.685ZM542.249 213.118C428.017 213.118 360.482 253.696 340.901 267.434C364.082 266.692 436.562 264.176 508.414 259.655C673.374 249.278 682.535 237.928 682.695 235.758C682.714 235.526 682.591 229.98 636.845 221.813C605.631 216.13 573.976 213.22 542.249 213.118Z" fill="#3F3D56"/>
<path d="M396.067 277.406C396.067 277.406 569.292 275.095 579.024 293.587C588.756 312.079 396.067 277.406 396.067 277.406Z" fill="#FFFF64"/>
<path d="M601.207 324.659C545.914 324.659 413.008 284.966 395.367 279.621L380.912 275.243L396.013 274.903C418.171 274.408 612.852 271.17 625.098 310.354C626.549 314.996 624.867 317.974 623.2 319.655C619.714 323.17 611.915 324.659 601.207 324.659ZM411.867 279.505C493.12 303.313 605.943 330.213 619.775 316.259C620.524 315.503 621.282 314.313 620.496 311.793C611.794 283.955 479.015 279.049 411.867 279.505Z" fill="#3F3D56"/>
<path d="M362.298 296.605C362.298 296.605 466.928 344.953 446.483 359.829C426.038 374.706 362.298 296.605 362.298 296.605Z" fill="#FFFF64"/>
<path d="M511.674 418.324C461.062 418.324 358.009 296.618 353.216 290.923L346.432 282.861L356.049 287.17C363.066 290.315 527.953 364.621 531.562 401.84C532.04 406.776 529.873 411.092 525.296 414.323C521.29 417.057 516.523 418.457 511.674 418.324ZM364.011 296.101C403.805 341.745 492.343 431.681 522.512 410.383C525.725 408.117 527.075 405.55 526.761 402.305C524.165 375.545 416.416 320.366 364.011 296.101Z" fill="#3F3D56"/>
<path d="M535.964 354.479C535.964 354.479 622.797 390.651 603.501 414.765C584.205 438.879 535.964 354.479 535.964 354.479Z" fill="#FFFF64"/>
<path d="M374.359 325.542C374.359 325.542 555.26 523.279 538.376 535.336C521.492 547.393 374.359 325.542 374.359 325.542Z" fill="#FFFF64"/>
<path d="M340.59 311.074C340.59 311.074 416.754 437.893 401.211 450.222C385.667 462.552 340.59 311.074 340.59 311.074Z" fill="#FFFF64"/>
<path d="M426.799 497.728C425.849 497.722 424.906 497.564 424.005 497.26C396.083 488.09 339.806 323.363 333.481 304.609L327.857 287.932L337.761 302.483C338.056 302.917 367.66 346.48 393.93 391.547C442.496 474.86 438.47 491.243 431.218 496.318C429.928 497.237 428.383 497.73 426.799 497.728ZM344.187 320.832C364.715 379.09 406.042 486.285 425.511 492.679C425.987 492.88 426.507 492.957 427.022 492.902C427.537 492.847 428.029 492.663 428.453 492.366C432.438 489.578 436.647 474.409 389.773 393.993C373.143 365.464 355.166 337.53 344.187 320.832H344.187Z" fill="#3F3D56"/>
<path d="M308.369 306.251C308.369 306.251 239.82 508.468 281.884 506.383C323.948 504.298 308.369 306.251 308.369 306.251Z" fill="#FFFF64"/>
<path d="M264.821 540.178C257.439 540.178 251.762 537.293 247.937 531.594C220.799 491.158 301.19 312.827 304.624 305.255L308.292 297.174L309.22 305.999C309.981 313.22 327.39 483.397 287.952 528.86C281.717 536.045 274.3 539.846 265.907 540.156C265.542 540.171 265.179 540.178 264.821 540.178ZM305.27 315.745C289.377 352.279 229.501 495.467 251.944 528.907C255.001 533.466 259.51 535.579 265.728 535.338C272.832 535.075 278.909 531.921 284.308 525.7C317.276 487.696 308.37 352.463 305.27 315.745Z" fill="#3F3D56"/>
<path d="M284.693 316.303C284.693 316.303 169.628 447.876 180.158 461.733C190.689 475.591 284.693 316.303 284.693 316.303Z" fill="#FFFF64"/>
<path d="M145.542 509.698C144.018 509.723 142.531 509.231 141.323 508.302C140.503 507.635 139.834 506.801 139.362 505.856C138.89 504.911 138.626 503.875 138.586 502.819C135.696 470.133 288.861 299.814 295.381 292.579L310.8 275.476L299.261 295.402C294.343 303.894 178.467 503.444 147.263 509.524C146.696 509.637 146.12 509.695 145.542 509.698ZM282.695 314.087C231.948 371.707 141.384 479.704 143.391 502.396C143.373 502.79 143.445 503.184 143.6 503.548C143.755 503.911 143.989 504.235 144.286 504.496C144.583 504.699 144.923 504.831 145.279 504.882C145.635 504.933 145.998 504.902 146.34 504.79C167.905 500.589 243.236 380.477 282.695 314.087H282.695Z" fill="#3F3D56"/>
<path d="M250.156 227.705C250.156 227.705 149.839 109.237 57.0739 120.718C-35.6916 132.199 250.156 227.705 250.156 227.705Z" fill="#FFFF64"/>
<path d="M263.528 233.24L255.632 231.437C254.999 231.292 191.596 216.754 128.912 198.208C0.551639 160.231 0.137071 142.769 0.00287137 137.031C-0.162015 130.107 6.88799 124.752 21.5556 120.66C75.9887 105.469 137.45 135.391 179.411 163.173C207.589 182.002 233.877 203.515 257.906 227.411L263.528 233.24ZM52.7069 121.36C42.6216 121.309 32.5767 122.637 22.851 125.306C11.1254 128.577 4.72547 132.7 4.82445 136.917C5.37328 160.069 147.725 201.354 248.394 224.816C224.596 201.993 134.69 121.36 52.7069 121.36H52.7069Z" fill="#3F3D56"/>
<path d="M171.749 219.44C171.749 219.44 39.0876 209.794 48.7357 233.908C58.3838 258.022 171.749 219.44 171.749 219.44Z" fill="#FFFF64"/>
<path d="M205.517 130.217C205.517 130.217 198.281 96.4569 186.221 103.691C174.161 110.925 205.517 130.217 205.517 130.217Z" fill="#FFFF64"/>
<path d="M327.725 154.104C327.725 154.104 360.823 15.0583 345.822 14.5481C330.821 14.038 327.725 154.104 327.725 154.104Z" fill="#FFFF64"/>
<path d="M321.565 184.89L321.294 166.424C321.207 160.493 319.367 20.9481 337.514 2.53506C338.207 1.76034 339.052 1.13573 339.996 0.699745C340.94 0.263759 341.963 0.0256157 343.002 0C344.011 0.00411724 345.005 0.245812 345.902 0.705481C346.8 1.16515 347.577 1.82986 348.17 2.64574C362.134 20.5265 329.781 152.036 326.045 166.973L321.565 184.89ZM343.002 4.82285C342.762 4.82285 342.032 4.82285 340.951 5.92024C328.966 18.081 326.184 98.9802 326.022 146.558C339.306 89.8656 352.846 16.4679 344.368 5.6141C344.227 5.37712 344.027 5.18014 343.788 5.04171C343.549 4.90328 343.278 4.82796 343.002 4.82285Z" fill="#3F3D56"/>
<path d="M480.488 173.623C480.488 173.623 494.96 137.451 509.432 147.097C523.904 156.743 480.488 173.623 480.488 173.623Z" fill="#FFFF64"/>
<path d="M343.002 494.342C343.002 494.342 323.706 636.616 359.886 634.204C396.067 631.793 343.002 494.342 343.002 494.342Z" fill="#FFFF64"/>
<path d="M443.938 461.987C443.938 461.987 425.45 431.181 425.45 409.617C425.45 409.617 393.097 375.731 402.341 366.49C411.585 357.248 431.613 392.674 431.613 392.674C431.613 392.674 394.637 351.087 405.422 344.926C416.207 338.765 451.642 384.973 451.642 384.973L463.967 378.812C463.967 378.812 437.788 314.259 456.264 312.58C464.737 311.81 483.995 374.191 483.995 374.191L504.024 425.02C504.024 425.02 511.727 443.503 508.646 454.285C506.769 460.878 505.226 467.561 504.024 474.309L443.938 461.987Z" fill="#FFB9B9"/>
<path opacity="0.1" d="M491.699 469.688C491.699 469.688 502.483 452.745 498.58 426.874C494.677 401.003 473.211 386.513 473.211 386.513C473.211 386.513 459.345 397.295 473.211 425.02C473.211 425.02 456.264 440.423 470.13 465.067" fill="black"/>
<path d="M497.861 469.688C497.861 469.688 508.646 452.745 504.743 426.874C500.84 401.003 479.374 386.513 479.374 386.513C479.374 386.513 465.508 397.295 479.374 425.02C479.374 425.02 462.426 440.423 476.292 465.067" fill="#FFB9B9"/>
<path opacity="0.1" d="M455.493 384.203L447.02 371.11C447.02 371.11 406.963 364.949 411.585 378.812C416.207 392.674 434.694 386.513 434.694 386.513L445.479 397.295L455.493 384.203Z" fill="black"/>
<path d="M462.426 383.433L450.101 366.49C450.101 366.49 410.044 360.328 414.666 374.191C419.288 388.053 437.776 381.892 437.776 381.892L448.56 392.674L462.426 383.433Z" fill="#FFB9B9"/>
<path d="M748.219 585.978L740.515 647.589L860.686 655.291V581.358L748.219 585.978Z" fill="#FFB9B9"/>
<path d="M1081 931L983.545 736.138C977.723 716.863 959.542 685.472 903.054 665.303L860.686 629.47L829.103 628.336L702.769 609.853C702.769 609.853 605.707 603.692 542.54 642.199L525.593 634.497C525.593 634.497 497.861 535.92 510.187 465.067L439.316 458.906C439.316 458.906 400.8 626.796 419.288 677.625C437.776 728.454 505.565 765.421 505.565 765.421L565.65 825.491L588.76 930.23H949.274L955.01 902.749L983.168 930.23L1081 931Z" fill="#CFCCE0"/>
<path d="M944.74 581.366C831.234 612.008 719.673 614.175 610.47 581.837C597.633 578.036 588.857 566.768 588.857 553.979V235.056C588.857 220.786 599.718 208.613 614.519 206.293C717.535 190.141 826.666 191.392 940.807 206.896C955.889 208.944 967.085 221.257 967.085 235.749V553.304C967.085 566.362 957.945 577.801 944.74 581.366Z" fill="#CFCCE0"/>
<path d="M710.655 363.127C710.655 363.127 684.548 324.98 700.614 314.942C716.68 304.903 740.779 333.011 740.779 333.011C740.779 333.011 770.902 306.911 786.968 316.949C803.034 326.988 770.902 363.127 770.902 363.127C770.902 363.127 795.001 369.15 797.009 385.212C799.018 401.274 807.05 443.437 772.911 445.444C754.621 446.52 744.401 441.257 738.853 436.139C736.834 434.329 734.226 433.314 731.515 433.282C728.803 433.25 726.173 434.203 724.111 435.964C712.534 445.715 691.684 456.955 676.515 429.382C670.491 387.22 710.655 363.127 710.655 363.127Z" fill="#3F3D56"/>
<path d="M903.446 367.143C903.446 367.143 929.553 328.996 913.487 318.957C897.421 308.918 873.322 337.027 873.322 337.027C873.322 337.027 843.199 310.926 827.133 320.965C811.067 331.003 843.199 367.143 843.199 367.143C843.199 367.143 819.1 373.166 817.092 389.228C815.083 405.29 807.051 447.452 841.19 449.46C859.48 450.535 869.7 445.273 875.248 440.154C877.267 438.345 879.875 437.329 882.586 437.297C885.298 437.265 887.928 438.218 889.99 439.979C901.567 449.73 922.417 460.97 937.586 433.398C943.61 391.235 903.446 367.143 903.446 367.143Z" fill="#3F3D56"/>
<path d="M678.96 471.4C678.96 471.4 716.633 501.723 796.964 499.811C877.296 497.899 903.274 494.621 920.445 475.691C937.616 456.762 942.705 478.625 937.373 492.956C932.041 507.287 925.193 531.743 885.174 535.707C858.829 538.317 801.886 538.935 766.051 539.053C738.197 539.284 710.657 533.159 685.527 521.144C685.195 520.983 684.864 520.822 684.534 520.659C676.911 516.895 670.493 511.075 666.005 503.856C661.516 496.638 659.136 488.308 659.134 479.808C659.137 473.054 660.326 469.405 664.724 468.075C672.649 465.678 678.96 471.4 678.96 471.4Z" fill="#3F3D56"/>
<path d="M794.198 610.324C732.8 610.356 671.751 601.097 613.124 582.862C605.872 580.641 599.526 576.148 595.022 570.047C590.519 563.945 588.096 556.558 588.112 548.975V175.355C588.087 166.943 591.065 158.798 596.509 152.385C601.954 145.971 609.508 141.71 617.815 140.366C728.451 122.135 850.959 122.372 981.933 141.069C990.364 142.313 998.07 146.539 1003.65 152.979C1009.23 159.419 1012.32 167.646 1012.35 176.167V548.185C1012.32 555.907 1009.78 563.41 1005.12 569.566C1000.45 575.721 993.915 580.197 986.489 582.319C922.353 600.515 858.947 609.934 798.031 610.312C796.758 610.32 795.473 610.324 794.198 610.324ZM789.93 129.485C732.429 129.294 675.008 133.797 618.24 142.95C610.548 144.194 603.551 148.141 598.508 154.081C593.466 160.021 590.708 167.564 590.731 175.355V548.975C590.716 555.999 592.961 562.842 597.134 568.493C601.306 574.145 607.185 578.305 613.903 580.361C730.954 616.79 856.068 616.601 985.773 579.8L986.131 581.059L985.773 579.8C992.652 577.835 998.707 573.691 1003.03 567.989C1007.35 562.288 1009.7 555.338 1009.73 548.185V176.167C1009.7 168.276 1006.84 160.656 1001.68 154.692C996.507 148.727 989.371 144.813 981.562 143.66C918.099 134.416 854.062 129.68 789.93 129.485V129.485Z" fill="#3F3D56"/>
<path d="M781.886 184.882C753.036 184.882 728.348 183.588 708.134 181.835C644.558 176.322 610.3 165.196 609.961 165.084L610.782 162.598C611.118 162.709 645.17 173.758 708.483 179.238C766.919 184.297 862.945 185.507 988.545 162.553L989.015 165.129C906.5 180.208 836.695 184.882 781.886 184.882Z" fill="#3F3D56"/>
</g>
<defs>
<clipPath id="clip0">
<rect width="1081" height="931" fill="white"/>
</clipPath>
</defs>
</svg>
