<svg width="429" height="245" viewBox="0 0 429 245" fill="none" xmlns="http://www.w3.org/2000/svg">
<g clip-path="url(#clip0)">
<path opacity="0.1" d="M257.895 176.586C266.182 176.113 276.465 170.485 284.46 167.995C293.922 165.057 303.422 162.229 312.96 159.514C346.162 150.054 379.721 141.994 413.636 135.333C416.801 134.71 419.971 134.102 423.146 133.509C418.201 122.809 410.538 113.595 400.924 106.787C401.17 104.444 401.295 102.091 401.299 99.7354C401.299 62.5116 371.587 32.3353 334.924 32.3353C323.636 32.3232 312.538 35.2403 302.711 40.802C276.761 23.7108 242.891 13.3666 205.834 13.3666C153.176 13.3666 106.95 34.2539 80.7562 65.7068L203.861 86.5302L279.364 99.2961C193.29 101.868 106.95 104.425 21.1237 98.3875C9.79418 109.363 2.6234 123.938 0.836835 139.621C-0.949733 155.304 2.75881 171.121 11.3287 184.37C11.3287 185.717 11.3849 187.054 11.4862 188.38C13.6724 189.007 15.7837 189.615 17.6774 190.013C48.0799 196.443 78.6774 201.825 109.47 206.158C86.7787 220.167 59.1449 222.149 32.9699 228.081C45.6449 238.557 62.8574 244.977 81.8249 244.977H364.245C394.826 244.977 419.614 223.662 419.614 197.364C424.203 189.788 427.261 181.382 428.614 172.625C372.026 178.095 314.734 173.346 257.895 176.586Z" fill="#FFFF64"/>
<path opacity="0.1" d="M429 161.425C429.031 150.586 426.457 139.9 421.497 130.266C416.537 120.633 409.335 112.335 400.5 106.073C400.745 103.732 400.87 101.38 400.875 99.0257C400.875 61.8019 371.149 31.6369 334.5 31.6369C323.212 31.6248 312.113 34.5405 302.284 40.0999C276.334 23.0011 242.46 12.6532 205.403 12.6532C145.125 12.6532 93.2403 40.0436 70.2303 79.3212C68.9516 79.2461 67.6653 79.2048 66.3678 79.2048C29.7153 79.2048 -0.00719461 109.381 -0.00719461 146.605C-0.032885 159.753 3.76119 172.625 10.9128 183.652C10.9128 217.144 42.4841 244.294 81.4128 244.294H363.84C394.418 244.294 419.205 222.975 419.205 196.677C425.636 186.048 429.025 173.852 429 161.425Z" fill="#FFFF64"/>
<path d="M350.355 120.131C349.819 119.719 349.191 119.443 348.525 119.327C347.824 119.166 347.108 119.064 346.395 118.952L337.163 117.619C336.231 117.446 335.28 117.395 334.335 117.469C333.861 117.508 333.399 117.641 332.977 117.86C332.555 118.079 332.18 118.38 331.875 118.745C331.6 119.085 331.449 119.509 331.448 119.947C331.499 120.387 331.642 120.812 331.868 121.193C331.957 121.372 332.033 121.556 332.096 121.745C332.185 122.17 332.295 122.59 332.426 123.003C332.467 123.093 332.52 123.176 332.584 123.251C332.585 123.272 332.585 123.294 332.584 123.315C332.483 123.833 332.809 124.374 332.663 124.873C332.535 125.301 332.119 125.56 331.856 125.917C331.681 126.17 331.584 126.469 331.578 126.777C331.571 127.084 331.655 127.387 331.819 127.648C332.1 128.083 332.61 128.38 332.756 128.879C332.948 129.536 332.43 130.171 331.969 130.678C331.12 131.611 330.336 132.601 329.621 133.64C329.42 133.896 329.291 134.2 329.246 134.522C329.205 135.176 329.831 135.75 329.723 136.4C329.636 136.91 329.138 137.222 328.706 137.526C327.113 138.577 325.834 140.267 325.706 142.178C325.297 139.138 324.039 136.274 322.076 133.918C321.54 133.272 320.951 132.623 320.73 131.804C320.648 131.477 320.633 131.128 320.52 130.813C320.145 129.818 318.953 129.39 318.431 128.474C318.056 127.828 318.056 126.998 317.591 126.431C317.126 125.864 316.395 125.737 315.994 125.188C315.793 124.817 315.623 124.43 315.484 124.032C315.316 123.707 315.079 123.423 314.79 123.198C314.735 123.154 314.677 123.113 314.618 123.074C314.68 123.019 314.73 122.95 314.764 122.874C314.798 122.798 314.816 122.715 314.816 122.631C314.816 122.192 314.381 121.903 314.003 121.685C313.515 121.407 313.039 121.107 312.574 120.795C313.081 120.559 313.521 120.199 313.853 119.748C314.269 119.075 314.441 118.28 314.34 117.495C314.314 116.862 314.078 116.255 313.669 115.772C313.433 115.52 313.136 115.34 312.889 115.103C312.248 114.476 312.03 113.549 311.764 112.693C311.411 111.566 310.86 110.384 309.833 109.787C309.338 109.498 308.76 109.362 308.276 109.058C307.793 108.754 307.388 108.18 307.556 107.628C307.669 107.252 308.018 106.993 308.254 106.674C308.536 106.261 308.644 105.754 308.555 105.262C308.466 104.77 308.186 104.333 307.778 104.046C307.5 103.869 307.159 103.715 307.103 103.392C306.885 103.336 306.689 103.219 306.535 103.056C306.381 102.893 306.276 102.689 306.233 102.469C306.148 102.027 306.148 101.574 306.233 101.132C306.33 100.434 306.426 99.7379 306.521 99.0445C306.687 99.1133 306.864 99.1487 307.043 99.1487C307.221 99.1487 307.399 99.1133 307.564 99.0445C307.888 99.5718 308.265 100.065 308.689 100.516C309.831 101.867 310.72 103.412 311.314 105.078C311.528 105.679 311.745 106.351 312.3 106.67C312.491 106.779 312.709 106.835 312.896 106.952C313.128 107.113 313.326 107.317 313.481 107.553C313.931 108.15 314.381 108.743 314.828 109.34L314.85 109.43C314.862 109.483 314.882 109.533 314.91 109.58C314.993 109.674 315.108 109.733 315.233 109.745C316.613 110.065 318.161 110.357 319.358 109.603C320.438 108.927 320.91 107.59 321.825 106.697C322.474 106.062 323.393 105.57 323.576 104.677C323.357 104.609 323.142 104.53 322.931 104.44C323.119 104.252 323.306 104.035 323.561 103.787C323.932 103.424 324.266 103.025 324.559 102.596C324.875 102.068 325.127 101.503 325.309 100.914C326.031 98.8518 326.756 96.788 327.484 94.7229C327.829 93.7467 328.174 92.763 328.609 91.813C329.059 90.7842 329.591 89.7968 330.083 88.7868C331.35 86.16 332.329 83.4029 333 80.564C333.119 80.1767 333.159 79.7693 333.116 79.3663C333.011 78.7167 332.52 78.2061 332.051 77.7443C331.58 77.2333 331.043 76.7876 330.454 76.4189C330.158 76.2347 329.829 76.1114 329.485 76.056C329.141 76.0005 328.79 76.0141 328.451 76.096C327.491 76.3776 326.888 77.3613 326.666 78.3488C326.445 79.3363 326.528 80.3538 326.434 81.3525C326.299 82.7981 325.804 84.1948 325.684 85.6441C325.62 86.4814 325.684 87.33 325.583 88.1672C325.398 89.263 325.017 90.3163 324.458 91.2761C323.241 93.5652 321.595 95.5974 319.609 97.2611C319.38 97.4526 319.144 97.6365 318.919 97.843C318.919 97.6816 318.945 97.5164 318.968 97.3549C318.804 97.3975 318.645 97.454 318.491 97.5239C318.51 97.3343 318.491 97.1428 318.435 96.9607C318.135 96.0633 316.8 95.8343 316.56 94.9219C316.52 94.6963 316.499 94.4677 316.496 94.2386C316.418 93.4388 315.874 92.763 315.686 91.9858C315.514 91.2686 315.645 90.4839 315.311 89.8193C315.027 89.4038 314.692 89.0254 314.314 88.6929C313.863 88.1776 313.538 87.5645 313.365 86.9019C313.316 86.7179 313.271 86.5265 313.219 86.3425C313.276 85.9259 313.229 85.5016 313.084 85.1072C312.743 84.2586 311.861 83.7142 311.543 82.8544C311.295 82.1861 311.404 81.3525 310.935 80.8344C310.686 80.5868 310.381 80.4027 310.046 80.2975C308.33 79.6282 306.529 79.2023 304.695 79.0321C303.668 78.9383 302.535 78.8857 301.8 78.161C300.941 77.32 300.9 75.8069 299.895 75.1573C299.01 74.5828 297.758 75.0071 297.071 75.8144C296.968 75.9331 296.873 76.0585 296.786 76.1898C296.661 75.6866 296.634 75.1638 296.708 74.6504C296.708 74.5228 296.734 74.3913 296.745 74.275C298.438 73.721 299.879 72.5816 300.81 71.061C300.81 71.061 300.81 71.061 300.81 71.0835L300.855 71.1999C300.964 71.474 301.136 71.7368 301.391 71.7668C301.561 71.7648 301.725 71.7052 301.856 71.5979C302.083 71.4405 302.291 71.2592 302.479 71.0572C302.574 70.9521 302.664 70.8432 302.749 70.7305C302.922 70.4961 303.07 70.2444 303.191 69.9796C303.378 69.5811 303.504 69.1573 303.566 68.7218C303.634 68.2862 303.641 67.8394 303.716 67.4039C303.786 67.0668 303.878 66.7344 303.99 66.4089C304.028 66.3 304.065 66.1911 304.099 66.0823C304.133 65.9734 304.181 65.8269 304.219 65.7068C304.454 64.9346 304.58 64.1334 304.594 63.3263C304.594 63.1912 304.594 63.056 304.594 62.9208C304.58 62.3941 304.462 61.8754 304.245 61.3951C304.029 60.9148 303.719 60.4825 303.334 60.1236C302.689 59.5942 301.834 59.3727 301.361 58.6555C301.054 58.1749 300.986 57.5554 300.806 56.9922C300.612 56.3182 300.233 55.7122 299.712 55.243C299.191 54.7738 298.549 54.4602 297.859 54.3376C297.028 54.2464 296.194 54.4761 295.526 54.9797L295.474 55.021C295.102 55.3053 294.787 55.6568 294.544 56.0573C294.048 55.9206 293.595 55.6625 293.224 55.3063C292.849 54.9572 292.56 54.5179 292.181 54.1799C291.827 53.8554 291.393 53.6319 290.923 53.5328C290.454 53.4338 289.966 53.4628 289.511 53.6167C289.043 53.8046 288.626 54.1009 288.294 54.4814C287.962 54.8619 287.725 55.3158 287.603 55.8057C287.396 56.5792 287.434 57.469 287.003 58.1148C286.669 58.618 286.121 58.8658 285.739 59.3238C285.501 59.6139 285.339 59.9583 285.266 60.3263C285.221 60.5322 285.199 60.7426 285.203 60.9534C285.203 61.0472 285.203 61.1411 285.225 61.2312C285.225 61.2312 285.225 61.2613 285.225 61.2763C285.238 61.3792 285.26 61.4808 285.289 61.5804C285.395 61.961 285.586 62.3127 285.848 62.6092C286.095 62.8931 286.404 63.1166 286.751 63.2625C286.893 63.3178 287.039 63.3642 287.186 63.4014L287.633 63.5028L287.79 63.5403C287.252 64.5527 286.953 65.6754 286.916 66.8219C286.88 67.9683 287.107 69.1077 287.58 70.1523C287.58 70.2574 287.554 70.3626 287.543 70.4677C287.482 71.9462 287.547 73.4271 287.738 74.8945C287.79 75.4764 287.82 76.1185 287.464 76.5803C287.302 76.762 287.119 76.9245 286.92 77.0647C287.123 76.8018 287.329 76.5428 287.539 76.2837C287.01 75.7505 286.174 75.683 285.424 75.7355C283.972 75.8441 282.563 76.275 281.299 76.9971C280.459 77.4814 279.596 78.1235 278.636 78.0109C278.07 77.947 277.511 77.6354 276.96 77.7856C276.65 77.9125 276.361 78.0846 276.101 78.2962C275.896 78.4435 275.649 78.52 275.396 78.514C274.808 77.7893 273.896 77.2975 273.191 76.708C272.389 75.9929 271.655 75.2047 270.998 74.3538C269.783 72.8857 268.571 71.4139 267.379 69.9308C266.374 68.6842 265.343 67.3363 265.166 65.7406C265.148 65.5823 265.14 65.4231 265.14 65.2637C265.164 64.5055 265.26 63.7513 265.425 63.0109C265.47 62.8322 265.47 62.6452 265.425 62.4665C265.313 62.091 264.881 61.9521 264.51 61.8695C264.559 61.5804 264.593 61.2838 264.611 61.0022C264.821 57.7732 264.593 54.4916 265.275 51.3301C265.534 50.1136 265.958 48.8821 266.831 47.9997C268.2 46.6143 270.491 46.2801 271.541 44.6393C272.419 43.2726 272.07 41.339 270.968 40.1337C269.865 38.9285 268.166 38.4366 266.55 38.4967C266.097 38.4811 265.649 38.6014 265.264 38.8421C264.904 39.162 264.635 39.5713 264.484 40.0286L262.875 43.9447C262.409 44.9643 262.015 46.0157 261.698 47.0911C261.248 48.7357 261.146 50.4703 260.79 52.1299C260.79 53.4065 259.969 54.9985 259.519 56.1737C259.016 57.4953 258.473 58.8019 258.019 60.1499C257.906 60.4878 257.513 61.4903 257.269 62.4027C257.177 62.4564 257.091 62.5206 257.014 62.5942C256.818 62.8454 256.64 63.1101 256.481 63.3864C256.14 63.837 255.585 64.0773 255.21 64.5128C254.835 64.9483 254.756 65.7481 255.278 65.9659C255.383 66.0015 255.493 66.0254 255.604 66.0372C255.672 66.043 255.74 66.0543 255.806 66.071C256.369 66.2287 256.59 66.9383 256.508 67.524C256.425 68.1098 256.133 68.6505 256.084 69.2362C255.983 70.2725 256.59 71.2374 257.175 72.1085C257.781 73.0528 258.45 73.9547 259.178 74.8081C259.706 75.4014 260.303 75.9345 260.835 76.5052C262.864 78.5928 264.476 81.0334 266.299 83.3012C266.954 84.1571 267.7 84.9401 268.523 85.6366C269.06 86.0573 269.622 86.4448 270.206 86.7968L273.341 88.7868C273.697 89.0476 274.099 89.2376 274.526 89.3462C274.666 89.365 274.807 89.365 274.946 89.3462C274.965 89.4401 274.98 89.5302 275.003 89.6241C275.246 90.6078 275.783 91.5014 275.843 92.5039C275.903 93.5064 275.813 94.5314 275.884 95.5452C275.951 96.4801 276.158 97.4225 276.21 98.3424C276.315 100.115 275.88 101.864 275.46 103.599C274.826 106.137 274.444 108.728 273.21 111.029C272.865 111.664 272.46 112.31 272.46 113.034C272.46 113.121 272.46 113.211 272.483 113.297L271.92 113.616C271.755 113.71 271.59 113.804 271.44 113.902C270.728 114.367 269.966 114.882 269.674 115.685C269.438 116.335 269.546 117.078 269.261 117.709C269.248 117.737 269.233 117.765 269.216 117.792C268.916 118.377 268.32 118.813 268.185 119.455C268.084 119.947 268.279 120.469 268.185 120.957C268.185 120.957 268.185 120.957 268.185 120.976C268.1 121.221 268.032 121.472 267.983 121.727C267.979 121.81 267.986 121.893 268.005 121.974C268.077 122.259 268.234 122.514 268.455 122.706C268.59 122.836 268.737 122.953 268.894 123.056C269.054 123.161 269.219 123.258 269.389 123.349L269.486 123.401C269.629 123.476 269.771 123.548 269.918 123.615L270.015 123.656C270.184 123.732 270.356 123.799 270.529 123.859L270.649 123.897C270.784 123.942 270.923 123.983 271.061 124.017L271.155 124.047L271.241 124.066L271.616 124.145L271.755 124.171C271.92 124.198 272.089 124.221 272.261 124.238H272.411C272.539 124.238 272.663 124.257 272.786 124.261H272.963C273.094 124.261 273.221 124.261 273.338 124.261H273.473C273.649 124.261 273.825 124.235 274.001 124.212H274.058C274.215 124.19 274.373 124.163 274.53 124.13L274.65 124.103C274.796 124.069 274.943 124.036 275.089 123.991L275.168 123.968C275.344 123.915 275.52 123.859 275.693 123.792C276.289 123.546 276.868 123.259 277.425 122.932C277.8 122.725 278.175 122.515 278.55 122.324C278.828 122.183 279.114 122.058 279.405 121.948C280.114 121.645 280.886 121.516 281.655 121.573C282.035 121.624 282.41 121.701 282.78 121.802C282.78 121.843 282.78 121.884 282.78 121.926C283.085 123.728 283.386 125.53 283.684 127.332C284.175 126.978 284.694 126.666 285.236 126.397C285.135 126.669 285.068 126.953 285.038 127.242C285.015 127.466 285.015 127.691 285.038 127.914C285.071 128.271 285.146 128.665 284.933 128.947C284.801 129.119 284.558 129.217 284.486 129.412C284.434 129.612 284.422 129.82 284.449 130.024C284.433 130.258 284.335 130.478 284.171 130.645C284.007 130.811 283.789 130.914 283.556 130.933C283.664 131.235 283.666 131.565 283.563 131.869C283.461 132.173 283.259 132.433 282.99 132.608C282.833 132.683 282.687 132.779 282.555 132.893C282.427 133.059 282.341 133.253 282.304 133.46C281.808 135.319 280.789 136.997 279.368 138.292C278.834 138.712 278.348 139.187 277.916 139.711C277.65 140.117 277.429 140.552 277.26 141.007C276.26 143.455 275.245 145.904 274.215 148.355C273.645 149.725 273.09 151.118 272.91 152.594C272.46 156.641 268.86 160.073 269.535 164.091C269.671 165.094 270.076 166.042 270.705 166.835C271.455 167.74 272.58 168.258 273.705 168.679C276.596 169.805 279.645 170.421 282.683 171.04L287.453 172.02C288.389 172.236 289.338 172.386 290.295 172.471C291.446 172.55 292.628 172.441 293.749 172.734C294.443 172.914 295.106 173.248 295.823 173.286C296.438 173.32 297.195 173.188 297.559 173.691C297.923 174.194 297.641 174.859 297.986 175.306C298.541 176.015 299.895 175.306 300.499 175.974C300.664 176.231 300.79 176.51 300.874 176.804C300.966 176.985 301.093 177.146 301.249 177.277C301.286 177.489 301.301 177.704 301.294 177.919C301.216 178.791 301.034 179.65 300.754 180.48C300.304 182.004 299.855 183.53 299.408 185.057C299.237 185.596 299.111 186.148 299.033 186.709C299.004 186.981 299.004 187.255 299.033 187.527C299.111 188.357 299.588 189.213 300.379 189.483C300.993 189.646 301.645 189.565 302.201 189.258C302.738 188.978 303.241 188.638 303.701 188.244C304.532 187.615 305.261 186.863 305.865 186.014C307.74 183.206 307.133 179.406 308.449 176.301C309.323 174.228 311.025 172.546 311.591 170.361C311.724 169.945 311.739 169.501 311.636 169.077C311.4 168.326 310.601 167.898 309.855 167.627H309.821C309.208 167.409 308.582 167.23 307.946 167.09C307.789 167.057 307.628 167.03 307.466 167.004C307.109 166.713 306.826 166.343 306.638 165.923C306.608 165.699 306.549 165.481 306.461 165.273C306.402 165.184 306.322 165.11 306.228 165.058C306.134 165.005 306.029 164.976 305.921 164.973C305.546 164.935 305.044 165.07 304.635 165.04C303.799 164.98 303.244 164.158 302.494 163.779C301.744 163.4 300.93 163.494 300.131 163.55C299.846 163.589 299.555 163.571 299.276 163.497C298.943 163.344 298.639 163.134 298.376 162.878C297.915 162.518 297.376 162.271 296.803 162.156C296.229 162.04 295.637 162.06 295.073 162.213C294.714 162.358 294.334 162.444 293.948 162.468C293.216 162.427 292.699 161.774 292.159 161.278C290.681 159.923 288.578 159.566 286.785 158.676C286.511 158.574 286.282 158.377 286.14 158.121C285.934 157.61 286.399 157.099 286.819 156.75L289.901 154.186C293.276 151.377 297.495 149.263 299.063 145.144C299.226 144.592 299.479 144.071 299.813 143.601C299.934 143.458 300.074 143.332 300.229 143.226C300.911 142.783 301.737 142.622 302.535 142.775C303.508 142.993 304.429 143.396 305.25 143.962C306.593 144.775 307.899 145.651 309.169 146.59C310.427 147.49 311.623 148.474 312.75 149.534C314.719 151.411 316.358 153.637 318.191 155.661C320.025 157.685 322.121 159.574 324.668 160.542C327.214 161.511 330.293 161.47 332.479 159.844C335.003 157.967 335.813 154.61 336.45 151.531C337.856 150.172 338.28 148.103 338.966 146.275C339.398 145.114 339.949 144.022 340.414 142.865C340.969 141.506 341.404 140.102 341.839 138.701C342.332 137.295 342.666 135.838 342.836 134.357C343.016 132.018 342.39 129.529 343.046 127.332C343.913 127.141 344.7 126.653 345.551 126.367C346.819 125.951 348.176 126.018 349.519 126.026H349.605C350.068 126.075 350.533 125.965 350.925 125.714C351.375 125.339 351.446 124.696 351.469 124.114C351.521 122.676 351.431 121.062 350.355 120.131ZM296.021 56.0836C295.711 56.1604 295.39 56.1832 295.073 56.1511L296.021 56.0836Z" fill="url(#paint0_linear)"/>
<path d="M297.499 79.8356C297.045 80.2218 296.512 80.5049 295.939 80.6654L293.28 81.6191C291.836 82.1373 290.329 82.6592 288.806 82.4714C287.955 82.3663 284.306 81.8294 283.755 81.1648C282.915 80.136 285.859 78.6229 286.864 77.7555C287.091 77.5916 287.302 77.4054 287.494 77.1999C287.869 76.7418 287.82 76.0997 287.767 75.5215C287.577 74.0567 287.511 72.5782 287.572 71.1023C287.602 70.7504 287.652 70.4006 287.722 70.0547C288.097 68.3276 289.702 68.9583 290.97 69.4164C292.496 69.9127 293.971 70.5526 295.376 71.3275C295.804 71.5485 296.176 71.8644 296.464 72.2512C297.019 73.0923 296.797 74.1961 296.707 75.2549C296.629 76.0772 296.632 76.8657 297.146 77.4627C297.405 77.6909 297.642 77.9423 297.855 78.2136C297.975 78.4869 298.005 78.7913 297.941 79.0828C297.877 79.3744 297.722 79.638 297.499 79.8356Z" fill="#BE6F72"/>
<path d="M260.771 52.7757C261.146 51.1124 261.229 49.3965 261.679 47.7482C261.996 46.6765 262.39 45.6288 262.856 44.613L264.51 40.7495C264.661 40.2933 264.93 39.8852 265.29 39.5667C265.675 39.3277 266.123 39.2075 266.576 39.2213C268.192 39.1612 269.891 39.6644 270.994 40.8546C272.096 42.0448 272.445 43.971 271.567 45.3339C270.517 46.9747 268.226 47.3051 266.857 48.6868C265.984 49.5692 265.56 50.797 265.301 52.0097C264.619 55.1637 264.847 58.434 264.637 61.6555C264.57 62.658 264.375 63.8032 263.512 64.3213C262.991 64.5771 262.411 64.6898 261.832 64.648L259.372 64.6893C258.96 64.6893 257.464 64.9483 257.19 64.6367C256.71 64.0923 257.805 61.3814 258.004 60.7769C258.446 59.4365 258.99 58.1298 259.504 56.812C259.95 55.6367 260.771 54.0485 260.771 52.7757Z" fill="#BE6F72"/>
<path d="M311.565 170.733C310.999 172.903 309.296 174.592 308.422 176.661C307.106 179.759 307.699 183.547 305.839 186.348C305.235 187.199 304.506 187.952 303.675 188.582C303.214 188.974 302.711 189.313 302.175 189.592C301.619 189.899 300.966 189.98 300.352 189.818C299.561 189.547 299.085 188.691 299.006 187.865C298.978 187.594 298.978 187.321 299.006 187.05C299.085 186.491 299.21 185.94 299.381 185.402C299.831 183.883 300.28 182.361 300.727 180.836C301.007 180.01 301.189 179.153 301.267 178.283C301.316 177.337 300.716 176.105 300.971 175.223C301.087 174.825 301.522 174.472 301.721 174.138C302.003 173.657 302.22 173.141 302.366 172.602C302.673 171.555 302.883 170.436 303.528 169.554C303.949 169.03 304.442 168.569 304.991 168.183C305.396 167.827 305.872 167.56 306.386 167.398C306.885 167.31 307.397 167.335 307.886 167.47C308.522 167.606 309.148 167.784 309.761 168.003H309.795C310.545 168.273 311.34 168.69 311.576 169.448C311.691 169.869 311.687 170.314 311.565 170.733Z" fill="#3F3D56"/>
<path d="M351.465 124.573C351.442 125.155 351.371 125.804 350.921 126.168C350.529 126.419 350.064 126.529 349.601 126.48H349.5C348.161 126.48 346.8 126.405 345.532 126.822C344.569 127.141 343.684 127.726 342.679 127.843C341.295 128.001 339.994 127.242 338.767 126.581C337.613 125.959 336.427 125.395 335.216 124.892C334.421 124.565 332.797 124.355 332.415 123.484C332.284 123.072 332.174 122.653 332.085 122.23C332.022 122.04 331.945 121.856 331.856 121.678C331.631 121.297 331.488 120.874 331.436 120.435C331.438 119.997 331.588 119.573 331.864 119.233C332.169 118.871 332.544 118.572 332.965 118.355C333.387 118.138 333.847 118.006 334.32 117.968C335.265 117.895 336.215 117.945 337.147 118.118L346.38 119.447C347.092 119.549 347.809 119.65 348.51 119.823C349.176 119.939 349.804 120.214 350.34 120.626C351.431 121.543 351.521 123.153 351.465 124.573Z" fill="#3F3D56"/>
<path d="M343.35 126.976C342.225 129.352 343.035 132.165 342.833 134.793C342.663 136.27 342.328 137.723 341.835 139.126C341.4 140.522 340.965 141.923 340.41 143.278C339.945 144.405 339.394 145.531 338.963 146.68C338.276 148.512 337.838 150.574 336.446 151.937C335.809 155.008 334.999 158.365 332.475 160.227C330.281 161.849 327.225 161.905 324.664 160.925C322.103 159.945 320.021 158.068 318.188 156.044C316.354 154.021 314.715 151.816 312.746 149.932C311.618 148.871 310.419 147.889 309.158 146.992C307.888 146.068 306.581 145.2 305.239 144.386C304.417 143.823 303.496 143.421 302.524 143.203C301.726 143.05 300.9 143.211 300.218 143.654C300.063 143.76 299.923 143.886 299.801 144.029C299.468 144.497 299.214 145.017 299.051 145.569C297.476 149.676 293.25 151.786 289.875 154.587L286.793 157.144C286.373 157.494 285.908 158.004 286.114 158.511C286.256 158.767 286.485 158.965 286.759 159.067C288.551 159.953 290.655 160.31 292.133 161.661C292.673 162.157 293.19 162.81 293.921 162.848C294.307 162.825 294.687 162.74 295.046 162.596C295.611 162.443 296.203 162.423 296.776 162.538C297.349 162.653 297.888 162.899 298.35 163.257C298.613 163.513 298.917 163.723 299.25 163.877C299.529 163.95 299.819 163.968 300.105 163.929C300.904 163.873 301.751 163.801 302.468 164.158C303.184 164.515 303.773 165.356 304.609 165.416C305.018 165.446 305.505 165.311 305.895 165.348C306.003 165.352 306.108 165.381 306.201 165.433C306.295 165.485 306.375 165.559 306.435 165.649C306.523 165.855 306.582 166.072 306.611 166.295C306.765 166.824 307.283 167.147 307.62 167.582C308.138 168.251 308.213 169.159 308.16 170.004C307.99 172.646 306.814 175.121 304.875 176.92C304.325 177.484 303.622 177.875 302.854 178.047C302.469 178.127 302.069 178.085 301.709 177.925C301.35 177.765 301.05 177.497 300.851 177.157C300.768 176.864 300.641 176.586 300.476 176.331C299.873 175.666 298.519 176.372 297.964 175.662C297.619 175.219 297.866 174.51 297.536 174.052C297.206 173.594 296.411 173.676 295.8 173.65C295.084 173.612 294.42 173.274 293.726 173.098C292.601 172.805 291.424 172.914 290.273 172.835C289.316 172.751 288.366 172.6 287.43 172.385L282.66 171.408C279.623 170.789 276.574 170.162 273.683 169.054C272.576 168.634 271.463 168.116 270.683 167.214C270.054 166.423 269.65 165.476 269.513 164.473C268.834 160.467 272.434 157.043 272.888 153.007C273.049 151.535 273.638 150.146 274.193 148.779C275.21 146.336 276.225 143.892 277.238 141.446C277.401 140.991 277.615 140.555 277.875 140.147C278.307 139.624 278.793 139.15 279.326 138.731C280.747 137.44 281.767 135.767 282.263 133.91C282.299 133.704 282.386 133.509 282.514 133.343C282.647 133.232 282.793 133.137 282.949 133.062C283.217 132.887 283.418 132.628 283.521 132.325C283.624 132.022 283.622 131.693 283.515 131.391C283.748 131.372 283.966 131.269 284.13 131.103C284.294 130.936 284.392 130.716 284.408 130.482C284.38 130.279 284.393 130.073 284.445 129.874C284.535 129.679 284.76 129.581 284.891 129.409C285.105 129.127 285.03 128.733 284.996 128.38C284.974 128.156 284.974 127.931 284.996 127.708C285.078 126.913 285.434 126.171 286.001 125.609C286.898 124.727 288.173 124.956 289.41 124.745C290.645 124.479 291.85 124.092 293.01 123.593C296.264 122.309 299.69 121.516 303.176 121.238C306.68 120.963 310.199 121.524 313.444 122.875C313.916 123.067 314.361 123.319 314.768 123.626C315.056 123.849 315.293 124.132 315.461 124.456C315.6 124.854 315.77 125.239 315.971 125.609C316.373 126.157 317.13 126.334 317.569 126.852C318.008 127.37 318.045 128.245 318.409 128.887C318.93 129.803 320.138 130.227 320.498 131.222C320.61 131.538 320.625 131.883 320.708 132.21C320.91 133.028 321.518 133.674 322.054 134.32C324.02 136.674 325.278 139.538 325.684 142.58C325.804 140.676 327.083 138.991 328.684 137.939C329.115 137.658 329.614 137.346 329.7 136.835C329.809 136.19 329.183 135.615 329.224 134.958C329.269 134.637 329.399 134.334 329.599 134.079C330.314 133.042 331.098 132.055 331.946 131.124C332.408 130.618 332.925 129.998 332.734 129.33C332.588 128.83 332.078 128.538 331.796 128.102C331.632 127.842 331.548 127.54 331.555 127.233C331.562 126.926 331.659 126.627 331.834 126.375C332.096 126.018 332.513 125.759 332.64 125.335C332.786 124.835 332.46 124.295 332.561 123.78C332.698 123.368 332.971 123.015 333.334 122.778C333.831 122.324 334.397 121.952 335.01 121.674C336 121.298 337.103 121.437 338.153 121.584C339.908 121.828 341.876 122.203 342.866 123.675C343.5 124.595 343.823 125.992 343.35 126.976Z" fill="#65617D"/>
<path opacity="0.1" d="M351.465 124.573C351.443 125.155 351.372 125.804 350.922 126.168C350.53 126.419 350.064 126.529 349.602 126.48H349.5C349.654 125.699 350.603 125.252 350.768 124.46C350.796 124.217 350.774 123.97 350.703 123.736C350.632 123.501 350.514 123.284 350.355 123.097C349.553 122.012 348.263 121.411 346.98 120.972C343.357 119.728 339.476 119.437 335.708 120.127C334.683 120.294 333.686 120.601 332.745 121.039C332.433 121.235 332.133 121.448 331.845 121.678C331.62 121.297 331.477 120.874 331.425 120.435C331.427 119.997 331.578 119.573 331.853 119.233C332.159 118.871 332.533 118.572 332.955 118.355C333.376 118.138 333.837 118.006 334.309 117.968C335.254 117.895 336.205 117.945 337.137 118.118L346.369 119.447C347.082 119.549 347.798 119.65 348.499 119.823C349.165 119.939 349.793 120.214 350.329 120.626C351.432 121.543 351.522 123.153 351.465 124.573Z" fill="black"/>
<path opacity="0.1" d="M311.565 170.733C310.999 172.903 309.296 174.592 308.422 176.661C307.106 179.759 307.699 183.547 305.839 186.348C305.235 187.199 304.505 187.952 303.675 188.582C303.214 188.974 302.711 189.313 302.175 189.592C301.619 189.899 300.966 189.98 300.352 189.818C299.561 189.547 299.085 188.691 299.006 187.865C298.978 187.594 298.978 187.321 299.006 187.05L299.028 187.11C299.355 187.899 299.887 188.725 300.727 188.864C301.043 188.887 301.359 188.844 301.657 188.739C301.955 188.633 302.228 188.468 302.46 188.252C303.697 187.257 304.417 185.774 305.103 184.343C305.641 183.312 306.065 182.225 306.371 181.103C306.521 180.465 306.592 179.811 306.746 179.173C307.458 176.072 309.885 173.541 310.421 170.398C310.465 170.182 310.475 169.961 310.451 169.741C310.38 169.455 310.272 169.18 310.129 168.923C309.998 168.632 309.903 168.327 309.844 168.014C310.594 168.284 311.389 168.701 311.625 169.46C311.722 169.881 311.701 170.322 311.565 170.733Z" fill="black"/>
<path opacity="0.1" d="M305.902 165.348C305.555 166.257 304.971 167.056 304.211 167.661C303.144 168.476 301.894 169.017 300.57 169.238C299.954 169.396 299.307 169.388 298.695 169.216C297.862 168.927 297.262 168.146 296.411 167.92C295.804 167.755 295.151 167.902 294.536 167.811C293.43 167.657 292.571 166.813 291.679 166.137C288.945 164.079 285.356 163.415 282.622 161.357C282.501 161.282 282.4 161.178 282.33 161.053C282.278 160.918 282.258 160.773 282.274 160.629C282.284 159.381 282.564 158.15 283.095 157.02C283.53 156.233 284.048 155.494 284.64 154.817C287.089 151.813 289.549 148.786 292.481 146.252C293.711 145.19 295.054 144.198 296.606 143.718C297.469 143.451 299.171 143.2 300.221 143.65C300.066 143.756 299.926 143.882 299.805 144.026C299.471 144.493 299.218 145.014 299.055 145.565C297.476 149.676 293.25 151.786 289.875 154.587L286.792 157.144C286.372 157.494 285.907 158.004 286.114 158.511C286.256 158.767 286.484 158.965 286.759 159.067C288.551 159.953 290.655 160.31 292.132 161.661C292.672 162.157 293.19 162.81 293.921 162.848C294.307 162.825 294.687 162.74 295.046 162.596C295.61 162.443 296.202 162.423 296.776 162.538C297.349 162.653 297.888 162.899 298.35 163.257C298.612 163.513 298.917 163.723 299.25 163.877C299.529 163.95 299.819 163.968 300.105 163.929C300.904 163.873 301.751 163.801 302.467 164.158C303.184 164.515 303.772 165.356 304.609 165.416C305.025 165.446 305.512 165.303 305.902 165.348Z" fill="black"/>
<path d="M271.414 114.39C270.701 114.848 269.944 115.366 269.651 116.162C269.411 116.812 269.524 117.555 269.235 118.186C268.946 118.817 268.298 119.256 268.155 119.932C268.054 120.424 268.253 120.942 268.155 121.434C268.07 121.689 268.001 121.95 267.949 122.215C267.911 122.774 268.391 123.228 268.86 123.54C269.858 124.19 270.994 124.596 272.178 124.727C273.361 124.857 274.559 124.708 275.674 124.291C276.675 123.916 277.579 123.304 278.539 122.823C279.475 122.283 280.546 122.023 281.625 122.072C282.244 122.14 282.836 122.365 283.455 122.447C283.761 122.508 284.076 122.493 284.375 122.404C284.674 122.315 284.946 122.155 285.169 121.937C285.36 121.673 285.488 121.368 285.544 121.047C286.065 118.986 285.829 116.8 285.334 114.728C284.839 112.655 284.089 110.662 283.56 108.6C283.185 107.072 282.896 105.506 282.27 104.061C281.644 102.615 280.59 101.271 279.116 100.719C279 100.662 278.868 100.645 278.741 100.67C278.647 100.71 278.563 100.772 278.498 100.851C277.332 102.088 276.453 103.567 275.925 105.183C275.336 106.982 275.175 108.889 274.635 110.695C274.403 111.446 274.103 112.452 273.51 113.027C272.918 113.601 272.085 113.958 271.414 114.39Z" fill="#3F3D56"/>
<path opacity="0.1" d="M285.555 121.036C285.492 121.358 285.357 121.662 285.161 121.926C284.939 122.144 284.666 122.305 284.367 122.393C284.069 122.481 283.753 122.495 283.447 122.432C282.832 122.357 282.24 122.128 281.621 122.057C280.542 122.007 279.471 122.267 278.535 122.808C277.575 123.288 276.66 123.885 275.666 124.272C274.212 124.824 272.624 124.915 271.117 124.531C270.317 124.33 269.556 123.995 268.867 123.54C268.395 123.232 267.919 122.789 267.956 122.215C268.009 121.951 268.078 121.692 268.162 121.437C268.26 120.946 268.065 120.427 268.162 119.936C268.305 119.26 268.957 118.809 269.242 118.186C269.527 117.563 269.419 116.815 269.655 116.166C269.947 115.366 270.709 114.852 271.421 114.39C272.134 113.928 272.981 113.575 273.551 113.016C273.625 112.929 273.691 112.836 273.75 112.738C274.161 112.103 274.463 111.404 274.642 110.669C275.194 108.859 275.344 106.956 275.929 105.153C276.459 103.538 277.339 102.06 278.505 100.824C278.567 100.744 278.65 100.681 278.745 100.644C278.871 100.618 279.003 100.634 279.12 100.689C280.59 101.245 281.644 102.589 282.274 104.034C282.904 105.48 283.17 107.038 283.564 108.57C284.089 110.631 284.842 112.633 285.337 114.702C285.832 116.77 286.076 118.971 285.555 121.036Z" fill="black"/>
<path opacity="0.1" d="M296.708 75.2437C294.944 75.8046 293.036 75.6932 291.35 74.9308C289.664 74.1684 288.318 72.8089 287.573 71.1135C287.602 70.7617 287.652 70.4119 287.723 70.066C288.098 68.3388 289.703 68.9696 290.97 69.4277C292.496 69.9239 293.971 70.5638 295.376 71.3388C295.804 71.5597 296.176 71.8757 296.464 72.2625C297.019 73.0922 296.798 74.1961 296.708 75.2437Z" fill="black"/>
<path d="M294.442 75.2212C298.585 75.2212 301.942 71.8591 301.942 67.7118C301.942 63.5645 298.585 60.2025 294.442 60.2025C290.3 60.2025 286.942 63.5645 286.942 67.7118C286.942 71.8591 290.3 75.2212 294.442 75.2212Z" fill="#BE6F72"/>
<path opacity="0.1" d="M314.794 123.829C314.794 124.452 313.95 124.651 313.324 124.618C311.074 124.486 308.872 123.867 306.645 124.054C303.829 124.31 301.241 125.868 298.418 126.011C297.33 126.067 296.224 125.905 295.151 126.104C293.764 126.364 292.526 127.208 291.112 127.328C289.886 127.434 288.675 126.972 287.449 127.021C286.591 127.072 285.756 127.31 285 127.719C285.082 126.924 285.437 126.182 286.005 125.62C286.901 124.738 288.176 124.967 289.414 124.757C290.648 124.49 291.854 124.104 293.014 123.604C296.268 122.32 299.694 121.527 303.18 121.25C306.682 120.971 310.199 121.528 313.444 122.875C313.916 123.067 314.361 123.319 314.767 123.626C314.788 123.692 314.797 123.761 314.794 123.829Z" fill="black"/>
<path d="M290.974 81.4238L287.936 80.2974L286.654 79.8244C286.131 79.6051 285.581 79.4585 285.019 79.3888C283.549 79.2762 282.165 80.2561 281.381 81.5065C280.598 82.7568 280.301 84.2474 280.05 85.7004C279.705 87.6879 279.413 89.6829 279.173 91.6854C278.914 93.4937 278.783 95.3179 278.779 97.1447C278.865 101.793 279.848 106.377 280.928 110.902C281.457 112.908 281.856 114.946 282.124 117.003C282.214 117.852 282.255 118.704 282.345 119.556C282.443 120.514 282.6 121.46 282.758 122.41L283.661 127.805C284.786 127.006 286.065 126.303 287.449 126.262C288.675 126.217 289.89 126.675 291.113 126.57C292.519 126.454 293.764 125.609 295.151 125.35C296.224 125.151 297.33 125.308 298.421 125.256C301.241 125.113 303.833 123.551 306.645 123.3C308.876 123.097 311.093 123.728 313.328 123.859C313.95 123.897 314.794 123.698 314.794 123.071C314.794 122.635 314.359 122.346 313.98 122.128C312.195 121.052 310.496 119.838 308.899 118.497C307.421 117.326 305.921 116.125 304.905 114.54C302.456 110.729 303.296 105.574 301.208 101.553C299.509 98.2861 301.208 94.0058 301.208 90.3224C301.208 88.4864 301.208 86.6278 300.776 84.8443C300.507 83.8468 300.171 82.8685 299.771 81.9157L298.313 78.2174C298.282 78.1093 298.223 78.0118 298.14 77.9358C298.042 77.8681 297.925 77.8327 297.806 77.8344C296.93 77.7818 296.066 78.059 295.384 78.6116C294.698 79.171 294.259 79.9745 293.584 80.5565C292.845 81.1986 291.893 81.7618 290.974 81.4238Z" fill="#E3E8F4"/>
<path d="M295.875 79.2912C296.115 78.2625 296.374 77.1924 297.06 76.3889C297.746 75.5854 298.999 75.1611 299.884 75.7356C300.889 76.3889 300.93 77.8982 301.789 78.7393C302.539 79.4602 303.664 79.5165 304.684 79.6104C306.518 79.7775 308.319 80.2022 310.035 80.8719C310.37 80.9758 310.674 81.1587 310.924 81.4051C311.392 81.9383 311.299 82.7568 311.531 83.4214C311.85 84.2774 312.731 84.8219 313.072 85.6742C313.447 86.6204 313.072 87.6792 312.757 88.6516C312.191 90.3976 311.835 92.2111 311.284 93.9645C310.732 95.7179 309.949 97.4451 308.659 98.7667C308.089 99.3525 307.241 99.8931 306.491 99.5439L306.202 101.628C306.118 102.068 306.118 102.52 306.202 102.961C306.246 103.181 306.351 103.385 306.505 103.548C306.659 103.711 306.855 103.828 307.072 103.884C307.129 104.207 307.47 104.361 307.747 104.538C307.952 104.678 308.127 104.857 308.262 105.066C308.397 105.274 308.49 105.508 308.534 105.752C308.578 105.997 308.574 106.248 308.52 106.49C308.467 106.733 308.366 106.963 308.224 107.166C307.987 107.485 307.639 107.737 307.526 108.116C307.357 108.664 307.759 109.242 308.246 109.543C308.734 109.843 309.307 109.982 309.802 110.271C310.83 110.864 311.381 112.032 311.734 113.166C311.996 114.022 312.214 114.949 312.859 115.573C313.106 115.809 313.402 115.989 313.639 116.237C314.048 116.721 314.284 117.327 314.31 117.961C314.413 118.745 314.24 119.542 313.822 120.213C313.072 121.287 311.674 121.606 310.447 122.091C308.456 122.909 306.817 124.374 305.062 125.62C304.348 126.197 303.505 126.593 302.606 126.777C301.391 126.938 300.195 126.401 298.972 126.352C298.241 126.359 297.513 126.455 296.805 126.638L294.555 127.126C294.675 125.38 293.715 123.63 293.179 121.967C292.166 118.835 291.979 115.486 292.219 112.205C292.459 108.923 293.126 105.687 293.786 102.465C294.247 100.212 294.202 97.8581 294.911 95.6691C295.575 93.5627 296.524 91.539 296.872 89.3463C297.442 85.7981 295.072 82.7906 295.875 79.2912Z" fill="#3F3D56"/>
<path d="M312.934 86.2336C313.141 86.6151 313.286 87.027 313.365 87.4539C313.538 88.1153 313.863 88.7272 314.314 89.2411C314.691 89.5743 315.026 89.9526 315.311 90.3675C315.656 91.0208 315.525 91.8168 315.686 92.5302C315.874 93.3074 316.417 93.9833 316.496 94.783C316.498 95.0122 316.52 95.2407 316.56 95.4664C316.804 96.375 318.139 96.5928 318.435 97.5014C318.634 98.0909 318.292 98.7329 318.356 99.3525C318.403 99.5441 318.414 99.7425 318.39 99.9382C318.305 100.159 318.156 100.35 317.962 100.486C316.721 101.673 315.862 103.204 315.495 104.883C315.134 106.553 314.944 108.255 314.929 109.963L313.462 108.022C313.307 107.787 313.109 107.583 312.877 107.421C312.69 107.309 312.472 107.252 312.281 107.14C311.726 106.824 311.509 106.156 311.295 105.555C310.701 103.892 309.812 102.351 308.67 101.005C308.074 100.302 307.38 99.5965 307.249 98.6841C307.209 98.2651 307.232 97.8425 307.316 97.4301C307.691 94.9708 308.092 92.4514 309.289 90.2699C309.847 89.2486 310.571 88.325 311.107 87.2887C311.467 86.6016 311.974 84.8143 312.934 86.2336Z" fill="#3F3D56"/>
<path d="M275.94 88.5953C275.947 88.9114 275.866 89.2232 275.707 89.4964C275.564 89.6627 275.377 89.7859 275.168 89.8522C274.959 89.9185 274.735 89.9253 274.522 89.8719C274.095 89.7645 273.693 89.5759 273.337 89.3162C272.292 88.6553 271.247 87.9933 270.202 87.3299C269.619 86.9779 269.057 86.5917 268.519 86.1735C267.696 85.4783 266.951 84.6966 266.295 83.8418C264.472 81.589 262.86 79.1447 260.831 77.0834C260.28 76.5202 259.706 75.9796 259.174 75.3901C258.446 74.538 257.777 73.6373 257.171 72.6942C256.586 71.8269 255.979 70.8657 256.08 69.8294C256.14 69.2437 256.421 68.703 256.504 68.121C256.586 67.5391 256.365 66.8294 255.802 66.6717C255.736 66.655 255.668 66.6437 255.6 66.6379C255.489 66.6261 255.379 66.6022 255.274 66.5666C254.752 66.3488 254.831 65.5416 255.206 65.1173C255.581 64.693 256.136 64.4565 256.477 63.9909C256.636 63.7146 256.814 63.4499 257.01 63.1986C257.261 62.9831 257.561 62.8323 257.884 62.7594C260.047 62.1211 262.335 62.0346 264.54 62.5078C264.915 62.5904 265.342 62.7406 265.455 63.1048C265.5 63.2822 265.5 63.468 265.455 63.6454C265.29 64.3858 265.194 65.14 265.17 65.8983C265.169 66.0563 265.178 66.2143 265.196 66.3713C265.372 67.9633 266.404 69.3113 267.409 70.554C268.601 72.0334 269.812 73.5015 271.027 74.9658C271.684 75.8144 272.419 76.5999 273.221 77.3125C273.971 77.9357 274.942 78.4389 275.527 79.2386C276.004 79.8844 275.85 80.7668 275.902 81.544C276.077 83.8908 276.089 86.2468 275.94 88.5953Z" fill="#3F3D56"/>
<path d="M323.565 104.26C323.935 103.899 324.27 103.503 324.562 103.077C324.878 102.549 325.129 101.986 325.312 101.399L327.487 95.2223C327.832 94.2461 328.177 93.2661 328.612 92.3162C329.062 91.2911 329.595 90.3037 330.086 89.3124C331.35 86.7039 332.327 83.9657 333 81.146C333.118 80.7586 333.158 80.3513 333.116 79.9483C333.011 79.2987 332.52 78.7918 332.051 78.33C331.58 77.8202 331.043 77.3758 330.454 77.0084C330.158 76.8242 329.829 76.7009 329.485 76.6454C329.141 76.59 328.79 76.6036 328.451 76.6855C327.491 76.9671 326.887 77.9508 326.666 78.9383C326.445 79.9257 326.527 80.9358 326.434 81.942C326.299 83.3838 325.804 84.7768 325.684 86.2223C325.62 87.0596 325.684 87.9044 325.582 88.738C325.398 89.8325 325.017 90.8846 324.457 91.8431C323.239 94.1263 321.593 96.1532 319.609 97.813C319.065 98.2147 318.576 98.6855 318.154 99.2135C317.801 99.7416 317.562 100.337 317.452 100.963C317.203 101.916 317.311 102.927 317.756 103.805C318.367 104.849 319.541 105.307 320.662 105.54C322.177 105.856 322.526 105.337 323.565 104.26Z" fill="#BE6F72"/>
<path d="M294.488 56.8308C294.81 56.2234 295.305 55.7246 295.909 55.3967C296.513 55.0689 297.201 54.9265 297.885 54.9872C298.575 55.1095 299.216 55.4226 299.737 55.8911C300.258 56.3596 300.637 56.9647 300.833 57.638C301.009 58.1975 301.08 58.817 301.388 59.2976C301.853 60.0222 302.715 60.2325 303.36 60.7582C303.745 61.1164 304.055 61.548 304.271 62.0277C304.488 62.5074 304.606 63.0255 304.62 63.5516C304.656 64.6264 304.487 65.6981 304.121 66.7093C303.966 67.1408 303.841 67.5824 303.746 68.031C303.671 68.4665 303.664 68.9096 303.596 69.3451C303.513 69.9098 303.318 70.4522 303.022 70.9404C302.727 71.4285 302.337 71.8525 301.875 72.1874C301.744 72.2947 301.58 72.3543 301.41 72.3563C301.118 72.3226 300.938 71.9809 300.829 71.673C300.233 69.9496 300.375 67.8432 299.276 66.469C298.776 65.9147 298.172 65.4643 297.499 65.1436C297.224 64.9662 296.915 64.8497 296.591 64.8019C296.116 64.8275 295.659 64.9949 295.279 65.2825C294.487 65.8141 293.609 66.2029 292.684 66.4315C292.222 66.541 291.742 66.5459 291.278 66.4459C290.814 66.3458 290.378 66.1434 290.003 65.8533C289.485 65.4252 289.106 64.7832 288.533 64.449C287.959 64.1148 287.359 64.1336 286.793 63.9046C286.432 63.7509 286.111 63.5168 285.854 63.22C285.597 62.9233 285.411 62.5718 285.311 62.1922C285.21 61.8127 285.197 61.4153 285.274 61.0301C285.35 60.6449 285.513 60.2822 285.75 59.9697C286.125 59.5191 286.68 59.2638 287.014 58.7644C287.445 58.1186 287.408 57.2325 287.614 56.459C287.736 55.9697 287.973 55.5165 288.305 55.1372C288.637 54.7578 289.054 54.4631 289.523 54.2776C289.977 54.1231 290.464 54.0935 290.934 54.1919C291.404 54.2903 291.838 54.5131 292.193 54.837C292.568 55.175 292.868 55.6105 293.235 55.9634C293.598 56.3112 294.042 56.5621 294.527 56.6933C295.012 56.8245 295.522 56.8318 296.01 56.7144" fill="#3F3D56"/>
<path opacity="0.1" d="M300.652 112.096C300.434 112.29 300.279 112.546 300.208 112.83C300.138 113.114 300.154 113.413 300.255 113.688C300.337 113.864 304.207 113.117 304.616 113.061C305.636 112.914 307.425 112.986 308.111 112.051C309.334 110.395 305.546 110.763 304.852 110.823C303.532 110.936 301.657 111.116 300.652 112.096Z" fill="black"/>
<path d="M265.447 63.6605C265.282 64.4008 265.187 65.155 265.162 65.9133C264.037 66.1423 262.867 65.7668 261.788 65.3914L258.686 64.3325C258.498 64.2118 258.27 64.1676 258.05 64.2087C257.83 64.2499 257.634 64.3733 257.501 64.5541C257.003 65.0722 256.316 66.0559 255.626 66.6379C255.515 66.6261 255.406 66.6022 255.3 66.5666C254.779 66.3488 254.858 65.5416 255.233 65.1173C255.608 64.693 256.163 64.4565 256.504 63.9909C256.663 63.7146 256.84 63.4499 257.036 63.1986C257.287 62.9831 257.587 62.8323 257.91 62.7593C260.073 62.1211 262.361 62.0346 264.566 62.5078C264.941 62.5904 265.369 62.7406 265.481 63.1048C265.518 63.2898 265.506 63.4812 265.447 63.6605Z" fill="#3F3D56"/>
<path opacity="0.1" d="M265.447 63.6605C265.282 64.4008 265.187 65.155 265.162 65.9133C264.037 66.1423 262.867 65.7668 261.788 65.3914L258.686 64.3325C258.498 64.2118 258.27 64.1676 258.05 64.2087C257.83 64.2499 257.634 64.3733 257.501 64.5541C257.003 65.0722 256.316 66.0559 255.626 66.6379C255.515 66.6261 255.406 66.6022 255.3 66.5666C254.779 66.3488 254.858 65.5416 255.233 65.1173C255.608 64.693 256.163 64.4565 256.504 63.9909C256.663 63.7146 256.84 63.4499 257.036 63.1986C257.287 62.9831 257.587 62.8323 257.91 62.7593C260.073 62.1211 262.361 62.0346 264.566 62.5078C264.941 62.5904 265.369 62.7406 265.481 63.1048C265.518 63.2898 265.506 63.4812 265.447 63.6605Z" fill="black"/>
<path opacity="0.1" d="M293.816 134.943C294.356 135.123 294.941 135.386 295.125 135.927L290.783 134.823L288.532 134.248C288.135 134.147 286.71 134.031 286.447 133.719C286.072 133.261 287.404 133.576 287.644 133.61C288.371 133.719 289.099 133.832 289.823 133.963C291.188 134.207 292.5 134.609 293.816 134.943Z" fill="black"/>
<path opacity="0.1" d="M295.5 138.792C295.125 138.54 294.049 138.57 293.588 138.461C292.913 138.3 292.249 138.086 291.585 137.879C290.239 137.44 288.904 136.94 287.52 136.618C287.265 136.561 286.395 136.546 286.436 136.223C286.478 135.9 287.306 135.788 287.513 135.773C288.739 135.683 290.269 136.257 291.409 136.666C292.862 137.187 294.238 137.902 295.5 138.792Z" fill="black"/>
<path opacity="0.1" d="M292.747 131.511C291.371 131.136 290.122 130.28 288.705 130.114C288.335 130.129 287.972 130.017 287.674 129.799C287.507 129.635 287.391 129.427 287.34 129.198C288.289 129.15 289.391 129.551 290.254 129.93C290.728 130.134 291.185 130.378 291.619 130.659C291.934 130.85 292.406 131.402 292.747 131.511Z" fill="black"/>
<path d="M318.983 97.8919C318.75 99.4529 319.087 101.046 319.931 102.378C320.775 103.711 322.071 104.695 323.58 105.15C323.396 106.04 322.478 106.531 321.829 107.166C320.914 108.056 320.441 109.389 319.361 110.065C318.158 110.815 316.609 110.523 315.236 110.207C315.112 110.193 314.997 110.133 314.914 110.038C314.886 109.993 314.865 109.944 314.854 109.892C314.4 108.229 314.104 106.453 314.569 104.785C314.944 103.366 315.844 102.157 316.564 100.903C317.284 99.6491 317.351 98.3049 318.983 97.8919Z" fill="#3F3D56"/>
<path d="M285.454 76.3625C284.002 76.4683 282.593 76.8981 281.329 77.6204C280.489 78.101 279.626 78.7468 278.666 78.6304C278.1 78.5665 277.541 78.2549 276.99 78.4051C276.68 78.5305 276.39 78.7027 276.131 78.9157C276 79.0203 275.844 79.0891 275.679 79.1154C275.513 79.1417 275.344 79.1247 275.186 79.0659L274.811 84.2624C274.669 86.2373 274.53 88.2536 275.003 90.1797C275.246 91.1635 275.783 92.0571 275.843 93.0558C275.903 94.0546 275.813 95.0796 275.884 96.0896C275.951 97.0245 276.158 97.9444 276.21 98.8793C276.315 100.644 275.88 102.394 275.46 104.11C274.826 106.64 274.444 109.227 273.21 111.518C272.865 112.152 272.46 112.798 272.46 113.519C272.46 113.609 272.46 113.695 272.483 113.782C272.108 113.988 271.759 114.183 271.44 114.386C270.728 114.848 269.966 115.362 269.674 116.162C269.438 116.812 269.546 117.555 269.261 118.182C268.976 118.809 268.324 119.256 268.181 119.932C268.08 120.424 268.275 120.942 268.181 121.434C268.097 121.688 268.028 121.948 267.975 122.211C267.938 122.774 268.414 123.228 268.886 123.536C269.575 123.991 270.336 124.326 271.136 124.527L273.375 115.629C275.416 111.85 277.114 107.896 278.449 103.813C278.831 102.478 279.321 101.177 279.915 99.9231C280.34 99.2135 280.716 98.4759 281.04 97.7154C281.381 96.7692 281.415 95.7442 281.58 94.7454C281.776 93.5797 282.071 92.4329 282.461 91.3174C282.866 90.1122 283.335 88.9107 283.418 87.6453C283.542 85.8356 282.885 83.9245 283.583 82.2499C283.879 81.6231 284.264 81.0426 284.726 80.5265C285.694 79.34 286.575 78.0972 287.543 76.9107C287.04 76.3738 286.204 76.3175 285.454 76.3625Z" fill="#3F3D56"/>
<g opacity="0.1">
<path opacity="0.1" d="M296.021 55.5955L295.553 55.6293L295.5 55.6668C295.676 55.6596 295.85 55.6358 296.021 55.5955Z" fill="black"/>
<path opacity="0.1" d="M304.601 63.3902C304.523 64.1366 304.362 64.8721 304.121 65.5829C303.966 66.0143 303.841 66.4559 303.746 66.9045C303.671 67.3401 303.664 67.7831 303.596 68.2187C303.513 68.7834 303.318 69.3258 303.023 69.8139C302.727 70.3021 302.337 70.7261 301.875 71.061C301.744 71.1683 301.58 71.2279 301.41 71.2299C301.118 71.1961 300.938 70.8545 300.829 70.5466C300.233 68.8232 300.375 66.7168 299.276 65.3426C298.777 64.7882 298.173 64.3379 297.499 64.0172C297.224 63.8398 296.915 63.7233 296.591 63.6755C296.116 63.7011 295.659 63.8685 295.279 64.1561C294.488 64.6877 293.609 65.0765 292.684 65.305C292.222 65.4146 291.742 65.4195 291.278 65.3194C290.814 65.2194 290.378 65.0169 290.003 64.7268C289.485 64.2988 289.106 63.6567 288.533 63.3226C287.959 62.9884 287.359 63.0072 286.793 62.7781C286.439 62.6269 286.124 62.3978 285.871 62.1079C285.618 61.818 285.433 61.4747 285.33 61.1036C285.317 61.0567 285.307 61.0091 285.3 60.9609C285.207 61.38 285.217 61.8157 285.33 62.23C285.433 62.6011 285.618 62.9444 285.871 63.2343C286.124 63.5242 286.439 63.7533 286.793 63.9045C287.359 64.1336 287.996 64.1373 288.533 64.449C289.069 64.7606 289.485 65.4252 290.003 65.8532C290.378 66.1433 290.814 66.3458 291.278 66.4458C291.742 66.5459 292.222 66.541 292.684 66.4314C293.609 66.2029 294.488 65.8141 295.279 65.2825C295.659 64.9949 296.116 64.8275 296.591 64.8019C296.915 64.8497 297.224 64.9662 297.499 65.1436C298.164 65.4705 298.759 65.9246 299.25 66.4802C300.349 67.8545 300.206 69.9608 300.803 71.6842C300.911 71.9959 301.091 72.3338 301.384 72.3676C301.564 72.3685 301.738 72.3045 301.875 72.1874C302.339 71.8515 302.73 71.4259 303.027 70.9357C303.323 70.4456 303.518 69.9008 303.6 69.3338C303.668 68.8983 303.675 68.4552 303.75 68.0197C303.845 67.5711 303.97 67.1295 304.125 66.698C304.491 65.6868 304.66 64.6151 304.624 63.5403C304.616 63.4953 304.609 63.4427 304.601 63.3902Z" fill="black"/>
</g>
<path d="M280.875 93.5176L280.62 96.9457C280.582 97.4112 279.694 108.495 273.139 121.449C267.514 132.559 256.567 147.029 235.901 155.162C234.289 155.8 232.615 156.396 230.88 156.949L228.945 150.867C233.803 149.336 238.482 147.287 242.902 144.754C253.436 138.664 261.626 129.972 267.337 118.787C270.367 112.831 272.527 106.471 273.75 99.9006H250.237V93.5176H280.875Z" fill="#FFFF64"/>
<path opacity="0.1" d="M233.37 155.166C254.032 147.033 264.982 132.566 270.604 121.456C277.159 108.503 278.051 97.4263 278.085 96.9532L278.34 93.5252H280.965L280.71 96.9532C280.676 97.4188 279.784 108.503 273.229 121.456C267.604 132.566 256.657 147.033 235.995 155.166C234.382 155.804 232.707 156.401 230.97 156.957L230.715 156.157C231.62 155.834 232.505 155.504 233.37 155.166Z" fill="white"/>
<path d="M192 150.867L190.065 156.949C188.327 156.393 186.652 155.796 185.04 155.158C164.377 147.025 153.427 132.559 147.806 121.449C141.251 108.495 140.359 97.4187 140.325 96.9457L140.07 93.5176H170.692V99.9006H147.176C148.405 106.472 150.571 112.832 153.607 118.787C159.319 129.972 167.505 138.664 178.039 144.75C182.459 147.285 187.14 149.336 192 150.867Z" fill="#FFFF64"/>
<path opacity="0.1" d="M187.568 155.166C166.905 147.033 155.955 132.566 150.334 121.456C143.779 108.503 142.886 97.4263 142.853 96.9532L142.598 93.5252H139.973L140.228 96.9532C140.261 97.4188 141.154 108.503 147.709 121.456C153.334 132.566 164.28 147.033 184.943 155.166C186.555 155.804 188.23 156.401 189.968 156.957L190.223 156.157C189.32 155.834 188.435 155.504 187.568 155.166Z" fill="white"/>
<path d="M245.846 209.665V244.084H175.095V209.665L177.345 206.661C200.273 198.513 204.919 177.266 205.845 168.859C205.983 167.697 206.062 166.529 206.081 165.36H214.83C214.85 166.529 214.929 167.697 215.066 168.859C216.008 177.266 220.654 198.521 243.566 206.661L245.846 209.665Z" fill="#FFFF64"/>
<path opacity="0.1" d="M245.846 209.665H175.095V213.983H245.846V209.665Z" fill="black"/>
<path opacity="0.1" d="M181.095 206.661C204.023 198.513 208.669 177.266 209.595 168.859C209.733 167.697 209.812 166.529 209.831 165.36H206.081C206.062 166.529 205.983 167.697 205.845 168.859C204.904 177.266 200.258 198.521 177.345 206.661L175.095 209.665V244.084H178.845V209.665L181.095 206.661Z" fill="white"/>
<path opacity="0.1" d="M164.348 93.5176H170.693V99.9006H164.91C164.683 97.798 164.495 95.6703 164.348 93.5176Z" fill="black"/>
<path opacity="0.1" d="M192 150.867L190.065 156.949C188.327 156.393 186.652 155.796 185.04 155.158C182.387 151.915 180.043 148.43 178.039 144.75C182.459 147.285 187.14 149.336 192 150.867Z" fill="black"/>
<path opacity="0.1" d="M228.941 150.867C233.799 149.336 238.479 147.287 242.899 144.754C240.893 148.435 238.549 151.92 235.898 155.166C234.285 155.804 232.611 156.4 230.876 156.953L228.941 150.867Z" fill="black"/>
<path opacity="0.1" d="M256.59 93.5176C256.442 95.6703 256.255 97.798 256.027 99.9006H250.249V93.5176H256.59Z" fill="black"/>
<path opacity="0.1" d="M215.081 168.859C212.036 169.45 208.905 169.45 205.86 168.859C205.998 167.697 206.077 166.529 206.096 165.36H214.845C214.864 166.529 214.943 167.697 215.081 168.859Z" fill="black"/>
<path d="M165.098 82.9445C165.259 130.276 185.509 168.551 210.473 168.551C235.436 168.551 255.683 130.276 255.848 82.9445H165.098Z" fill="#FFFF64"/>
<path opacity="0.1" d="M173.16 82.9445H165.098C165.259 130.276 185.509 168.551 210.473 168.551C211.824 168.549 213.172 168.434 214.504 168.209C191.426 164.35 173.314 127.7 173.16 82.9445Z" fill="white"/>
<path d="M234.532 222.84H186.409V235.23H234.532V222.84Z" fill="#3F3D56"/>
<path opacity="0.1" d="M188.659 224.53H234.532V222.84H186.409V235.23H188.659V224.53Z" fill="white"/>
<path d="M139.432 128.643C138.566 128.354 133.466 124.314 133.08 122.485C132.694 120.656 135.776 103.622 135.776 103.622C135.776 103.622 135.491 103.622 135.026 103.565V103.291L135.66 80.9132C135.66 80.9132 138.259 65.8946 133.35 66.7694C128.441 67.6442 131.52 80.9132 131.52 80.9132C131.52 80.9132 130.961 87.6491 130.567 89.6691C130.192 91.6178 128.475 99.5552 129.645 102.022C129.688 102.11 129.735 102.195 129.787 102.277C129.787 102.277 129.982 110.744 127.864 111.901C125.842 113.001 125.002 118.539 124.931 119.034L124.822 118.989C124.219 118.611 123.689 118.127 123.259 117.559C123.214 117.503 123.18 117.442 123.139 117.382C124.518 115.828 125.262 113.81 125.221 111.731C125.18 109.652 124.357 107.666 122.917 106.167C122.248 105.471 121.462 104.897 120.596 104.47C120.571 103.753 120.401 103.048 120.097 102.397C119.122 100.31 113.722 97.5802 109.886 97.5164C108.116 97.4638 106.665 97.967 106.136 99.3524C105.866 100.055 105.949 100.854 105.836 101.583C105.611 103.085 104.647 104.26 103.41 105.195C102.91 104.636 102.37 104.115 101.794 103.637C100.541 102.675 98.0436 99.5064 98.0436 99.5064C98.0436 99.5064 90.2473 91.4226 89.6698 89.2073C89.0923 86.9921 81.3036 73.6893 79.5711 76.0059C77.8386 78.3225 85.5373 88.4188 85.5373 88.4188C85.5373 88.4188 86.9998 92.0871 88.1248 93.3262C89.2498 94.5652 97.8748 107.106 97.8748 107.106L98.2873 107.962C96.4648 108.923 94.7998 110.147 94.2111 112.055C93.3486 114.863 95.2348 117.687 96.5398 120.315C99.0823 125.444 99.4461 131.984 96.1648 136.67C93.2248 140.808 88.1248 142.775 83.3511 144.495C85.6565 146.308 88.5206 147.259 91.4511 147.187C90.3486 150.386 86.4411 151.445 83.1111 152.038C84.8586 153.72 87.3598 154.332 89.7598 154.704C90.9352 154.904 92.1263 154.998 93.3186 154.985H93.6111L93.9036 154.963C94.31 154.936 94.7145 154.884 95.1148 154.809C96.8473 154.456 98.5311 153.51 99.4161 151.978C100.166 150.668 100.429 148.88 101.79 148.223C102.144 148.063 102.526 147.973 102.915 147.957H102.874C103.129 147.957 103.391 147.957 103.646 147.957L109.32 148.013C109.556 148.013 109.8 148.013 110.044 148.013C111.645 147.975 113.355 147.698 114.169 146.372C114.503 145.729 114.679 145.014 114.682 144.288C114.802 142.49 114.682 140.639 114.731 138.825C115.215 142.126 115.721 147.27 114.517 149.169C113.539 150.609 112.354 151.896 111 152.988C110.659 153.274 110.348 153.594 110.07 153.942C109.886 154.073 109.777 154.144 109.777 154.144L109.661 154.494C109.234 155.143 108.924 155.862 108.746 156.619C108.681 156.813 108.656 157.019 108.675 157.223C108.806 157.49 107.737 158.59 108.049 159.052C105.379 162.187 104.872 166.937 104.872 166.937L99.9973 174.348C97.4923 180.938 93.7423 181.614 93.7423 181.614C93.7423 181.614 84.9336 175.696 84.6936 175.407C84.4536 175.118 81.0861 173.672 81.0861 173.672C80.689 172.975 80.0829 172.421 79.3536 172.088C78.1986 171.607 78.1011 169.835 78.1011 169.835C77.9586 165.649 75.5023 165.33 75.5023 165.33C73.5223 165.161 72.0111 165.514 70.8486 166.159L70.4961 166.186C68.7936 166.325 66.7461 166.479 64.4961 166.629C58.2373 167.042 56.7486 171.101 56.7486 171.101C56.7486 171.101 55.9798 171.968 56.9886 172.907C57.9973 173.845 64.4548 172.907 64.7286 172.884C64.2364 172.937 63.7387 172.903 63.2586 172.783C64.2748 172.745 65.6736 172.707 66.8661 172.707H67.1548C67.0797 173.34 67.0434 173.977 67.0461 174.615C67.0461 175.816 70.3648 176.586 70.3648 176.586L80.4711 185.597C80.4711 185.597 86.8236 188.44 90.8661 192.528C94.9086 196.617 98.4823 193.088 98.4823 193.088C102.761 192.029 115.072 177.127 115.084 177.112C115.084 177.547 115.342 192.04 115.834 194.95C115.853 195.098 115.89 195.243 115.942 195.382C116.52 196.632 115.747 200.049 115.414 201.491C115.201 202.697 115.119 203.924 115.17 205.148C115.17 205.148 110.554 222.795 110.936 224.346C111.319 225.896 108.435 233.101 108.435 233.101V239.109L108.937 239.083C108.872 239.179 108.812 239.28 108.757 239.383L108.724 239.447C108.724 239.447 111.802 240.119 113.872 239.927C115.942 239.736 119.497 241.523 119.497 241.523C119.497 241.523 120.701 242.094 124.406 242.334C128.111 242.574 128.111 240.697 128.111 240.697C127.687 238.14 121.834 237.284 121.654 237.258C121.181 236.961 120.739 236.638 120.375 236.36L120.3 236.3C120.324 236.244 120.346 236.186 120.364 236.128C120.99 233.575 117.525 232.467 117.525 232.467V231.844C119.775 230.687 120.221 222.75 120.221 222.75C120.221 222.75 123.596 212.935 124.069 211.298C124.541 209.661 124.069 207.209 124.069 207.209L124.406 205.092C124.406 205.092 125.13 203.65 125.13 203.361C125.223 202.628 125.505 201.932 125.947 201.341C126.476 200.714 125.37 199.223 125.37 199.223L126.334 196.722V193.978L128.584 184.02C128.584 184.02 130.942 172.422 130.125 168.626C129.307 164.83 131.089 162.9 131.089 162.9C130.928 162.985 130.763 163.06 130.594 163.126C130.819 162.604 131.013 162.07 131.175 161.526L136.237 162.153V162.228H138.064C138.064 162.228 137.486 155.094 137.486 152.218C137.486 149.342 139.432 139.021 139.432 139.021C139.432 139.021 140.299 128.932 139.432 128.643ZM116.959 120.315C116.959 120.596 116.932 120.889 116.914 121.19L116.812 121.344L116.625 121.186L116.396 121.543L116.329 121.576C115.834 121.321 115.579 119.86 115.222 120.176L115.174 120.217C115.095 120.127 115.016 120.101 114.934 120.176L114.859 120.24C114.859 120.131 114.859 120.018 114.859 119.906C115.545 120.082 116.25 120.172 116.959 120.172C116.962 120.221 116.959 120.27 116.959 120.315ZM133.796 153.536H133.905L133.725 154.009C133.747 153.852 133.77 153.698 133.796 153.536ZM115.312 238.681L114.622 238.508L114.997 238.444L115.346 238.673L115.387 238.703L115.312 238.681ZM122.362 237.671C122.134 237.551 121.901 237.412 121.676 237.269C121.751 237.31 122.047 237.464 122.362 237.671Z" fill="url(#paint1_linear)"/>
<path d="M136.286 146.444L131.745 158.293H132.847L128.576 161.703L136.286 162.664V146.444Z" fill="#F86D70"/>
<path opacity="0.1" d="M136.286 146.444L131.745 158.293L130.601 157.985L128.576 161.703L136.286 162.664V146.444Z" fill="black"/>
<path d="M129.165 154.024H136.286L138.9 132.491H129.165V154.024Z" fill="#F86D70"/>
<path opacity="0.1" d="M129.165 154.024H136.286L138.9 132.491H129.165V154.024Z" fill="black"/>
<path d="M115.256 137.59L116.794 137.331L120.326 136.73C120.326 136.73 130.935 134.335 133.125 134.139C134.452 133.964 135.745 133.595 136.965 133.043C137.539 132.795 137.903 132.608 137.903 132.608L134.081 125.62L128.153 121.22C128.153 121.22 124.403 120.42 122.816 118.235C122.462 117.765 122.232 117.213 122.146 116.63C122.06 116.048 122.122 115.453 122.325 114.901C123.293 111.897 116.546 117.773 116.546 117.773C116.546 117.773 116.61 119.181 116.546 120.976C116.546 121.329 116.513 121.697 116.486 122.072C116.486 122.32 116.452 122.568 116.426 122.823C116.261 124.606 115.924 126.442 115.256 127.539C113.625 130.22 115.256 137.59 115.256 137.59Z" fill="#FBBEBE"/>
<path opacity="0.1" d="M116.546 121.126H116.696C116.966 121.126 117.184 120.551 117.446 120.525C119.558 120.322 121.485 119.879 122.824 118.381C122.471 117.911 122.241 117.36 122.155 116.778C122.069 116.197 122.13 115.603 122.333 115.051C123.3 112.047 116.554 117.919 116.554 117.919C116.554 117.919 116.625 119.331 116.546 121.126Z" fill="black"/>
<path d="M108.333 112.61C108.333 113.691 108.545 114.762 108.958 115.76C109.371 116.759 109.977 117.667 110.74 118.431C111.503 119.195 112.41 119.802 113.407 120.215C114.405 120.628 115.474 120.841 116.553 120.84C116.823 120.84 117.09 120.84 117.356 120.803C118.94 120.647 120.445 120.035 121.687 119.04C122.93 118.044 123.858 116.709 124.358 115.196C124.857 113.683 124.908 112.058 124.503 110.517C124.098 108.976 123.254 107.586 122.076 106.515C120.897 105.445 119.433 104.74 117.862 104.487C116.29 104.233 114.679 104.442 113.224 105.087C111.769 105.732 110.533 106.787 109.664 108.122C108.796 109.458 108.334 111.017 108.333 112.61Z" fill="#FBBEBE"/>
<path d="M105.81 100.118C105.54 100.817 105.622 101.598 105.514 102.337C105.112 105.007 102.401 106.606 99.9486 107.725C97.4961 108.844 94.7286 110.17 93.9486 112.749C93.0936 115.539 94.9611 118.336 96.2586 120.953C98.7861 126.052 99.1461 132.555 95.8836 137.218C92.9849 141.348 87.9336 143.308 83.1786 145.028C85.4671 146.831 88.3114 147.779 91.2224 147.709C90.1311 150.889 86.2499 151.944 82.9424 152.53C84.6786 154.204 87.1649 154.813 89.5461 155.181C91.2824 155.451 93.0636 155.627 94.7961 155.278C96.5286 154.929 98.1711 153.987 99.0636 152.462C99.8136 151.159 100.069 149.383 101.422 148.726C102.033 148.486 102.692 148.389 103.346 148.445L108.971 148.505C110.722 148.505 112.796 148.37 113.7 146.872C114.033 146.232 114.208 145.521 114.21 144.799C114.454 141.104 113.745 137.2 115.264 133.828C115.721 132.81 112.785 131.2 113.092 130.122C114.15 126.416 114.416 123.499 114.405 119.643C114.405 116.658 116.344 114.086 117.945 111.566C119.546 109.047 120.885 105.867 119.621 103.163C118.196 100.148 107.494 95.7667 105.81 100.118Z" fill="#3F3D56"/>
<path d="M113.299 237.6L114.731 238.55L114.953 238.696L114.994 238.722L116.693 239.849L120.66 240.517L124.148 240.277C124.148 240.277 125.153 238.174 123.574 238.223C123.068 238.197 122.575 238.054 122.134 237.806L121.916 237.697C121.688 237.577 121.459 237.442 121.234 237.299C120.765 237.003 120.323 236.68 119.966 236.406C119.441 236 119.093 235.692 119.093 235.692L113.299 237.6Z" fill="#FBBEBE"/>
<path opacity="0.1" d="M114.75 238.549L114.971 238.696L115.013 238.722L116.711 239.849L120.679 240.517L124.166 240.277C124.166 240.277 125.171 238.174 123.593 238.223C123.087 238.197 122.594 238.054 122.153 237.806C122.43 238.024 122.663 238.26 122.685 238.459C122.749 238.996 120.105 239.961 120.105 239.961L116.377 238.974C116.377 238.974 115.744 238.794 114.877 238.568L114.795 238.546L114.75 238.549Z" fill="black"/>
<path d="M108.375 239.466C108.375 239.466 111.431 240.134 113.486 239.942C115.541 239.751 119.081 241.523 119.081 241.523C119.081 241.523 120.278 242.086 123.956 242.327C127.635 242.567 127.635 240.697 127.635 240.697C127.215 238.155 121.403 237.318 121.223 237.28C121.294 237.318 121.598 237.472 121.905 237.678C122.318 237.949 122.764 238.302 122.798 238.587C122.861 239.12 120.218 240.089 120.218 240.089L116.49 239.105C116.49 239.105 115.856 238.921 114.99 238.696H114.908C113.623 238.346 112.318 238.076 111 237.889C109.395 237.716 108.574 239.083 108.405 239.391C108.393 239.415 108.383 239.44 108.375 239.466Z" fill="#3F3D56"/>
<path d="M60.2026 171.945L61.8264 173.192C61.8264 173.192 62.2989 173.169 63.0039 173.147H63.2289C64.2376 173.109 65.6289 173.072 66.8101 173.072C67.5737 173.037 68.3389 173.08 69.0939 173.199C69.9039 173.485 71.3439 168.559 71.3439 168.559L69.7164 168.183L69.1764 168.055L68.8014 167.965L67.4776 167.654L63.4651 168.112L60.6451 169.929L60.2026 171.945Z" fill="#FBBEBE"/>
<path opacity="0.1" d="M60.2026 171.945L61.8264 173.192C61.8264 173.192 62.2989 173.169 63.0039 173.147C62.6804 173.022 62.4136 172.783 62.2539 172.475C61.2039 169.557 66.4126 168.311 66.4126 168.311L68.8389 168.206L69.3114 168.183H69.6864L69.1464 168.055L68.7714 167.965L67.4476 167.654L63.4351 168.112L60.6151 169.929L60.2026 171.945Z" fill="black"/>
<path d="M57.0001 173.263C57.9826 174.172 64.4176 173.263 64.6876 173.241C64.1993 173.296 63.705 173.261 63.2289 173.139C62.9932 173.097 62.7699 173.003 62.5752 172.863C62.3806 172.723 62.2196 172.542 62.1039 172.332C61.0539 169.411 66.2626 168.168 66.2626 168.168L68.6889 168.063L69.1576 168.04L75.0564 167.785L75.3414 166.159C75.3414 166.159 73.4251 166.34 70.4176 166.58C68.7264 166.719 66.6676 166.873 64.4439 167.019C58.2301 167.432 56.7526 171.468 56.7526 171.468C56.7526 171.468 55.9989 172.332 57.0001 173.263Z" fill="#3F3D56"/>
<path d="M129.169 102.788C129.209 102.877 129.256 102.962 129.311 103.043L130.744 105.146L134.471 105.521L134.513 104.042L135.139 81.7843C135.139 81.7843 137.719 66.8557 132.844 67.7155C127.969 68.5753 131.029 81.7843 131.029 81.7843C131.029 81.7843 130.474 88.4826 130.084 90.4951C129.705 92.44 128.006 100.347 129.169 102.788Z" fill="#FBBEBE"/>
<path d="M120.802 158.072L121.863 159.889L124.237 163.955C124.237 163.955 128.542 165.536 129.645 164.331C130.249 163.674 130.901 161.38 131.359 159.45C131.734 157.888 131.985 156.57 131.985 156.57L120.802 158.072Z" fill="#FBBEBE"/>
<path opacity="0.1" d="M120.802 158.072L121.863 159.889C121.93 159.832 121.99 159.768 122.043 159.698C123.243 158.166 128.527 159.371 131.359 159.469C131.734 157.907 131.985 156.589 131.985 156.589L120.802 158.072Z" fill="black"/>
<path opacity="0.1" d="M66.8101 173.064C67.5737 173.03 68.3388 173.073 69.0938 173.192C69.9038 173.477 71.3438 168.551 71.3438 168.551L69.1763 168.04L75.0751 167.785L75.3601 166.159C75.3601 166.159 73.4438 166.34 70.4363 166.58C69.8149 166.938 69.2604 167.402 68.7976 167.95L68.7076 168.063C67.4513 169.606 66.9863 171.596 66.8101 173.064Z" fill="black"/>
<path opacity="0.1" d="M113.299 237.6L114.953 238.696C117.42 238.249 119.674 237.547 119.94 236.443C119.941 236.426 119.941 236.408 119.94 236.391C119.415 235.985 119.066 235.677 119.066 235.677L113.299 237.6Z" fill="black"/>
<path opacity="0.1" d="M108.409 239.402C110.588 239.293 112.759 239.06 114.911 238.703C113.626 238.35 112.319 238.078 111 237.889C109.399 237.716 108.577 239.083 108.409 239.402Z" fill="black"/>
<path d="M66.9898 174.96C66.9898 176.158 70.286 176.924 70.286 176.924L80.3247 185.871C80.3247 185.871 86.6322 188.695 90.6447 192.761C94.6572 196.828 98.1972 193.336 98.1972 193.336C102.45 192.284 114.697 177.45 114.697 177.45C114.697 177.45 114.982 194.391 115.556 195.634C116.13 196.876 115.365 200.274 115.031 201.712C114.82 202.912 114.74 204.13 114.791 205.347C114.791 205.347 110.205 222.907 110.587 224.439C110.97 225.971 108.101 233.15 108.101 233.15V239.131C108.101 239.131 119.332 238.7 119.951 236.165C120.57 233.631 117.135 232.527 117.135 232.527V231.904C119.385 230.755 119.808 222.862 119.808 222.862C119.808 222.862 123.157 213.1 123.633 211.474C124.11 209.849 123.633 207.404 123.633 207.404L123.967 205.302C123.967 205.302 124.683 203.864 124.683 203.578C124.777 202.85 125.057 202.158 125.497 201.57C126.022 200.946 124.923 199.463 124.923 199.463L125.88 196.974V194.248L128.13 184.343C128.13 184.343 130.473 172.809 129.66 169.028C128.846 165.247 130.616 163.336 130.616 163.336C126.78 165.348 124.845 160.869 124.211 158.943C124.05 158.447 123.971 158.117 123.971 158.117C123.971 158.117 118.702 156.172 113.797 156.637C112.801 156.718 111.819 156.927 110.876 157.257C105.427 159.221 104.568 167.353 104.568 167.353L99.7423 174.724C97.256 181.279 93.5285 181.948 93.5285 181.948C93.5285 181.948 84.7835 176.064 84.5285 175.775C84.2735 175.486 80.9435 174.052 80.9435 174.052C80.5498 173.358 79.9474 172.806 79.2222 172.475C78.0747 171.994 77.981 170.222 77.981 170.222C77.8385 166.058 75.401 165.716 75.401 165.716C66.941 165.01 66.9898 173.766 66.9898 174.96Z" fill="#3F3D56"/>
<path d="M115.642 151.565H120.802V135.536H115.642V151.565Z" fill="#F86D70"/>
<path opacity="0.1" d="M115.642 151.565H120.802V135.536H115.642V151.565Z" fill="black"/>
<path opacity="0.1" d="M129.165 102.754C129.164 102.765 129.164 102.777 129.165 102.788C129.205 102.877 129.252 102.963 129.307 103.043L130.74 105.146L134.467 105.521L134.508 104.042C133.346 103.952 130.698 103.633 129.165 102.754Z" fill="black"/>
<path d="M129.311 103.043C129.311 103.043 129.503 111.461 127.399 112.61C125.295 113.759 124.478 119.744 124.478 119.744C124.478 119.744 130.853 123.942 132.274 125.789C133.695 127.636 136.958 132.037 136.286 133.088C135.615 134.139 137.914 138.927 137.914 138.927C137.914 138.927 133.706 147.54 134.663 150.795C135.619 154.051 135.713 162.66 135.713 162.66H137.531C137.531 162.66 136.958 155.579 136.958 152.706C136.958 149.834 138.866 139.595 138.866 139.595C138.866 139.595 139.729 129.548 138.866 129.262C138.004 128.977 132.941 124.956 132.559 123.135C132.176 121.314 135.236 104.361 135.236 104.361C135.236 104.361 131.318 104.192 129.311 103.043Z" fill="#F86D70"/>
<path opacity="0.1" d="M115.545 134.049C115.719 135.221 116.145 136.34 116.794 137.331L120.326 136.73C120.326 136.73 130.935 134.335 133.125 134.139C134.452 133.964 135.745 133.595 136.965 133.043C136.124 130.061 134.484 127.366 132.221 125.252L130.875 124.002C128.891 122.158 126.592 120.686 124.087 119.658C124.245 119.789 135.375 129.303 132.937 131.17C130.5 133.036 123.937 128.492 123.937 128.492L116.475 122.072L116.205 121.839L115.774 122.511C115.993 122.602 116.207 122.704 116.415 122.819C118.958 124.217 120.846 126.566 121.665 129.352C123.199 134.515 115.545 134.049 115.545 134.049Z" fill="black"/>
<path d="M113.25 157.974C113.25 157.974 120.322 161.898 122.04 159.698C122.415 159.213 123.206 159.003 124.192 158.947C124.031 158.451 123.952 158.121 123.952 158.121C123.952 158.121 118.684 156.176 113.779 156.641C113.456 157.452 113.25 157.974 113.25 157.974Z" fill="#444053"/>
<path d="M116.505 121.847L124.237 128.507C124.237 128.507 130.774 133.066 133.237 131.185C135.701 129.303 124.384 119.669 124.384 119.669C126.883 120.701 129.18 122.168 131.167 124.002L132.514 125.252C136.054 128.537 136.853 128.537 136.973 133.366C137.003 134.556 136.597 136.265 136.286 136.573C135.139 137.699 134.336 145.88 134.513 146.838C134.689 147.795 132.375 156.059 133.125 158.357C133.875 160.655 123.75 157.208 122.036 159.412C120.322 161.616 113.25 157.689 113.25 157.689C113.25 157.689 117.169 147.638 118.125 146.969C119.081 146.301 120.229 141.131 118.125 138.739C116.021 136.347 115.834 134.049 115.834 134.049C115.834 134.049 123.484 134.522 121.95 129.36C121.519 127.863 120.77 126.478 119.755 125.297C118.741 124.117 117.484 123.169 116.07 122.519L116.505 121.847Z" fill="#E8E8F0"/>
<path opacity="0.1" d="M126.825 138.788C126.825 138.788 123.859 144.386 120.022 145.839C119.899 145.884 119.779 145.925 119.647 145.963C115.642 147.183 127.125 140.522 126.825 138.788Z" fill="black"/>
<path d="M85.3425 89.2599C85.3425 89.2599 86.775 92.8982 87.9225 94.141C89.07 95.3838 97.575 107.827 97.575 107.827L98.295 109.329L98.9137 110.609L104.362 110.034L104.737 107.834L104.527 107.579C103.98 106.922 102.487 105.157 101.486 104.387C100.245 103.434 97.7587 100.276 97.7587 100.276C97.7587 100.276 90.0187 92.2336 89.445 90.0334C88.8712 87.8331 81.1275 74.6392 79.41 76.922C77.6925 79.2049 85.3425 89.2599 85.3425 89.2599Z" fill="#FBBEBE"/>
<g opacity="0.1">
<path opacity="0.1" d="M101.152 148.445C100.498 148.388 99.84 148.483 99.2286 148.723C97.8786 149.38 97.6236 151.156 96.8736 152.459C95.9961 153.983 94.3236 154.925 92.6024 155.275C92.2602 155.341 91.9147 155.389 91.5674 155.417C92.6637 155.524 93.7695 155.476 94.8524 155.275C96.5736 154.925 98.2461 153.983 99.1236 152.459C99.8736 151.156 100.129 149.38 101.479 148.723C101.833 148.563 102.215 148.474 102.604 148.46L101.152 148.445Z" fill="black"/>
<path opacity="0.1" d="M114.472 119.643C114.472 116.658 116.411 114.086 118.009 111.566C119.606 109.047 120.949 105.867 119.685 103.163C118.605 100.854 112.095 97.7567 108.337 98.3687C112.016 98.8455 116.55 101.271 117.435 103.163C118.699 105.867 117.356 109.047 115.759 111.566C114.161 114.086 112.215 116.658 112.222 119.643C112.222 123.495 111.964 126.401 110.906 130.122C110.602 131.192 113.531 132.81 113.081 133.824C111.559 137.203 112.271 141.101 112.027 144.795C112.022 145.517 111.846 146.227 111.514 146.868C110.764 148.103 109.226 148.422 107.73 148.49H109.039C110.786 148.49 112.86 148.355 113.764 146.857C114.096 146.216 114.272 145.506 114.277 144.784C114.521 141.089 113.809 137.188 115.331 133.813C115.789 132.799 112.852 131.185 113.156 130.111C114.214 126.416 114.48 123.495 114.472 119.643Z" fill="black"/>
</g>
<path opacity="0.1" d="M98.2949 109.321L98.9137 110.601L104.362 110.027L104.737 107.827L104.527 107.571C103.946 107.857 99.5924 109.956 98.2949 109.321Z" fill="black"/>
<path opacity="0.1" d="M118.413 123.713C118.413 123.713 117.075 121.61 116.31 122.181C115.545 122.752 115.248 120.457 114.81 120.84C114.371 121.223 113.092 122.29 112.56 120.799C112.143 119.613 107.613 112.107 105.776 109.088C105.303 108.307 105.007 107.827 105.007 107.827C105.007 107.827 99.8472 110.41 98.606 109.55V111.367L99.656 111.465L105.281 121.978C105.281 121.978 107.051 124.798 106.931 125.782C106.811 126.765 109.2 131.072 109.582 131.357C109.965 131.643 114.082 136.43 114.082 136.43C114.082 136.43 116.186 146.766 114.367 149.639C112.548 152.511 109.398 154.614 109.398 154.614C109.398 154.614 108.45 157.388 108.588 157.678C108.727 157.967 107.486 159.209 108.06 159.592C108.633 159.975 109.398 162.652 109.398 162.652C109.398 162.652 112.076 158.346 113.523 157.678C114.971 157.009 116.823 148.201 116.823 148.201C116.823 148.201 117.352 143.012 117.393 139.663C117.435 136.313 117.266 123.713 118.413 123.713Z" fill="black"/>
<path d="M118.125 123.713C118.125 123.713 116.79 121.61 116.025 122.181C115.26 122.752 114.96 120.457 114.525 120.84C114.09 121.223 112.811 122.29 112.275 120.799C111.855 119.613 107.325 112.107 105.491 109.088L104.722 107.827C104.722 107.827 99.5624 110.41 98.3174 109.55V111.367L99.3711 111.465L104.996 121.978C104.996 121.978 106.77 124.798 106.646 125.782C106.522 126.765 108.896 131.072 109.297 131.357C109.699 131.643 113.797 136.43 113.797 136.43C113.797 136.43 115.901 146.766 114.086 149.639C113.127 151.081 111.961 152.375 110.625 153.476C109.503 154.403 108.713 155.671 108.375 157.088C108.31 157.281 108.287 157.486 108.307 157.689C108.446 157.974 107.205 159.221 107.779 159.604C108.352 159.987 109.125 162.675 109.125 162.675C109.125 162.675 111.802 158.368 113.25 157.7C114.697 157.032 116.554 148.223 116.554 148.223C116.554 148.223 117.079 143.034 117.124 139.685C117.169 136.336 117 123.713 118.125 123.713Z" fill="#F86D70"/>
<path opacity="0.1" d="M105.03 167.259C105.03 167.259 109.046 168.01 110.655 169.171C112.264 170.331 104.539 167.353 104.539 167.353L105.03 167.259Z" fill="black"/>
<path opacity="0.1" d="M114.686 177.45C114.686 177.45 118.875 180.945 118.125 184.103C117.375 187.261 115.44 195.206 115.44 195.206L114.686 177.45Z" fill="black"/>
<path opacity="0.1" d="M78.0525 170.729C78.0525 170.729 72.15 171.375 72.5325 172.141C72.915 172.907 78.0525 171.435 78.0525 171.435V170.729Z" fill="black"/>
<path opacity="0.1" d="M123.375 199.797C123.375 199.797 123.75 200.274 121.56 199.797C119.37 199.321 120.986 197.849 120.986 197.849L123.375 199.797Z" fill="black"/>
<path opacity="0.1" d="M122.625 206.402C122.625 206.402 119.625 206.879 118.016 206.402C116.408 205.925 122.625 206.402 122.625 206.402Z" fill="black"/>
<path opacity="0.1" d="M116.453 232.242C116.453 232.242 115.928 231.667 113.299 232.718C110.67 233.77 109.62 233.819 108.855 233.469C108.09 233.12 116.453 232.242 116.453 232.242Z" fill="black"/>
<path opacity="0.1" d="M119.37 169.914L115.643 175.107C115.643 175.107 117.649 170.56 119.37 169.914Z" fill="black"/>
<path opacity="0.1" d="M112.125 122.181C112.125 122.181 111.964 123.904 109.56 124.576C107.156 125.248 106.699 125.793 106.699 125.793" fill="black"/>
<path opacity="0.1" d="M105.878 109.689C105.878 109.689 102.705 111.942 99.394 111.465L105.878 109.689Z" fill="black"/>
<path opacity="0.1" d="M108.292 157.925C108.292 157.925 109.219 158.507 111.442 155.962L108.292 157.925Z" fill="black"/>
<path opacity="0.1" d="M131.389 130.933C131.479 130.467 131.156 130.036 130.852 129.671L130.23 128.921C130.108 128.767 129.971 128.626 129.821 128.5C129.446 128.211 128.966 128.125 128.576 127.865" fill="black"/>
<path opacity="0.1" d="M332.734 0.0412856C332.734 0.0412856 301.163 -1.86609 304.875 20.2865C304.875 20.2865 304.125 24.2026 307.68 25.9786C307.68 25.9786 307.737 24.3378 310.92 24.8972C312.054 25.0854 313.205 25.1408 314.352 25.0624C315.9 24.9554 317.372 24.3465 318.544 23.3278C318.544 23.3278 327.42 19.6557 330.87 5.13263C330.87 5.13263 333.424 1.96368 333.323 1.14892L327.994 3.428C327.994 3.428 329.817 7.27654 328.369 10.4755C328.369 10.4755 328.197 3.56693 327.173 3.71711C326.967 3.7509 324.405 5.05002 324.405 5.05002C324.405 5.05002 327.537 11.7521 325.174 16.6257C325.174 16.6257 326.07 8.3654 323.427 5.53437L319.677 7.72711C319.677 7.72711 323.337 14.6507 320.854 20.3015C320.854 20.3015 321.492 11.6357 318.885 8.26027L315.488 10.9148C315.488 10.9148 318.927 17.7408 316.83 22.4267C316.83 22.4267 316.557 12.3378 314.753 11.5757C314.753 11.5757 311.779 14.2039 311.325 15.2778C311.325 15.2778 313.68 20.2339 312.218 22.8472C312.218 22.8472 311.322 16.1263 310.587 16.0888C310.587 16.0888 307.624 20.5418 307.317 23.5981C307.317 23.5981 307.444 19.0587 309.87 15.6682C309.87 15.6682 307.005 16.1601 305.333 18.0187C305.333 18.0187 305.794 14.8723 310.602 14.5982C310.602 14.5982 313.05 11.219 313.703 11.0124C313.703 11.0124 308.925 10.6144 306.027 11.8985C306.027 11.8985 308.577 8.9286 314.58 10.2803L317.937 7.53562C317.937 7.53562 311.644 6.6758 308.974 7.62573C308.974 7.62573 312.045 4.99745 318.84 6.91234L322.493 4.72712C322.493 4.72712 317.127 3.57068 313.932 3.97619C313.932 3.97619 317.307 2.15517 323.565 4.13013L326.19 2.95491C326.19 2.95491 322.26 2.18145 321.109 2.05755C319.958 1.93364 319.898 1.61825 319.898 1.61825C322.388 1.20255 324.944 1.48722 327.282 2.44053C327.282 2.44053 332.831 0.39047 332.734 0.0412856Z" fill="#FFFF64"/>
<path opacity="0.1" d="M293.794 5.67709C293.794 5.67709 279.544 4.81351 281.213 14.8235C281.213 14.8235 280.879 16.5957 282.476 17.3992C282.476 17.3992 282.503 16.6482 283.943 16.9073C284.454 16.9935 284.974 17.0187 285.491 16.9824C286.191 16.9348 286.856 16.6592 287.385 16.1977C287.385 16.1977 291.398 14.5419 292.958 7.9787C292.958 7.9787 294.109 6.54442 294.064 6.17646L291.656 7.20524C291.656 7.20524 292.481 8.94741 291.833 10.393C291.833 10.393 291.754 7.26907 291.293 7.34416C291.199 7.34416 290.04 7.94491 290.04 7.94491C290.04 7.94491 291.458 10.9749 290.389 13.1789C290.389 13.1789 290.794 9.44678 289.598 8.16644L287.903 9.15767C287.903 9.15767 289.56 12.2853 288.435 14.8385C288.435 14.8385 288.724 10.9224 287.546 9.39797L286.013 10.6107C286.013 10.6107 287.565 13.6971 286.62 15.811C286.62 15.811 286.496 11.2528 285.679 10.9111C285.679 10.9111 284.336 12.0976 284.13 12.5857C284.13 12.5857 285.195 14.8385 284.535 16.0024C284.535 16.0024 284.13 12.9649 283.785 12.9536C283.785 12.9536 282.45 14.9662 282.308 16.3329C282.374 15.0574 282.773 13.8214 283.463 12.7471C282.69 12.8937 281.977 13.263 281.411 13.8097C281.411 13.8097 281.621 12.3904 283.793 12.2628C283.793 12.2628 284.918 10.7384 285.195 10.6445C285.195 10.6445 283.035 10.4643 281.726 11.0463C281.726 11.0463 282.878 9.7021 285.593 10.2953L287.093 9.05629C287.093 9.05629 284.25 8.68083 283.043 9.09759C283.043 9.09759 284.43 7.91112 287.501 8.77469L289.151 7.78721C289.151 7.78721 286.729 7.26156 285.281 7.45305C285.281 7.45305 286.808 6.62702 289.635 7.52063L290.816 6.99122C290.816 6.99122 289.039 6.63828 288.518 6.58572C287.996 6.53315 287.97 6.38672 287.97 6.38672C289.096 6.19922 290.251 6.32923 291.308 6.76219C291.308 6.76219 293.839 5.83478 293.794 5.67709Z" fill="#FFFF64"/>
<path d="M343.571 244.339C351.899 244.339 358.65 243.196 358.65 241.786C358.65 240.376 351.899 239.233 343.571 239.233C335.244 239.233 328.493 240.376 328.493 241.786C328.493 243.196 335.244 244.339 343.571 244.339Z" fill="#FFFF64"/>
<path d="M349.808 237.611C350.496 237.049 350.997 236.291 351.244 235.437C351.432 234.577 351.064 233.559 350.239 233.225C349.316 232.872 348.33 233.514 347.584 234.16C346.838 234.806 345.979 235.546 345.004 235.407C345.506 234.95 345.882 234.37 346.095 233.725C346.308 233.08 346.351 232.39 346.219 231.723C346.176 231.447 346.06 231.188 345.881 230.973C345.368 230.424 344.441 230.657 343.826 231.089C341.876 232.463 341.333 235.118 341.321 237.502C341.126 236.642 341.291 235.745 341.288 234.874C341.284 234.003 341.04 232.996 340.294 232.534C339.834 232.287 339.316 232.165 338.794 232.182C337.92 232.148 336.941 232.238 336.345 232.88C335.595 233.676 335.794 235.013 336.439 235.884C337.084 236.755 338.07 237.314 338.978 237.919C339.704 238.352 340.323 238.944 340.789 239.65C340.845 239.748 340.89 239.853 340.924 239.961H346.421C347.651 239.334 348.79 238.544 349.808 237.611Z" fill="#FFFF64"/>
</g>
<defs>
<linearGradient id="paint0_linear" x1="303.191" y1="189.585" x2="303.191" y2="38.5342" gradientUnits="userSpaceOnUse">
<stop stop-color="#808080" stop-opacity="0.25"/>
<stop offset="0.54" stop-color="#808080" stop-opacity="0.12"/>
<stop offset="1" stop-color="#808080" stop-opacity="0.1"/>
</linearGradient>
<linearGradient id="paint1_linear" x1="14944.3" y1="94086.4" x2="33466.1" y2="94086.4" gradientUnits="userSpaceOnUse">
<stop stop-color="#808080" stop-opacity="0.25"/>
<stop offset="0.54" stop-color="#808080" stop-opacity="0.12"/>
<stop offset="1" stop-color="#808080" stop-opacity="0.1"/>
</linearGradient>
<clipPath id="clip0">
<rect width="429" height="245" fill="white"/>
</clipPath>
</defs>
</svg>
