<svg width="330" height="249" viewBox="0 0 330 249" fill="none" xmlns="http://www.w3.org/2000/svg">
<g clip-path="url(#clip0)">
<path opacity="0.4" d="M278.518 95.7181C282.885 95.7181 286.425 92.1645 286.425 87.7809C286.425 83.3973 282.885 79.8438 278.518 79.8438C274.151 79.8438 270.61 83.3973 270.61 87.7809C270.61 92.1645 274.151 95.7181 278.518 95.7181Z" fill="#FFFF64"/>
<path opacity="0.4" d="M111.8 52.0507C118.026 52.0507 123.072 46.985 123.072 40.7361C123.072 34.4871 118.026 29.4214 111.8 29.4214C105.575 29.4214 100.528 34.4871 100.528 40.7361C100.528 46.985 105.575 52.0507 111.8 52.0507Z" fill="#FFFF64"/>
<path opacity="0.4" d="M90.9389 54.077C95.306 54.077 98.8462 50.5234 98.8462 46.1398C98.8462 41.7562 95.306 38.2026 90.9389 38.2026C86.5719 38.2026 83.0317 41.7562 83.0317 46.1398C83.0317 50.5234 86.5719 54.077 90.9389 54.077Z" fill="#FFFF64"/>
<path d="M285.14 176.538C278.892 183.405 278.666 193.406 278.666 193.406C278.666 193.406 288.568 192.276 294.816 185.41C301.064 178.544 301.291 168.542 301.291 168.542C301.291 168.542 291.388 169.672 285.14 176.538Z" fill="#3F3D56"/>
<path d="M288.669 178.515C286.779 187.618 278.832 193.656 278.832 193.656C278.832 193.656 273.95 184.934 275.84 175.83C277.731 166.727 285.678 160.689 285.678 160.689C285.678 160.689 290.56 169.411 288.669 178.515Z" fill="#FFFF64"/>
<path d="M280.555 84.5781V193.101L244.517 222.984H60.1499V109.219L113.945 84.5781H280.555Z" fill="#3F3D56"/>
<path opacity="0.1" d="M280.555 84.5781V85.013L267.618 93.7054L244.517 109.219H60.1499L113.945 84.5781H280.555Z" fill="black"/>
<path opacity="0.1" d="M280.555 84.5781V193.101L244.517 222.984L244.778 108.956L267.618 93.7054L280.346 84.5781H280.555Z" fill="black"/>
<path d="M231.982 99.5197H119.69L128.047 94.8013H235.638L231.982 99.5197Z" fill="#2F2E41"/>
<path d="M328.898 228.887C328.898 228.887 331.074 238.025 329.095 238.422C327.116 238.819 317.419 238.691 315.044 239.088C312.67 239.486 307.722 238.819 307.722 237.031C307.722 235.244 312.868 234.052 312.868 234.052C312.868 234.052 320.19 230.079 320.388 229.88C320.586 229.681 328.898 228.887 328.898 228.887Z" fill="#2F2E41"/>
<path d="M327.117 175.052C327.117 175.052 326.523 181.806 326.523 182.402C326.523 182.998 327.117 192.335 326.523 192.732C325.929 193.13 326.919 195.911 326.919 196.904C326.919 197.897 330.085 214.385 329.294 220.742C328.502 227.099 330.481 226.503 329.887 227.099C329.294 227.695 329.294 227.695 329.294 228.887C329.294 230.079 322.961 231.072 322.961 231.072L316.034 187.17L319.596 174.059L327.117 175.052Z" fill="#575A89"/>
<path opacity="0.1" d="M327.117 175.052C327.117 175.052 326.523 181.806 326.523 182.402C326.523 182.998 327.117 192.335 326.523 192.732C325.929 193.13 326.919 195.911 326.919 196.904C326.919 197.897 330.085 214.385 329.294 220.742C328.502 227.099 330.481 226.503 329.887 227.099C329.294 227.695 329.294 227.695 329.294 228.887C329.294 230.079 322.961 231.072 322.961 231.072L316.034 187.17L319.596 174.059L327.117 175.052Z" fill="black"/>
<path d="M326.127 231.668C326.127 231.668 328.106 238.819 326.127 239.217C324.148 239.614 314.451 238.762 312.076 239.159C309.701 239.556 304.754 239.614 304.754 237.826C304.754 236.038 309.899 234.846 309.899 234.846C309.899 234.846 317.222 230.873 317.42 230.675C317.617 230.476 326.127 231.668 326.127 231.668Z" fill="#2F2E41"/>
<path d="M328.897 167.106C328.897 167.106 331.272 172.867 328.502 175.847C325.731 178.827 322.565 184.786 322.565 185.184C322.565 185.581 328.106 225.112 327.314 227.695C326.523 230.277 326.721 231.866 326.918 232.264C327.116 232.661 324.939 234.846 322.565 234.846C320.19 234.846 316.628 233.058 316.232 231.469C315.836 229.88 316.825 216.173 316.628 213.591C316.43 211.008 315.44 207.234 315.044 206.439C314.648 205.645 312.472 204.85 312.076 202.466C311.68 200.082 308.514 169.689 309.503 168.696C310.493 167.702 328.897 167.106 328.897 167.106Z" fill="#575A89"/>
<path d="M313.857 121.417C317.573 121.417 320.586 118.393 320.586 114.663C320.586 110.933 317.573 107.909 313.857 107.909C310.141 107.909 307.128 110.933 307.128 114.663C307.128 118.393 310.141 121.417 313.857 121.417Z" fill="#FFB9B9"/>
<path d="M318.013 118.04C318.013 118.04 316.628 125.39 317.617 126.184C318.607 126.979 310.097 128.171 310.097 128.171C310.097 128.171 309.107 118.437 308.909 117.444C308.711 116.451 318.013 118.04 318.013 118.04Z" fill="#FFB9B9"/>
<path d="M308.91 127.575C308.91 127.575 311.285 120.622 320.982 122.608C320.982 122.608 322.763 123.204 322.169 123.8C321.575 124.396 320.982 124.396 321.773 124.992C322.565 125.588 323.554 124.992 322.961 125.588C322.367 126.184 328.304 129.76 327.908 136.514C327.512 143.268 329.294 152.803 327.908 154.392C326.523 155.982 328.898 162.934 328.502 164.325C328.106 165.716 330.877 167.503 329.689 168.099C328.502 168.695 307.129 172.271 306.535 168.099C305.941 163.928 306.337 166.907 305.743 165.914C305.15 164.921 304.952 163.133 305.348 160.948C305.743 158.763 306.733 153.399 306.337 151.413C305.941 149.426 306.337 132.74 307.524 130.753C308.712 128.767 308.91 127.575 308.91 127.575Z" fill="#FFFF64"/>
<path d="M313.066 176.046C313.066 176.046 316.034 187.369 312.274 187.369C308.514 187.369 308.712 175.648 308.712 175.648L313.066 176.046Z" fill="#FFB9B9"/>
<path d="M310.889 114.663C310.889 115.239 311.72 115.604 313.008 115.688H313.01C313.556 115.719 314.104 115.708 314.649 115.656C315.472 115.581 315.812 116.357 315.953 117.382C316.183 119.073 315.862 121.443 316.232 121.814C316.743 122.327 320.465 121.812 321.629 120.65C321.81 120.487 321.931 120.267 321.971 120.026C322.093 119.317 322.442 118.666 322.965 118.173C323.651 117.42 324.629 116.586 325.731 115.259C327.71 112.875 325.731 112.676 325.138 110.888C324.544 109.101 323.554 108.505 323.554 107.313C323.554 106.121 319.003 105.128 315.242 105.326C311.482 105.525 312.274 110.292 312.274 110.292C312.274 110.292 312.05 110.869 311.783 111.612C311.422 112.544 311.128 113.501 310.905 114.476C310.895 114.538 310.89 114.6 310.889 114.663Z" fill="#2F2E41"/>
<path opacity="0.1" d="M311.68 130.554C311.68 130.554 318.409 130.157 319.003 140.09C319.596 150.022 319.398 159.359 319.398 159.557C319.398 159.756 316.628 178.628 314.055 178.628C311.482 178.628 309.503 178.231 308.91 177.237C308.316 176.244 310.493 161.941 310.493 161.941C310.493 161.941 311.482 146.844 309.899 142.076C308.316 137.309 308.118 131.15 311.68 130.554Z" fill="black"/>
<path d="M310.691 129.561C310.691 129.561 317.419 129.164 318.013 139.096C318.607 149.029 318.409 158.366 318.409 158.564C318.409 158.763 315.638 177.635 313.065 177.635C310.493 177.635 308.514 177.237 307.92 176.244C307.326 175.251 309.503 160.948 309.503 160.948C309.503 160.948 310.493 145.851 308.909 141.083C307.326 136.315 307.128 130.157 310.691 129.561Z" fill="#FFFF64"/>
<path d="M199.115 32.4586C199.115 32.4586 196.183 24.1187 194.065 26.7352C191.947 29.3516 197.323 33.7668 197.323 33.7668L199.115 32.4586Z" fill="#A0616A"/>
<path d="M212.962 24.2822L211.198 24.9385C211.198 24.9385 210.356 28.6974 210.682 29.3516C211.007 30.0057 211.17 29.5151 210.682 30.8233C210.193 32.1315 208.727 35.5656 208.564 36.0561C208.401 36.5467 199.115 32.9491 199.115 31.1503C199.115 31.1503 197.16 33.4397 196.183 33.9303C196.183 33.9303 206.935 41.7796 208.401 42.7607C209.867 43.7419 210.682 43.2513 211.985 42.1066C213.288 40.9619 218.827 31.4774 218.827 31.4774L212.962 24.2822Z" fill="#575A89"/>
<path d="M208.238 82.3344C208.238 82.3344 208.401 84.1332 208.727 84.2967C209.053 84.4602 211.496 88.5484 208.727 89.366C205.957 90.1836 204.328 89.8566 203.677 90.1837C203.025 90.5107 191.621 91.1648 191.459 89.366C191.296 87.5672 196.997 87.2402 196.997 87.2402C196.997 87.2402 202.211 83.8061 203.025 82.0073C203.84 80.2085 208.238 82.3344 208.238 82.3344Z" fill="#2F2E41"/>
<path d="M241.309 85.6045C241.309 85.6045 245.218 92.3091 244.241 93.1267C243.263 93.9443 233.744 96.924 232.348 97.0513C230.556 97.2149 229.253 95.7431 230.719 94.9255C232.186 94.1079 235.281 90.6738 235.281 89.5291V86.5856L241.309 85.6045Z" fill="#2F2E41"/>
<path d="M245.056 41.7798C245.056 41.7798 248.477 46.0315 243.101 52.8996L234.141 64.3465C234.141 64.3465 239.68 73.1769 239.842 77.7556C240.005 82.3344 241.146 81.3532 241.472 83.3155C241.797 85.2778 243.264 84.2967 242.123 85.7684C240.983 87.2402 236.747 88.5484 235.444 87.4037C234.996 86.9921 234.646 86.4842 234.42 85.9179C234.194 85.3517 234.099 84.7416 234.141 84.1332C234.141 83.4791 231.86 79.7179 231.697 78.5733C231.534 77.4286 225.506 68.1076 225.506 68.1076C225.506 68.1076 223.551 62.5477 225.832 59.4406C228.113 56.3336 229.62 51.927 229.62 51.927C229.62 51.927 222.9 60.0948 218.175 62.0571C218.175 62.0571 216.383 62.3841 216.709 63.2018C217.035 64.0194 216.709 64.51 216.221 65.3276C215.732 66.1453 212.311 75.6298 211.17 78.0827C210.03 80.5356 210.519 82.0073 209.215 82.825C207.912 83.6426 202.047 82.9885 202.047 82.1708C202.047 81.3532 202.862 79.2274 203.351 78.0827C203.839 76.938 207.749 63.6924 207.423 61.403C207.098 59.1136 207.586 56.0066 210.03 54.6984C212.474 53.3902 224.855 42.761 225.506 42.761C226.158 42.761 245.056 41.7798 245.056 41.7798Z" fill="#2F2E41"/>
<path d="M212.311 16.1059C216.09 16.1059 219.153 13.0309 219.153 9.23775C219.153 5.44459 216.09 2.36963 212.311 2.36963C208.532 2.36963 205.469 5.44459 205.469 9.23775C205.469 13.0309 208.532 16.1059 212.311 16.1059Z" fill="#A0616A"/>
<path d="M217.85 9.89209C217.85 9.89209 219.967 13.6532 222.574 14.1438C225.181 14.6344 215.732 22.1566 215.732 22.1566C215.732 22.1566 213.451 14.9614 211.496 14.6344C209.541 14.3073 217.85 9.89209 217.85 9.89209Z" fill="#A0616A"/>
<path d="M211.17 25.2635C211.17 27.3894 217.524 33.4399 217.524 33.4399L223.552 38.5092C223.552 38.5092 223.714 40.308 224.366 40.4715C225.018 40.635 225.832 40.635 225.181 41.6162C224.529 42.5973 222.9 44.7232 224.366 45.0502C224.808 45.1177 225.254 45.1603 225.7 45.1778C226.091 45.2007 226.551 45.2219 227.067 45.2416C228.273 45.2841 229.781 45.3119 231.415 45.3004C231.879 45.2988 232.352 45.2934 232.832 45.2841C238.992 45.1614 246.128 44.4501 245.544 42.1068C244.567 38.1821 245.219 36.8739 243.101 34.7481C240.983 32.6222 237.562 25.2635 237.562 25.2635C237.562 25.2635 230.72 13.6531 225.018 13.6531L223.833 13.3408C223.283 13.1953 222.701 13.2272 222.17 13.432C221.639 13.6369 221.185 14.0043 220.873 14.4822C219.73 16.2303 217.926 18.8566 216.872 19.7036C215.243 21.0118 214.989 20.0732 214.989 20.0732C214.989 20.0732 211.17 23.1377 211.17 25.2635Z" fill="#575A89"/>
<path d="M225.67 50.1196C225.67 50.1196 220.945 57.4783 223.877 58.7865C226.81 60.0947 228.439 51.1008 228.439 51.1008L225.67 50.1196Z" fill="#A0616A"/>
<path d="M216.784 8.46202C216.521 8.42876 216.438 8.09617 216.394 7.83421C216.157 6.43144 215.116 5.10123 213.717 4.87478C213.182 4.80336 212.638 4.84736 212.121 5.00383C211.381 5.20766 210.687 5.55086 210.074 6.01516C209.775 6.29004 209.428 6.50845 209.052 6.6599C208.795 6.73558 207.705 7.22208 207.45 7.30439C206.89 7.48537 206.426 8.07374 205.85 7.95725C205.298 7.84579 205.088 7.17696 205 6.61904C204.798 5.34798 205.522 3.45144 206.243 2.38677C206.79 1.57885 207.715 1.11387 208.641 0.811377C209.724 0.481105 210.838 0.258964 211.966 0.148178C213.487 -0.0322424 215.064 -0.127965 216.522 0.344245C217.981 0.816455 219.309 1.97159 219.581 3.48541C219.638 3.80075 219.648 4.12374 219.718 4.4365C219.888 5.19945 220.39 5.84076 220.684 6.56488C220.895 7.09669 220.994 7.66712 220.972 8.23939C220.951 8.81166 220.81 9.37306 220.559 9.8874C220.153 10.7074 219.447 11.4954 219.599 12.3984L218.342 11.4033C218.16 11.2997 218.019 11.1367 217.943 10.9415C217.867 10.7463 217.859 10.5306 217.922 10.3306L218.105 8.75054C218.168 8.46427 218.14 8.16526 218.023 7.89625C217.465 6.91649 217.222 8.51748 216.784 8.46202Z" fill="#2F2E41"/>
<path opacity="0.1" d="M228.602 38.8361L227.067 45.2414C228.615 45.297 230.662 45.3264 232.832 45.2839C233.38 43.6356 233.903 41.9169 234.303 40.3078C235.77 34.4208 233.326 25.4269 232.023 21.1752C230.719 16.9235 227.461 15.7788 227.461 15.7788C226.126 16.2503 224.864 16.9111 223.714 17.7411C221.596 19.2129 228.602 38.8361 228.602 38.8361Z" fill="black"/>
<path opacity="0.1" d="M227.298 38.5091L225.7 45.1778C226.091 45.2007 226.551 45.2219 227.067 45.2415C228.273 45.284 229.781 45.3119 231.415 45.3004C232.003 43.549 232.572 41.7012 233 39.9809C234.466 34.0939 232.023 25.1 230.719 20.8483C229.416 16.5966 226.565 21.2571 226.565 21.2571C226.565 21.2571 227.706 18.4771 225.588 19.9489C223.47 21.4206 227.298 38.5091 227.298 38.5091Z" fill="black"/>
<path d="M226.81 15.4517C226.81 15.4517 230.068 16.5963 231.371 20.848C232.675 25.0997 235.118 34.0937 233.652 39.9806C232.186 45.8676 229.091 53.2263 229.091 53.2263C229.091 53.2263 225.995 50.9369 224.855 51.4275L227.95 38.5089C227.95 38.5089 220.945 18.8857 223.063 17.414C224.212 16.584 225.474 15.9232 226.81 15.4517Z" fill="#575A89"/>
<path d="M229.238 97.4755L184.166 3.19678L108.803 39.4992L136.52 97.4755H229.238Z" fill="#F2F2F2"/>
<path d="M168.914 40.2034L128.886 59.4849L130.078 61.9788L170.106 42.6973L168.914 40.2034Z" fill="#3F3D56"/>
<path d="M179.512 62.3713L139.484 81.6528L140.676 84.1468L180.704 64.8652L179.512 62.3713Z" fill="#3F3D56"/>
<path d="M186.792 27.1596L176.854 31.9468L181.623 41.9225L191.561 37.1353L186.792 27.1596Z" fill="#3F3D56"/>
<path d="M197.39 49.3276L187.452 54.1147L192.221 64.0904L202.159 59.3033L197.39 49.3276Z" fill="#3F3D56"/>
<path d="M187.477 20.25L183.384 31.9391L177.867 29.9925L177.112 32.1488L184.77 34.8504L189.625 21.0079L187.477 20.25Z" fill="#57B894"/>
<path d="M198.075 42.418L193.982 54.1071L188.465 52.1608L187.71 54.3167L195.368 57.0183L200.223 43.1758L198.075 42.418Z" fill="#57B894"/>
<path d="M4.34979 205.984L24.7129 201.618L20.3632 181.178L6.45729e-05 185.544L4.34979 205.984Z" fill="#F2F2F2"/>
<path d="M24.1464 175.717C24.1464 175.717 16.667 181.079 19.1602 183.225C21.6533 185.37 26.6396 176.789 26.6396 176.789L24.1464 175.717Z" fill="#FFB9B9"/>
<path d="M58.6944 183.939C58.6944 183.939 57.2698 201.815 56.9136 204.318C56.5574 206.82 56.2013 229.343 55.4889 231.846C54.7766 234.349 54.0643 240.426 54.0643 240.426H49.7904C49.7904 240.426 50.1465 229.343 49.078 225.053C48.0095 220.763 48.3657 208.965 48.3657 208.965C48.3657 208.965 46.2287 187.872 47.2972 185.012C48.3657 182.152 58.6944 183.939 58.6944 183.939Z" fill="#FFB9B9"/>
<path d="M52.9958 239.354C52.9958 239.354 54.7766 240.426 54.7766 241.141C54.7766 241.856 54.4205 243.644 54.7766 244.359C55.1328 245.074 57.6259 247.934 56.2013 248.649C54.7766 249.364 48.3657 248.649 48.3657 248.649C48.3657 248.649 48.7219 243.644 49.078 243.286C49.4342 242.929 48.7219 239.354 48.7219 239.354H52.9958Z" fill="#2F2E41"/>
<path d="M31.4675 183.501C31.4675 183.501 31.0151 201.428 31.1075 203.955C31.2 206.481 29.199 228.917 29.6457 231.481C30.0924 234.045 30.1652 240.164 30.1652 240.164L34.4156 240.614C34.4156 240.614 35.2203 229.555 36.7315 225.401C38.2427 221.247 39.1222 209.477 39.1222 209.477C39.1222 209.477 43.4531 188.726 42.6896 185.769C41.9261 182.812 31.4675 183.501 31.4675 183.501Z" fill="#FFB9B9"/>
<path d="M31.3403 239.21C31.3403 239.21 29.4571 240.089 29.3823 240.8C29.3076 241.511 29.4748 243.326 29.0459 244C28.6169 244.673 25.8385 247.255 27.1805 248.116C28.5225 248.977 34.9728 248.942 34.9728 248.942C34.9728 248.942 35.142 243.927 34.8252 243.534C34.5084 243.141 35.5906 239.66 35.5906 239.66L31.3403 239.21Z" fill="#2F2E41"/>
<path d="M53.708 157.126C53.708 157.126 56.5573 157.483 57.6258 163.561C58.6943 169.639 62.6121 185.012 59.4066 186.084C56.2011 187.157 46.5847 189.302 46.2286 188.587C45.8724 187.872 45.1601 186.084 45.1601 186.084C45.1601 186.084 46.2286 189.302 44.8039 189.302C43.3793 189.302 29.4889 187.157 29.8451 186.084C30.2013 185.012 30.9136 177.147 30.9136 177.147C30.9136 177.147 33.0506 163.919 35.1875 161.774C35.806 161.178 36.2861 160.452 36.5939 159.649C36.9017 158.846 37.0295 157.984 36.9683 157.126H53.708Z" fill="#2F2E41"/>
<path d="M59.0504 154.266C59.0504 154.266 54.4203 153.193 53.708 154.624C52.9957 156.054 55.4888 158.199 56.5573 158.199C57.6258 158.199 59.4066 157.126 59.4066 157.126L59.0504 154.266Z" fill="#FFB9B9"/>
<path d="M49.4339 123.878C52.9745 123.878 55.8448 120.997 55.8448 117.443C55.8448 113.888 52.9745 111.007 49.4339 111.007C45.8932 111.007 43.0229 113.888 43.0229 117.443C43.0229 120.997 45.8932 123.878 49.4339 123.878Z" fill="#FFB9B9"/>
<path d="M48.3657 122.09C48.3657 122.09 47.2972 127.095 48.0095 127.095C48.7218 127.095 42.6671 130.313 42.6671 130.313L38.037 129.598L36.6123 127.453C36.6123 127.453 44.0917 122.447 44.0917 119.587C44.0917 116.727 48.3657 122.09 48.3657 122.09Z" fill="#FFB9B9"/>
<path d="M45.1601 127.095C45.1601 127.095 46.2286 126.38 46.5848 126.38H49.4341C49.7902 126.38 54.4203 127.453 54.4203 127.453L57.2696 143.541C57.2696 143.541 52.2834 151.764 55.845 158.199C55.845 158.199 54.7765 157.484 49.7902 157.841C44.8039 158.199 35.8999 159.271 35.5437 159.271C35.1876 159.271 35.1876 156.411 35.5437 155.696C35.8999 154.981 35.1876 155.339 35.1876 153.551C35.1876 151.764 34.1191 148.546 34.1191 148.546L29.1328 130.313C29.1328 130.313 35.5437 126.738 36.6122 127.095C37.6807 127.453 40.8862 128.525 41.5985 128.168C42.3108 127.81 45.1601 127.095 45.1601 127.095Z" fill="#FFFF64"/>
<path d="M53.3521 127.81L54.4205 127.453C54.4205 127.453 56.5575 127.095 59.0506 129.24C61.5438 131.385 70.804 137.82 70.804 137.82C70.804 137.82 74.3656 140.68 73.2972 143.898C72.2287 147.116 70.4479 154.981 65.1054 154.623C65.1054 154.623 61.9 158.914 60.1191 158.198C58.3383 157.483 56.9137 154.623 57.9822 154.266C59.0507 153.908 61.9 150.333 61.9 150.333L58.3383 143.541H57.2699L53.3521 141.395L53.3521 127.81Z" fill="#FFFF64"/>
<path d="M31.9821 129.955L29.1328 130.313C29.1328 130.313 26.6397 131.385 26.9959 136.033C27.352 140.68 24.8589 161.774 25.9274 164.276C25.9274 164.276 22.3658 176.432 23.0781 176.789C23.7904 177.147 28.0644 179.292 27.7082 177.862C27.352 176.431 31.626 166.421 31.626 166.421C31.626 166.421 36.6122 161.059 34.4753 153.551V147.473L31.9821 129.955Z" fill="#FFFF64"/>
<path d="M54.7694 123.664L50.2417 124.654L49.6598 122.416L49.8835 124.732L42.5793 126.33L42.2581 125.094L42.3816 126.373L37.7032 127.396L36.7024 117.753C35.6736 113.796 39.4287 109.578 43.3708 108.545L45.1197 108.087C48.0151 107.329 53.2781 108.018 54.0337 110.925C52.7111 115.992 50.4564 121.547 54.7694 123.664Z" fill="#2F2E41"/>
</g>
<defs>
<clipPath id="clip0">
<rect width="330" height="248.967" fill="white"/>
</clipPath>
</defs>
</svg>
