<svg width="200" height="50" viewBox="0 0 200 50" fill="none" xmlns="http://www.w3.org/2000/svg">
<path d="M83.9619 47.919V16.1743H83.7264L71.0083 47.919H66.0623L53.3442 16.1743H53.1087V47.919H47.2207V4.88725H54.7573L68.4175 39.2186H68.653L82.3132 4.88725H90.0854V47.919H83.9619ZM123.294 47.919H117.17V42.5106H116.935C115.286 46.273 111.989 48.3893 107.278 48.3893C100.448 48.3893 96.4445 43.9215 96.4445 36.632V16.4094H102.804V35.4562C102.804 40.1592 105.159 42.7458 109.398 42.7458C114.109 42.7458 116.699 39.4537 116.699 34.5157V16.4094H123.058L123.294 47.919ZM140.722 15.9391C148.023 15.9391 152.498 19.9366 152.734 25.8153H146.846C146.375 22.7584 144.255 20.8772 140.722 20.8772C137.19 20.8772 134.834 22.5232 134.834 25.1098C134.834 26.991 136.247 28.4019 139.545 29.1073L144.491 30.283C150.85 31.6939 153.205 34.2805 153.205 38.7483C153.205 44.3918 148.023 48.3893 140.722 48.3893C132.95 48.3893 128.24 44.6269 127.769 38.5131H134.128C134.599 41.8052 136.954 43.4512 140.722 43.4512C144.491 43.4512 146.846 41.8052 146.846 39.2186C146.846 37.1023 145.668 35.9265 142.371 35.2211L137.425 34.0454C131.537 32.6345 128.711 29.8127 128.711 25.1098C128.711 19.7015 133.421 15.9391 140.722 15.9391ZM157.915 8.17929C157.915 6.06298 159.564 4.41695 161.684 4.41695C163.803 4.41695 165.452 6.06298 165.452 8.17929C165.452 10.2956 163.803 11.9416 161.684 11.9416C159.564 11.9416 157.915 10.2956 157.915 8.17929ZM158.386 16.4094H164.745V47.919H158.386V16.4094ZM191.595 27.2261C190.888 23.9341 188.533 21.1123 184.294 21.1123C179.348 21.1123 176.05 25.345 176.05 31.9291C176.05 38.7483 179.348 42.7458 184.294 42.7458C188.297 42.7458 190.653 40.6295 191.595 36.8671H197.718C197.012 43.4512 191.83 48.1541 184.294 48.1541C175.344 48.1541 169.691 42.0403 169.691 31.9291C169.691 22.0529 175.344 15.704 184.294 15.704C192.301 15.704 197.012 20.8772 197.718 26.991L191.595 27.2261ZM27.6725 9.11988C26.0238 11.001 23.4331 12.6471 20.8424 12.4119C20.3713 9.59017 21.7845 6.76841 23.1976 5.12239C24.8462 3.00608 27.6725 1.5952 30.0277 1.5952C30.2632 4.18181 29.3211 7.00356 27.6725 9.11988ZM30.0277 12.8822C31.4408 12.8822 35.6802 13.3525 38.5064 17.5851C38.2709 17.8203 33.5605 20.642 33.5605 26.5207C33.5605 33.5751 39.684 35.9265 39.684 35.9265C39.684 36.1617 38.7419 39.2186 36.6223 42.5106C34.7381 45.3324 32.6184 48.1541 29.5566 48.1541C26.4949 48.1541 25.5528 46.273 22.02 46.273C18.4872 46.273 17.3096 48.1541 14.4833 48.1541C11.4216 48.1541 9.06635 45.0972 7.18219 42.2755C3.17834 36.3968 0.116572 25.8153 4.35594 18.7609C6.24011 15.2337 10.0084 12.8822 13.7768 12.8822C16.8385 12.8822 19.6648 14.9985 21.3134 14.9985C22.9621 14.9985 26.2594 12.6471 30.0277 12.8822Z" fill="#777777"/>
</svg>
