<svg width="271" height="53" viewBox="0 0 271 53" fill="none" xmlns="http://www.w3.org/2000/svg">
<path d="M63.4411 34.5245C63.4411 45.4303 70.1348 51.9575 80.0805 51.9575C85.0398 51.9575 89.2132 50.5705 91.5438 46.9261V51.9575H100.622V0.0119019H91.1915V22.0956C89.0506 18.4512 85.094 16.8194 80.1347 16.8194C70.4329 16.7922 63.4411 23.4554 63.4411 34.5245ZM91.4896 34.5245C91.4896 40.7525 87.262 44.6416 82.1943 44.6416C76.9369 44.6416 72.899 40.7525 72.899 34.5245C72.899 28.1876 76.964 24.2169 82.1943 24.2169C87.262 24.2169 91.4896 28.242 91.4896 34.5245Z" fill="#777777"/>
<path d="M129.972 38.5496C128.888 42.5747 126.151 44.5872 121.842 44.5872C116.828 44.5872 112.709 41.5412 112.601 36.1562H136.367C136.665 34.8236 136.801 33.4094 136.801 31.8592C136.801 22.2044 130.243 16.765 120.568 16.765C110.243 16.765 103.143 24.1353 103.143 34.1437C103.143 45.2943 110.975 51.9847 121.815 51.9847C129.999 51.9847 135.554 48.5579 137.993 41.7316L129.972 38.5496ZM112.601 29.8466C113.495 25.9575 116.72 23.673 120.595 23.673C124.823 23.673 127.695 25.9575 127.695 29.5475L127.641 29.8466H112.601Z" fill="#777777"/>
<path d="M164.958 38.5496C163.874 42.5747 161.137 44.5872 156.828 44.5872C151.814 44.5872 147.695 41.5412 147.587 36.1562H171.353C171.651 34.8236 171.787 33.4094 171.787 31.8592C171.787 22.2044 165.229 16.765 155.554 16.765C145.229 16.765 138.129 24.1353 138.129 34.1437C138.129 45.2943 145.961 51.9847 156.801 51.9847C164.985 51.9847 170.54 48.5579 172.979 41.7316L164.958 38.5496ZM147.587 29.8466C148.481 25.9575 151.706 23.673 155.581 23.673C159.809 23.673 162.681 25.9575 162.681 29.5475L162.627 29.8466H147.587Z" fill="#777777"/>
<path d="M205.066 52.0119V43.445H185.256L204.524 24.6249V16.7922H174.036V24.9512H192.654L173.44 43.8529V52.0119H205.066Z" fill="#777777"/>
<path d="M232.626 38.5496C231.542 42.5747 228.805 44.5872 224.496 44.5872C219.483 44.5872 215.364 41.5412 215.255 36.1562H239.022C239.32 34.8236 239.456 33.4094 239.456 31.8592C239.456 22.2044 232.897 16.765 223.223 16.765C212.898 16.765 205.797 24.1353 205.797 34.1437C205.797 45.2943 213.629 51.9847 224.469 51.9847C232.653 51.9847 238.209 48.5579 240.648 41.7316L232.626 38.5496ZM215.255 29.8466C216.15 25.9575 219.374 23.673 223.25 23.673C227.477 23.673 230.35 25.9575 230.35 29.5475L230.296 29.8466H215.255Z" fill="#777777"/>
<path d="M53.7664 16.7922H42.1405V23.6186H53.7664V16.7922Z" fill="#777777"/>
<path d="M53.7664 26.2567H42.1405V33.083H53.7664V26.2567Z" fill="#777777"/>
<path d="M53.7664 35.7211H42.1405V42.5475H53.7664V35.7211Z" fill="#777777"/>
<path d="M11.6259 45.1855H0V52.0119H11.6259V45.1855Z" fill="#777777"/>
<path d="M25.6637 45.1855H14.0378V52.0119H25.6637V45.1855Z" fill="#777777"/>
<path d="M39.7286 45.1855H28.1027V52.0119H39.7286V45.1855Z" fill="#777777"/>
<path d="M53.7664 45.1855H42.1405V52.0119H53.7664V45.1855Z" fill="#777777"/>
<path d="M39.7286 35.7211H28.1027V42.5475H39.7286V35.7211Z" fill="#777777"/>
<path d="M25.6637 35.7211H14.0378V42.5475H25.6637V35.7211Z" fill="#777777"/>
<path d="M25.6637 26.2567H14.0378V33.083H25.6637V26.2567Z" fill="#777777"/>
<path d="M261.813 28.9491C261.813 29.3027 261.813 29.9554 261.813 29.9554H271C271 29.9554 271 28.2148 271 27.2629C271 21.2253 267.233 16.8466 260.919 16.8466C256.854 16.8466 253.981 18.832 252.491 22.1228V16.8466H243.006V52.0119H252.491V29.3571C252.491 25.7671 254.415 23.7818 257.369 23.7818C260.079 23.809 261.813 26.3655 261.813 28.9491Z" fill="#777777"/>
</svg>
