<svg width="237" height="49" viewBox="0 0 237 49" fill="none" xmlns="http://www.w3.org/2000/svg">
<g clip-path="url(#clip0)">
<path d="M159.253 14.952C164.454 14.952 168.717 19.1874 168.717 24.3546C168.717 29.5218 164.454 33.7572 159.253 33.7572C154.053 33.7572 149.79 29.5218 149.79 24.3546C149.79 19.1027 154.053 14.952 159.253 14.952ZM159.253 8.68365C150.557 8.68365 143.481 15.7144 143.481 24.3546C143.481 32.9948 150.557 40.0256 159.253 40.0256C167.95 40.0256 175.026 32.9948 175.026 24.3546C175.026 15.6297 167.95 8.68365 159.253 8.68365Z" fill="#777777"/>
<path d="M61.3772 9.61544V12.1567C58.6489 9.95427 55.1533 8.59894 51.402 8.59894C42.7057 8.59894 35.6293 15.6297 35.6293 24.2699C35.6293 32.9101 42.7057 39.9409 51.402 39.9409C55.1533 39.9409 58.6489 38.5855 61.3772 36.3831V38.9244H67.1747V9.61544H61.3772ZM51.743 34.096C46.2865 34.096 41.9384 29.6912 41.9384 24.3546C41.9384 18.9333 46.3718 14.6132 51.743 14.6132C57.1995 14.6132 61.5477 19.018 61.5477 24.3546C61.5477 29.6912 57.1143 34.096 51.743 34.096Z" fill="#777777"/>
<path d="M222.088 9.61544V12.1567C219.36 9.95427 215.865 8.59894 212.113 8.59894C203.417 8.59894 196.34 15.6297 196.34 24.2699C196.34 32.9101 203.417 39.9409 212.113 39.9409C215.865 39.9409 219.36 38.5855 222.088 36.3831V38.9244H227.886V9.61544H222.088ZM212.539 34.096C207.083 34.096 202.735 29.6912 202.735 24.3546C202.735 18.9333 207.168 14.6132 212.539 14.6132C217.996 14.6132 222.344 19.018 222.344 24.3546C222.344 29.6912 217.911 34.096 212.539 34.096Z" fill="#777777"/>
<path d="M185.428 11.479C182.017 13.5967 179.118 17.4086 179.118 24.1852V39.0091H185.428V24.1852C185.428 14.4438 195.573 14.952 195.573 14.952V8.68365C195.488 8.68365 190.031 8.51424 185.428 11.479Z" fill="#777777"/>
<path d="M97.1854 11.8178C94.5425 9.86956 91.3027 8.68365 87.7218 8.68365C84.141 8.68365 80.9012 9.86956 78.2582 11.8178C74.4216 14.6979 71.9491 19.2721 71.9491 24.3546V39.0938H78.2582V36.8914V24.3546C78.2582 19.1874 82.5211 14.952 87.7218 14.952C92.9226 14.952 97.1854 19.1874 97.1854 24.3546V36.8914V39.0938H103.495V24.3546C103.495 19.1874 101.022 14.6132 97.1854 11.8178Z" fill="#777777"/>
<path d="M136.319 0.21286C134.699 0.21286 133.42 1.48348 133.42 3.09293V12.1567C130.692 9.95427 127.196 8.59894 123.445 8.59894C114.749 8.59894 107.672 15.6297 107.672 24.2699C107.672 32.9101 114.749 39.9409 123.445 39.9409C127.196 39.9409 130.692 38.5855 133.42 36.3831V38.9244H139.218V3.09293V0.21286H136.319ZM123.786 34.096C118.329 34.096 113.981 29.6912 113.981 24.3546C113.981 18.9333 118.415 14.6132 123.786 14.6132C129.242 14.6132 133.591 19.018 133.591 24.3546C133.676 29.6912 129.242 34.096 123.786 34.096Z" fill="#777777"/>
<path d="M16.1052 8.68365C12.3538 8.68365 8.85825 10.039 6.13 12.2414V9.70015H0.332458V45.6163V48.4964H3.23123C4.85113 48.4964 6.13 47.2257 6.13 45.6163V36.4678C8.85825 38.6702 12.3538 40.0256 16.1052 40.0256C24.8867 40.0256 31.8779 32.9948 31.8779 24.3546C31.8779 15.6297 24.8867 8.68365 16.1052 8.68365ZM15.7641 34.096C10.3076 34.096 5.95948 29.6912 5.95948 24.3546C5.95948 18.9333 10.3929 14.6132 15.7641 14.6132C21.1354 14.6132 25.5688 19.018 25.5688 24.3546C25.5688 29.6912 21.2207 34.096 15.7641 34.096Z" fill="#777777"/>
<path d="M233.769 9.61543C232.149 9.61543 230.87 8.34481 230.87 6.73536C230.87 5.12592 232.149 3.8553 233.769 3.8553C235.389 3.8553 236.667 5.12592 236.667 6.73536C236.667 8.34481 235.389 9.61543 233.769 9.61543ZM233.769 4.19413C232.319 4.19413 231.211 5.29533 231.211 6.73536C231.211 8.09069 232.319 9.2766 233.769 9.2766C235.218 9.2766 236.326 8.09069 236.326 6.73536C236.326 5.29533 235.133 4.19413 233.769 4.19413ZM234.536 8.42952L233.683 7.1589H233.087V8.42952H232.66V5.12592H234.024C234.621 5.12592 235.048 5.54945 235.048 6.14241C235.048 6.90478 234.365 7.1589 234.195 7.1589L235.048 8.51423H234.536V8.42952ZM234.024 5.46475H233.087V6.73536H234.024C234.28 6.73536 234.621 6.48124 234.621 6.14241C234.621 5.71887 234.28 5.46475 234.024 5.46475Z" fill="#777777"/>
</g>
<defs>
<clipPath id="clip0">
<rect width="236.335" height="48.2835" fill="white" transform="translate(0.332458 0.21286)"/>
</clipPath>
</defs>
</svg>
