<svg width="220" height="66" viewBox="0 0 220 66" fill="none" xmlns="http://www.w3.org/2000/svg">
<g clip-path="url(#clip0)">
<path d="M33.535 0.638947C15.4128 0.638947 0.721152 15.2182 0.721152 33.2023C0.721152 51.1871 15.4128 65.7652 33.535 65.7652C51.6592 65.7652 66.3493 51.1871 66.3493 33.2023C66.3493 15.2194 51.6592 0.640502 33.5346 0.640502L33.535 0.638947ZM48.5833 47.6046C47.9955 48.5612 46.7338 48.8645 45.7698 48.2773C38.0655 43.6072 28.3667 42.5495 16.9445 45.1393C15.8438 45.3882 14.7467 44.7038 14.4959 43.6111C14.244 42.5184 14.9308 41.4296 16.0343 41.1808C28.534 38.3468 39.2559 39.567 47.9054 44.8127C48.8693 45.3998 49.1749 46.648 48.5833 47.6046ZM52.5996 38.738C51.859 39.9325 50.2838 40.3097 49.0809 39.5748C40.2606 34.1946 26.8154 32.6365 16.3826 35.7792C15.0296 36.1848 13.6005 35.4281 13.1899 34.0877C12.7824 32.745 13.5453 31.3296 14.896 30.9213C26.813 27.3329 41.6281 29.0711 51.7572 35.248C52.9601 35.983 53.3402 37.5458 52.5996 38.738ZM52.9444 29.5051C42.3687 23.2714 24.92 22.6982 14.8227 25.7394C13.2013 26.2274 11.4866 25.3191 10.9952 23.71C10.5038 22.1001 11.4184 20.3997 13.041 19.9105C24.632 16.4186 43.9008 17.0933 56.0768 24.2664C57.5384 25.1254 58.0164 26.9946 57.1505 28.44C56.2884 29.8873 54.3997 30.3644 52.946 29.5051H52.9444ZM89.9968 30.6996C84.3308 29.3589 83.3238 28.4178 83.3238 26.4405C83.3238 24.5725 85.0949 23.3153 87.732 23.3153C90.2868 23.3153 92.8181 24.2699 95.4748 26.2352C95.5531 26.2947 95.655 26.3184 95.753 26.3029C95.8549 26.2881 95.9411 26.234 95.9998 26.1528L98.7662 22.2829C98.8799 22.1235 98.8485 21.9038 98.6957 21.7821C95.5335 19.265 91.9756 18.0413 87.8143 18.0413C81.6977 18.0413 77.4227 21.6844 77.4227 26.897C77.4227 32.4868 81.1099 34.466 87.4812 35.9939C92.9004 37.2331 93.8173 38.2714 93.8173 40.127C93.8173 42.184 91.9678 43.4633 88.9898 43.4633C85.6827 43.4633 82.9829 42.3551 79.9657 39.7653C79.8913 39.6992 79.7894 39.672 79.6954 39.6759C79.5935 39.6837 79.5034 39.7303 79.4407 39.8042L76.3373 43.4672C76.208 43.6228 76.2237 43.8483 76.3726 43.9805C79.8835 47.0913 84.2015 48.7323 88.8644 48.7323C95.4552 48.7323 99.7145 45.1587 99.7145 39.6254C99.7262 34.9564 96.9089 32.3705 90.0086 30.7047L89.9968 30.6996ZM114.628 25.1546C111.771 25.1546 109.428 26.2714 107.493 28.5598V25.984C107.493 25.7806 107.328 25.615 107.124 25.615H102.05C101.846 25.615 101.682 25.7806 101.682 25.984V54.604C101.682 54.8062 101.846 54.9734 102.05 54.9734H107.124C107.328 54.9734 107.493 54.8062 107.493 54.604V45.5709C109.428 47.7213 111.771 48.7751 114.628 48.7751C119.937 48.7751 125.313 44.7193 125.313 36.966C125.321 29.2111 119.945 25.1542 114.632 25.1542L114.628 25.1546ZM119.412 36.966C119.412 40.9125 116.963 43.6694 113.452 43.6694C109.985 43.6694 107.367 40.788 107.367 36.966C107.367 33.1436 109.985 30.2629 113.452 30.2629C116.905 30.2625 119.412 33.0813 119.412 36.966ZM139.087 25.1546C132.249 25.1546 126.893 30.3792 126.893 37.0504C126.893 43.65 132.214 48.8178 139.004 48.8178C145.865 48.8178 151.238 43.6111 151.238 36.966C151.238 30.3434 145.901 25.1546 139.087 25.1546ZM139.087 43.7083C135.45 43.7083 132.707 40.8075 132.707 36.964C132.707 33.1031 135.356 30.3014 139.004 30.3014C142.664 30.3014 145.423 33.2011 145.423 37.0484C145.423 40.9086 142.758 43.7083 139.087 43.7083ZM165.838 25.615H160.254V19.9509C160.254 19.748 160.089 19.5823 159.885 19.5823H154.811C154.607 19.5823 154.439 19.748 154.439 19.9509V25.615H152.002C151.798 25.615 151.633 25.7806 151.633 25.984V30.3108C151.633 30.5137 151.798 30.6798 152.002 30.6798H154.439V41.8768C154.439 46.3992 156.708 48.6934 161.186 48.6934C163.005 48.6934 164.513 48.3201 165.935 47.5191C166.053 47.4569 166.124 47.3324 166.124 47.2002V43.0784C166.124 42.9539 166.057 42.8334 165.947 42.7673C165.838 42.6973 165.7 42.6934 165.587 42.7517C164.611 43.2378 163.667 43.4633 162.609 43.4633C160.983 43.4633 160.254 42.7284 160.254 41.0874V30.6817H165.838C166.041 30.6817 166.206 30.5161 166.206 30.3127V25.9863C166.214 25.783 166.049 25.6173 165.841 25.6173L165.838 25.615ZM185.288 25.6371V24.9415C185.288 22.895 186.08 21.9823 187.851 21.9823C188.909 21.9823 189.759 22.1907 190.712 22.5057C190.829 22.5423 190.951 22.524 191.045 22.4544C191.143 22.3848 191.197 22.2732 191.197 22.155V17.9126C191.197 17.7504 191.096 17.6069 190.935 17.5591C189.932 17.2624 188.647 16.9579 186.719 16.9579C182.036 16.9579 179.556 19.5765 179.556 24.5277V25.5932H177.119C176.915 25.5932 176.746 25.7589 176.746 25.9618V30.3108C176.746 30.5137 176.915 30.6798 177.119 30.6798H179.556V47.9468C179.556 48.1529 179.724 48.3162 179.928 48.3162H184.999C185.206 48.3162 185.371 48.1529 185.371 47.9468V30.681H190.108L197.365 47.9468C196.542 49.7589 195.731 50.1205 194.626 50.1205C193.733 50.1205 192.788 49.8561 191.828 49.3311C191.738 49.2845 191.628 49.2767 191.534 49.3039C191.436 49.3389 191.354 49.4089 191.315 49.5022L189.595 53.2469C189.513 53.4257 189.583 53.6318 189.755 53.7252C191.55 54.6895 193.168 55.1017 195.171 55.1017C198.917 55.1017 200.99 53.3674 202.812 48.709L211.612 26.1411C211.659 26.0276 211.644 25.8992 211.573 25.7985C211.506 25.6986 211.393 25.6383 211.271 25.6383H205.989C205.829 25.6383 205.688 25.7382 205.637 25.8856L200.225 41.2197L194.301 25.8755C194.246 25.7328 194.109 25.6383 193.956 25.6383H185.288V25.6371ZM174.011 25.615H168.937C168.733 25.615 168.565 25.7806 168.565 25.984V47.9468C168.565 48.1529 168.733 48.3162 168.937 48.3162H174.011C174.215 48.3162 174.384 48.1529 174.384 47.9468V25.9856C174.384 25.7822 174.219 25.6165 174.011 25.6165V25.615ZM171.504 15.6141C169.493 15.6141 167.863 17.2286 167.863 19.223C167.863 21.2186 169.493 22.8351 171.504 22.8351C173.514 22.8351 175.14 21.2186 175.14 19.223C175.14 17.229 173.51 15.6141 171.504 15.6141ZM215.946 32.6769C213.94 32.6769 212.376 31.0768 212.376 29.1337C212.376 27.1906 213.959 25.5722 215.966 25.5722C217.972 25.5722 219.535 27.1719 219.535 29.1135C219.535 31.0566 217.952 32.6769 215.946 32.6769ZM215.966 25.9245C214.136 25.9245 212.753 27.3671 212.753 29.1337C212.753 30.8995 214.128 32.3227 215.946 32.3227C217.776 32.3227 219.159 30.8812 219.159 29.1135C219.159 27.3477 217.784 25.9245 215.966 25.9245ZM216.757 29.4778L217.768 30.8808H216.914L216.005 29.5937H215.225V30.8808H214.512V27.1618H216.181C217.055 27.1618 217.627 27.604 217.627 28.3482C217.631 28.9579 217.274 29.3305 216.761 29.4778H216.757ZM216.154 27.7999H215.225V28.9762H216.154C216.616 28.9762 216.894 28.7511 216.894 28.3875C216.894 28.0049 216.616 27.7999 216.154 27.7999Z" fill="white"/>
</g>
<defs>
<clipPath id="clip0">
<rect width="219.039" height="65.3273" fill="white" transform="translate(0.621124 0.530884)"/>
</clipPath>
</defs>
</svg>
