<svg width="248" height="36" viewBox="0 0 248 36" fill="none" xmlns="http://www.w3.org/2000/svg">
<path d="M90.6152 33.3286H84.3412V11.0765H76.2274V5.69862H98.729V11.0765H90.6152V33.3286Z" fill="#777777"/>
<path d="M123.813 33.3283H117.501V5.69839H123.813V33.3283Z" fill="#777777"/>
<path d="M235.179 27.8761H246.094V33.3293H228.869V5.69934H235.179V27.8761Z" fill="#777777"/>
<path d="M144.821 5.69862H155.045C162.588 5.69862 170.093 9.69315 170.093 19.4383C170.093 28.6244 162.737 33.3286 155.418 33.3286H144.821V5.69862ZM150.945 27.913H154.859C160.124 27.913 163.633 24.6281 163.633 19.4007C163.633 14.4349 160.086 11.0765 155.008 11.0765H150.945V27.913Z" fill="#777777"/>
<path d="M205.116 33.3286H212.053L200.67 5.69862H194.155L182.662 33.3286H189.411L191.448 27.8771H203.098L205.116 33.3286ZM193.139 22.9678L197.301 12.1624L201.424 22.9678H193.139Z" fill="#777777"/>
<path d="M34.0332 9.72446L25.9467 17.8127L17.8584 9.72446L25.9467 1.63965L34.0332 9.72446Z" fill="#777777"/>
<path d="M34.0332 25.8999L25.9467 33.9881L17.8584 25.8999L25.9467 17.8117L34.0332 25.8999Z" fill="#777777"/>
<path d="M17.8586 9.72516L9.77038 17.8134L1.68387 9.72516L9.77038 1.63865L17.8586 9.72516Z" fill="#777777"/>
<path d="M50.2069 9.72516L42.1203 17.8134L34.0321 9.72516L42.1203 1.63865L50.2069 9.72516Z" fill="#777777"/>
</svg>
