<svg width="254" height="37" viewBox="0 0 254 37" fill="none" xmlns="http://www.w3.org/2000/svg">
<g clip-path="url(#clip0)">
<path d="M51.6311 5.77692C51.0276 3.50567 49.2394 1.71515 46.9676 1.10201C42.8569 -1.21414e-06 26.3652 0 26.3652 0C26.3652 0 9.88161 -1.21414e-06 5.76275 1.10201C3.49707 1.707 1.71094 3.49956 1.09931 5.77692C0 9.89776 0 18.5 0 18.5C0 18.5 0 27.1022 1.09931 31.2231C1.70282 33.4943 3.49098 35.2849 5.76275 35.898C9.88161 37 26.3652 37 26.3652 37C26.3652 37 42.8569 37 46.9676 35.898C49.2333 35.293 51.0195 33.5004 51.6311 31.2231C52.7304 27.1022 52.7304 18.5 52.7304 18.5C52.7304 18.5 52.7304 9.89776 51.6311 5.77692Z" fill="white"/>
<path d="M21.0963 26.43L34.796 18.5L21.0963 10.57V26.43Z" fill="#21242A"/>
<path d="M76.5374 33.6614C75.497 32.9545 74.7512 31.8627 74.3143 30.3736C73.8775 28.8846 73.6519 26.9087 73.6519 24.4358V21.0727C73.6519 18.5754 73.9039 16.573 74.4078 15.0595C74.9118 13.546 75.7002 12.444 76.7649 11.7555C77.8297 11.065 79.2318 10.7126 80.9671 10.7126C82.6781 10.7126 84.0456 11.065 85.0778 11.7718C86.1101 12.4786 86.864 13.5807 87.3435 15.0758C87.821 16.573 88.0567 18.5733 88.0567 21.0625V24.4256C88.0567 26.8985 87.821 28.8826 87.3598 30.3798C86.8985 31.877 86.1426 32.979 85.0941 33.6675C84.0537 34.358 82.6354 34.7104 80.8493 34.7104C79.0205 34.7206 77.5777 34.3682 76.5374 33.6614ZM82.3834 30.0294C82.6679 29.2716 82.8203 28.0372 82.8203 26.3302V19.107C82.8203 17.4428 82.6781 16.2308 82.3834 15.4567C82.0989 14.6908 81.5869 14.3038 80.8574 14.3038C80.1523 14.3038 79.6585 14.6908 79.3639 15.4567C79.0794 16.2226 78.927 17.4408 78.927 19.107V26.3302C78.927 28.0454 79.0611 29.2818 79.3374 30.0294C79.6138 30.7872 80.1177 31.164 80.8472 31.164C81.5869 31.164 82.0908 30.7851 82.3834 30.0294Z" fill="white"/>
<path d="M156.623 24.4949V25.6641C156.623 27.1532 156.665 28.2633 156.757 29.0109C156.84 29.7503 157.025 30.2983 157.301 30.6344C157.578 30.9705 158.006 31.1477 158.585 31.1477C159.366 31.1477 159.902 30.8442 160.187 30.2392C160.471 29.6342 160.632 28.6239 160.656 27.2122L165.145 27.473C165.169 27.6746 165.179 27.9517 165.179 28.3061C165.179 30.4511 164.592 32.0481 163.426 33.1073C162.259 34.1665 160.607 34.6962 158.468 34.6962C155.901 34.6962 154.105 33.8895 153.075 32.2742C152.042 30.6588 151.53 28.1696 151.53 24.7902V20.7448C151.53 17.2635 152.067 14.7316 153.132 13.1264C154.196 11.5294 156.025 10.7289 158.618 10.7289C160.404 10.7289 161.772 11.0568 162.729 11.7127C163.686 12.3686 164.356 13.3871 164.751 14.7743C165.137 16.1615 165.338 18.0783 165.338 20.5187V24.4888H156.623V24.4949ZM157.285 14.7417C157.025 15.0697 156.848 15.6075 156.757 16.3469C156.665 17.0863 156.623 18.223 156.623 19.7283V21.3925H160.431V19.7283C160.431 18.2393 160.38 17.1128 160.28 16.3469C160.179 15.581 159.996 15.0351 159.736 14.7234C159.476 14.4117 159.065 14.2529 158.51 14.2529C157.956 14.2447 157.545 14.4138 157.285 14.7417Z" fill="white"/>
<path d="M63.8699 24.059L57.9466 2.62365H63.114L65.1866 12.3361C65.7149 14.7336 66.101 16.7686 66.353 18.4572H66.5033C66.6801 17.2472 67.0662 15.2204 67.6697 12.3686L69.8175 2.61347H74.9849L68.9946 24.0569V34.3417H63.8699V24.059Z" fill="white"/>
<path d="M104.857 11.1668V34.3336H100.789L100.336 31.5001H100.226C99.119 33.6451 97.4589 34.7125 95.2521 34.7125C93.718 34.7125 92.5841 34.2073 91.8546 33.199C91.1251 32.1907 90.7634 30.6181 90.7634 28.4731V11.1668H95.9633V28.1778C95.9633 29.2126 96.073 29.952 96.2986 30.3899C96.5241 30.8279 96.9021 31.054 97.4304 31.054C97.8836 31.054 98.3204 30.9196 98.7309 30.6425C99.1414 30.3655 99.4523 30.0111 99.6534 29.5833V11.1668H104.857Z" fill="white"/>
<path d="M131.55 11.1668V34.3336H127.482L127.028 31.5001H126.919C125.811 33.6451 124.151 34.7125 121.944 34.7125C120.41 34.7125 119.276 34.2073 118.547 33.199C117.817 32.1907 117.456 30.6181 117.456 28.4731V11.1668H122.656V28.1778C122.656 29.2126 122.765 29.952 122.991 30.3899C123.216 30.8279 123.594 31.054 124.123 31.054C124.576 31.054 125.013 30.9196 125.423 30.6425C125.834 30.3655 126.145 30.0111 126.346 29.5833V11.1668H131.55Z" fill="white"/>
<path d="M119 6.81986H113.833V34.3356H108.74V6.81986H103.573V2.62365H118.992V6.81986H119Z" fill="white"/>
<path d="M148.771 14.8762C148.452 13.4136 147.948 12.3544 147.245 11.6985C146.54 11.0426 145.575 10.7146 144.343 10.7146C143.386 10.7146 142.498 10.9835 141.667 11.5294C140.836 12.0672 140.2 12.7822 139.747 13.6662H139.704V1.45645H134.687V34.3438H138.983L139.511 32.1499H139.621C140.023 32.9321 140.627 33.5453 141.433 33.9995C142.238 34.4538 143.128 34.6799 144.11 34.6799C145.871 34.6799 147.164 33.8651 147.993 32.2416C148.824 30.6181 149.234 28.08 149.234 24.6232V20.9566C149.24 18.3656 149.082 16.3387 148.771 14.8762ZM143.998 24.3278C143.998 26.0186 143.931 27.3385 143.788 28.298C143.654 29.2574 143.419 29.9377 143.091 30.3411C142.764 30.7444 142.327 30.946 141.775 30.946C141.346 30.946 140.952 30.8442 140.584 30.6425C140.222 30.4409 139.922 30.1374 139.694 29.734V16.573C139.871 15.9415 140.172 15.4302 140.6 15.0249C141.029 14.6216 141.49 14.4199 141.992 14.4199C142.52 14.4199 142.931 14.6297 143.217 15.0412C143.502 15.4527 143.703 16.1595 143.821 17.1352C143.931 18.1191 143.99 19.5144 143.99 21.3314V24.3258H143.998V24.3278Z" fill="white"/>
<path d="M176.934 34.6799V8.64501L182.022 34.6799H186.282L191.605 8.05225V34.7125H196.102V2.62365H188.767L184.211 27.9781L179.419 2.62365H172.32V34.6799H176.934Z" fill="white"/>
<path d="M209.709 34.7125H213.376V11.1668H208.406V29.7585C207.577 31.1823 204.62 32.3679 204.62 29.5222C204.62 26.6765 204.62 11.1688 204.62 11.1688H199.65C199.65 11.1688 199.65 26.2019 199.65 30.2351C199.65 34.2684 205.094 37.827 208.879 31.7771L209.709 34.7125Z" fill="white"/>
<path d="M237.159 11.1668H232.544V34.7125H237.159V11.1668Z" fill="white"/>
<path d="M234.97 8.40872C233.375 8.40872 232.071 7.10097 232.071 5.50193V4.79102C232.071 3.19197 233.375 1.88422 234.97 1.88422C236.565 1.88422 237.87 3.19197 237.87 4.79102V5.50193C237.868 7.10097 236.565 8.40872 234.97 8.40872Z" fill="white"/>
<path d="M225.091 18.6691H229.114C229.232 16.7115 229.35 10.7818 223.079 10.7818C217.873 10.7818 216.453 14.1021 216.453 17.068C216.453 20.0339 217.952 22.1279 222.211 25.4502C225.84 27.3487 225.997 31.6977 223 31.6977C221.579 31.6977 220.712 30.7485 220.712 29.404C220.712 28.0596 220.712 27.2693 220.712 27.2693H216.453C216.453 27.2693 216.453 29.0883 216.453 29.7198C216.453 31.8545 217.873 35.0974 222.841 35.0974C227.812 35.0974 229.547 32.3292 229.547 28.0596C229.547 23.7901 220.555 19.5979 220.555 16.6728C220.555 13.2731 225.032 13.6479 225.032 16.1187L225.091 18.6691Z" fill="white"/>
<path d="M245.638 16.7502C245.165 22.1279 245.559 26.2385 245.718 28.8479C245.933 32.4005 249.662 32.4066 249.662 28.7685C249.662 26.318 249.662 26.1591 249.662 26.1591H254C254 30.9033 252.344 34.7776 247.689 34.7776C242.245 34.7776 240.668 30.9033 240.668 26.7906C240.668 22.6779 240.668 19.9116 240.668 19.9116C240.668 14.3771 243.035 10.6596 247.53 10.6596C253.525 10.6596 253.683 14.9291 253.683 16.9071C253.683 18.883 253.683 19.5165 253.683 19.5165L249.66 19.8322C249.66 19.8322 249.66 18.883 249.66 16.6687C249.662 14.4566 246.9 12.4807 245.638 16.7502Z" fill="white"/>
</g>
<defs>
<clipPath id="clip0">
<rect width="254" height="37" fill="white"/>
</clipPath>
</defs>
</svg>
