<svg width="988" height="988" viewBox="0 0 988 988" fill="none" xmlns="http://www.w3.org/2000/svg">
<g clip-path="url(#clip0)">
<path d="M494.023 405.236C445.069 405.236 405.241 445.06 405.241 494.009C405.241 542.958 445.069 582.783 494.023 582.783C542.976 582.783 582.804 542.958 582.804 494.009C582.804 445.06 542.978 405.236 494.023 405.236ZM494.023 544.185C466.354 544.185 443.842 521.677 443.842 494.009C443.842 466.341 466.354 443.833 494.023 443.833C521.692 443.833 544.203 466.341 544.203 494.009C544.203 521.677 521.694 544.185 494.023 544.185Z" fill="#2E323A"/>
<path d="M494.014 312.611C393.985 312.611 312.607 393.982 312.607 494.001C312.607 594.021 393.985 675.392 494.014 675.392C594.042 675.392 675.421 594.021 675.421 494.001C675.421 393.982 594.042 312.611 494.014 312.611ZM494.014 636.798C415.268 636.798 351.204 572.74 351.204 494.001C351.204 415.262 415.268 351.204 494.014 351.204C572.76 351.204 636.823 415.262 636.823 494.001C636.823 572.74 572.76 636.798 494.014 636.798Z" fill="#2E323A"/>
<path d="M987.263 13.9549C984.313 3.71494 973.62 -2.18358 963.378 0.756997L865.068 29.0861C855.794 30.4927 848.687 38.4983 848.687 48.1632V185.413C839.583 179.793 829.293 175.918 818.283 174.27C777.306 132.691 729.535 99.7911 676.148 76.4749C618.597 51.3391 557.32 38.5928 494.021 38.5928C372.377 38.5928 258.014 85.9585 172.001 171.966C85.987 257.973 38.6152 372.325 38.6152 493.958C38.6152 552.553 49.5295 609.298 71.0397 662.973C57.3081 668.515 44.4429 676.831 33.3279 687.943C-11.0085 732.277 -11.0085 804.412 33.3279 848.747L166.854 982.261C170.623 986.028 175.561 987.913 180.499 987.913C185.437 987.913 190.377 986.028 194.144 982.261L280.271 896.141C345.759 930.975 419.338 949.322 494.021 949.322C584.1 949.322 671.198 923.066 745.904 873.388C754.779 867.486 757.189 855.51 751.286 846.636C745.385 837.762 733.406 835.354 724.533 841.254C656.181 886.71 576.47 910.734 494.021 910.734C429.637 910.734 366.166 895.834 308.941 867.478L327.672 848.749C372.009 804.414 372.009 732.279 327.672 687.945C287.637 647.917 224.936 644.029 180.501 676.291C159.45 661.005 134.297 653.85 109.398 654.792C88.0479 603.878 77.2108 549.846 77.2108 493.96C77.2108 264.149 264.191 77.185 494.022 77.185C597.226 77.185 694.052 114.116 770.249 181.828C743.573 195.107 725.191 222.647 725.191 254.411C725.191 299.096 761.548 335.45 806.238 335.45C830.453 335.45 852.207 324.763 867.071 307.874C895.785 365.381 910.834 429.049 910.834 493.96C910.834 576.406 886.806 656.106 841.348 724.449C835.445 733.323 837.855 745.302 846.73 751.2C850.016 753.386 853.727 754.432 857.399 754.432C863.642 754.432 869.769 751.409 873.485 745.821C923.169 671.125 949.428 584.031 949.428 493.96C949.428 412.613 927.785 333.038 886.781 263.344C887.105 260.409 887.284 257.432 887.284 254.413V62.8506L974.068 37.8422C984.305 34.8862 990.214 24.1948 987.263 13.9549ZM194.142 715.232C223.433 685.946 271.09 685.948 300.379 715.232C329.667 744.518 329.667 792.171 300.379 821.459L180.497 941.33L60.6156 821.459C31.3268 792.171 31.3268 744.518 60.6156 715.232C75.2599 700.589 94.4989 693.267 113.734 693.267C132.969 693.267 152.208 700.589 166.852 715.232C174.39 722.765 186.607 722.765 194.142 715.232ZM806.234 296.86C782.825 296.86 763.781 277.818 763.781 254.411C763.781 231.004 782.825 211.961 806.234 211.961C829.643 211.961 848.687 231.004 848.687 254.411C848.687 277.818 829.643 296.86 806.234 296.86Z" fill="#2E323A"/>
<path d="M493.974 858.028C694.739 858.028 858.075 694.707 858.075 493.959C858.075 483.304 849.435 474.663 838.776 474.663C828.118 474.663 819.478 483.304 819.478 493.959C819.478 673.426 673.457 819.434 493.974 819.434C483.315 819.434 474.675 828.075 474.675 838.731C474.675 849.387 483.315 858.028 493.974 858.028Z" fill="#2E323A"/>
<path d="M474.675 747.415C474.675 758.072 483.316 766.714 493.976 766.714C644.387 766.714 766.753 644.359 766.753 493.961C766.753 483.305 758.112 474.663 747.452 474.663C736.793 474.663 728.152 483.305 728.152 493.961C728.152 623.075 623.101 728.117 493.976 728.117C483.316 728.117 474.675 736.759 474.675 747.415Z" fill="#2E323A"/>
<path d="M802.357 783.017C797.281 783.017 792.301 785.065 788.692 788.652C785.102 792.261 783.057 797.221 783.057 802.316C783.057 807.391 785.102 812.37 788.692 815.96C792.301 819.549 797.262 821.614 802.357 821.614C807.433 821.614 812.412 819.551 816.002 815.96C819.592 812.368 821.657 807.391 821.657 802.316C821.657 797.221 819.592 792.261 816.002 788.652C812.412 785.063 807.433 783.017 802.357 783.017Z" fill="#2E323A"/>
</g>
<defs>
<clipPath id="clip0">
<rect width="988" height="987.912" fill="white"/>
</clipPath>
</defs>
</svg>
