<svg width="350" height="350" viewBox="0 0 350 350" fill="none" xmlns="http://www.w3.org/2000/svg">
<rect width="350" height="350" rx="10" fill="#21242A"/>
<g clip-path="url(#clip0)">
<path d="M174.504 160.856C166.427 160.856 159.856 167.426 159.856 175.501C159.856 183.577 166.427 190.147 174.504 190.147C182.58 190.147 189.151 183.577 189.151 175.501C189.151 167.426 182.58 160.856 174.504 160.856ZM174.504 183.779C169.939 183.779 166.225 180.066 166.225 175.501C166.225 170.937 169.939 167.223 174.504 167.223C179.069 167.223 182.782 170.937 182.782 175.501C182.782 180.066 179.069 183.779 174.504 183.779Z" fill="#2E323A"/>
<path d="M174.502 145.574C157.999 145.574 144.574 158.999 144.574 175.5C144.574 192.001 157.999 205.426 174.502 205.426C191.005 205.426 204.431 192.001 204.431 175.5C204.431 158.999 191.005 145.574 174.502 145.574ZM174.502 199.059C161.511 199.059 150.941 188.491 150.941 175.5C150.941 162.51 161.511 151.942 174.502 151.942C187.494 151.942 198.063 162.51 198.063 175.5C198.063 188.491 187.494 199.059 174.502 199.059Z" fill="#2E323A"/>
<path d="M255.878 96.3023C255.392 94.6129 253.628 93.6397 251.938 94.1249L235.719 98.7986C234.189 99.0307 233.016 100.351 233.016 101.946V124.589C231.514 123.662 229.817 123.023 228 122.751C221.24 115.891 213.358 110.464 204.551 106.617C195.056 102.47 184.946 100.367 174.503 100.367C154.435 100.367 135.567 108.181 121.377 122.371C107.186 136.56 99.3707 155.426 99.3707 175.493C99.3707 185.16 101.171 194.522 104.72 203.377C102.455 204.291 100.332 205.663 98.4984 207.497C91.1838 214.811 91.1838 226.712 98.4984 234.026L120.528 256.053C121.149 256.675 121.964 256.986 122.779 256.986C123.593 256.986 124.408 256.675 125.03 256.053L139.239 241.845C150.043 247.592 162.182 250.619 174.503 250.619C189.365 250.619 203.734 246.287 216.059 238.091C217.523 237.118 217.921 235.142 216.947 233.678C215.973 232.214 213.997 231.816 212.533 232.79C201.257 240.289 188.106 244.253 174.503 244.253C163.881 244.253 153.41 241.794 143.969 237.116L147.059 234.026C154.374 226.712 154.374 214.811 147.059 207.497C140.454 200.893 130.11 200.252 122.779 205.574C119.306 203.052 115.156 201.872 111.048 202.027C107.526 193.628 105.738 184.713 105.738 175.493C105.738 137.579 136.586 106.734 174.504 106.734C191.53 106.734 207.505 112.827 220.075 123.998C215.674 126.189 212.642 130.732 212.642 135.973C212.642 143.345 218.64 149.342 226.013 149.342C230.008 149.342 233.597 147.579 236.049 144.793C240.786 154.28 243.269 164.784 243.269 175.493C243.269 189.095 239.305 202.244 231.805 213.519C230.831 214.983 231.229 216.96 232.693 217.933C233.235 218.293 233.848 218.466 234.453 218.466C235.483 218.466 236.494 217.967 237.107 217.045C245.304 204.722 249.636 190.353 249.636 175.493C249.636 162.073 246.066 148.945 239.301 137.446C239.354 136.962 239.384 136.471 239.384 135.973V104.369L253.701 100.243C255.39 99.7555 256.365 97.9916 255.878 96.3023ZM125.029 211.999C129.862 207.167 137.724 207.168 142.556 211.999C147.388 216.83 147.388 224.692 142.556 229.524L122.778 249.3L103 229.524C98.1683 224.692 98.1683 216.83 103 211.999C105.416 209.583 108.59 208.375 111.764 208.375C114.937 208.375 118.111 209.583 120.527 211.999C121.771 213.242 123.786 213.242 125.029 211.999ZM226.012 142.976C222.15 142.976 219.008 139.834 219.008 135.973C219.008 132.111 222.15 128.969 226.012 128.969C229.874 128.969 233.016 132.111 233.016 135.973C233.016 139.834 229.874 142.976 226.012 142.976Z" fill="#2E323A"/>
<path d="M174.496 235.557C207.618 235.557 234.565 208.613 234.565 175.493C234.565 173.735 233.14 172.31 231.381 172.31C229.623 172.31 228.197 173.735 228.197 175.493C228.197 205.102 204.107 229.19 174.496 229.19C172.737 229.19 171.312 230.616 171.312 232.374C171.312 234.132 172.737 235.557 174.496 235.557Z" fill="#2E323A"/>
<path d="M171.312 217.308C171.312 219.067 172.737 220.492 174.496 220.492C199.311 220.492 219.499 200.306 219.499 175.494C219.499 173.736 218.073 172.31 216.314 172.31C214.556 172.31 213.13 173.736 213.13 175.494C213.13 196.795 195.799 214.125 174.496 214.125C172.737 214.125 171.312 215.55 171.312 217.308Z" fill="#2E323A"/>
<path d="M225.373 223.182C224.535 223.182 223.714 223.52 223.118 224.112C222.526 224.707 222.188 225.525 222.188 226.366C222.188 227.203 222.526 228.025 223.118 228.617C223.714 229.209 224.532 229.55 225.373 229.55C226.21 229.55 227.031 229.209 227.624 228.617C228.216 228.024 228.557 227.203 228.557 226.366C228.557 225.525 228.216 224.707 227.624 224.112C227.031 223.519 226.21 223.182 225.373 223.182Z" fill="#2E323A"/>
</g>
<defs>
<clipPath id="clip0">
<rect width="163" height="163" fill="white" transform="translate(93 94)"/>
</clipPath>
</defs>
</svg>
