<svg width="25" height="25" viewBox="0 0 25 25" fill="none" xmlns="http://www.w3.org/2000/svg">
<path d="M18.6343 5.27626C19.5924 5.27626 20.3684 4.50534 20.3684 3.54555V1.73414C20.3684 0.773497 19.5932 0 18.6343 0C17.6754 0 16.901 0.772638 16.901 1.73414V3.54641C16.9019 4.50534 17.6762 5.27626 18.6343 5.27626Z" fill="#777777"/>
<path d="M24.7948 2.99953H21.3042V3.8812C21.3042 5.33633 20.1221 6.5219 18.6644 6.5219C17.205 6.5219 16.0254 5.33633 16.0254 3.8812V2.99953H8.98151V3.8812C8.98151 5.33633 7.79766 6.5219 6.34081 6.5219C4.88396 6.5219 3.70096 5.33719 3.70096 3.8812V2.99953L0.178589 2.95575V25H1.9402H23.0624L24.8215 24.9948L24.7948 2.99953ZM23.0607 23.2444H1.9402V9.16175H23.0624V23.2444H23.0607Z" fill="#777777"/>
<path d="M6.31336 5.27626C7.27143 5.27626 8.04836 4.50534 8.04836 3.54555V1.73414C8.04836 0.772638 7.27143 0 6.31336 0C5.35529 0 4.58093 0.772638 4.58093 1.73414V3.54641C4.58093 4.50534 5.35443 5.27626 6.31336 5.27626Z" fill="#777777"/>
<path d="M11.7605 11.0513H8.98669V13.4997H11.7605V11.0513Z" fill="#777777"/>
<path d="M16.2478 11.0513H13.4714V13.4997H16.2478V11.0513Z" fill="#777777"/>
<path d="M20.4045 11.0513H17.6307V13.4997H20.4045V11.0513Z" fill="#777777"/>
<path d="M11.7605 15.1171H8.98669V17.5638H11.7605V15.1171Z" fill="#777777"/>
<path d="M16.2478 15.1171H13.4714V17.5638H16.2478V15.1171Z" fill="#777777"/>
<path d="M20.4045 15.1171H17.6307V17.5638H20.4045V15.1171Z" fill="#777777"/>
<path d="M11.7605 19.2636H8.98669V21.7103H11.7605V19.2636Z" fill="#777777"/>
<path d="M7.35299 15.1171H4.58093V17.5638H7.35299V15.1171Z" fill="#777777"/>
<path d="M7.35299 19.2636H4.58093V21.7103H7.35299V19.2636Z" fill="#777777"/>
<path d="M16.2478 19.2636H13.4714V21.7103H16.2478V19.2636Z" fill="#777777"/>
<path d="M20.4045 19.2636H17.6307V21.7103H20.4045V19.2636Z" fill="#777777"/>
</svg>
